#VRML V2.0 utf8
# 3D model generated by easyeda2kicad.py (https://github.com/uPesy/easyeda2kicad.py)

Shape{
    appearance Appearance {
        material  Material 	{
            diffuseColor 0.8 0.8 0.8
            specularColor 1.0 1.0 1.0
            ambientIntensity 0.2
            transparency 0
            shininess 0.5
        }
    }
    geometry IndexedFaceSet {
        ccw TRUE
        solid FALSE
        coord DEF co Coordinate {
            point [
                -1.6535 -0.2756 -0.6299, -1.5945 -0.2756 -0.6299, -1.6535 -0.2756 -0.1023, -1.5945 -0.2756 0.0, -1.6189 -0.2756 -0.0188, -1.6377 -0.2756 -0.0432, -1.6495 -0.2756 -0.0717, -1.5945 0.2756 -0.6299, -1.6535 0.2756 -0.6299, -1.5945 0.2756 0.0, -1.6535 0.2756 -0.1023, -1.6495 0.2756 -0.0717, -1.6377 0.2756 -0.0432, -1.6189 0.2756 -0.0188, -1.6535 0.6496 -0.6299, -1.5945 0.6496 -0.6299, -1.6535 0.6496 -0.9843, -1.5945 0.6496 -0.9843, -1.6535 0.2636 -0.9843, -1.5945 0.2636 -0.9843, -1.6535 0.2247 -0.9449, -1.5945 0.2247 -0.9449, -1.6535 -0.2247 -0.9449, -1.5945 -0.2247 -0.9449, -1.6535 -0.2636 -0.9843, -1.5945 -0.2636 -0.9843, -1.6535 -0.6496 -0.9843, -1.5945 -0.6496 -0.9843, -1.6535 -0.6496 -0.6299, -1.5945 -0.6496 -0.6299, 1.6535 0.2756 -0.6299, 1.6535 0.6496 -0.6299, 1.5945 0.2756 -0.6299, 1.5945 0.6496 -0.6299, 1.6535 0.2756 -0.1023, 1.5945 0.2756 -0.0, 1.6189 0.2756 -0.0188, 1.6377 0.2756 -0.0432, 1.6495 0.2756 -0.0717, 1.5945 -0.2756 -0.6299, 1.6535 -0.2756 -0.6299, 1.5945 -0.2756 0.0, 1.6535 -0.2756 -0.1023, 1.6495 -0.2756 -0.0717, 1.6377 -0.2756 -0.0432, 1.6189 -0.2756 -0.0188, 1.6535 -0.6496 -0.6299, 1.5945 -0.6496 -0.6299, 1.6535 -0.6496 -0.9843, 1.5945 -0.6496 -0.9843, 1.6535 -0.2636 -0.9843, 1.5945 -0.2636 -0.9843, 1.6535 -0.2247 -0.9449, 1.5945 -0.2247 -0.9449, 1.6535 0.2247 -0.9449, 1.5945 0.2247 -0.9449, 1.6535 0.2636 -0.9843, 1.5945 0.2636 -0.9843, 1.6535 0.6496 -0.9843, 1.5945 0.6496 -0.9843, 1.0236 0.6299 -0.1181, 1.0236 0.689 -0.1181, 1.0223 0.689 -0.1283, 1.0223 0.6299 -0.1283, 1.0183 0.689 -0.1378, 1.0183 0.6299 -0.1378, 1.0121 0.689 -0.1459, 1.0121 0.6299 -0.1459, 1.0039 0.689 -0.1522, 1.0039 0.6299 -0.1522, 0.9944 0.689 -0.1561, 0.9944 0.6299 -0.1561, 0.9843 0.689 -0.1575, 0.9843 0.6299 -0.1575, -0.9843 0.6299 -0.1575, -0.9843 0.689 -0.1575, -0.9843 0.6299 -0.3937, -0.9843 0.689 -0.3937, 1.0236 0.6299 -0.3937, 1.0236 0.689 -0.3937, 1.0499 0.689 -0.3907, 1.0499 0.6299 -0.3907, 1.0749 0.689 -0.382, 1.0749 0.6299 -0.382, 1.0973 0.689 -0.3679, 1.0973 0.6299 -0.3679, 1.116 0.689 -0.3492, 1.116 0.6299 -0.3492, 1.13 0.689 -0.3268, 1.13 0.6299 -0.3268, 1.1388 0.689 -0.3019, 1.1388 0.6299 -0.3019, 1.1417 0.689 -0.2756, 1.1417 0.6299 -0.2756, 1.1417 0.6299 -0.0787, 1.1417 0.689 -0.0787, 1.0236 0.6299 -0.0787, 1.0236 0.689 -0.0787, 1.0236 0.689 -0.0787
            ]
        }
        coordIndex [
            0,1,2,-1,2,1,3,-1,4,5,3,-1,3,5,6,-1,3,6,2,-1,7,8,9,-1,9,8,10,-1,10,11,9,-1,9,11,12,-1,9,12,13,-1,14,8,15,-1,15,8,7,-1,16,14,17,-1,17,14,15,-1,18,16,19,-1,19,16,17,-1,20,18,21,-1,21,18,19,-1,22,20,23,-1,23,20,21,-1,24,22,25,-1,25,22,23,-1,26,24,27,-1,27,24,25,-1,28,26,29,-1,29,26,27,-1,0,28,1,-1,1,28,29,-1,22,24,26,-1,2,10,0,-1,0,10,8,-1,20,8,18,-1,18,8,14,-1,18,14,16,-1,28,0,26,-1,26,0,8,-1,26,8,22,-1,22,8,20,-1,21,19,17,-1,9,3,7,-1,7,3,1,-1,23,1,25,-1,25,1,29,-1,25,29,27,-1,15,7,17,-1,17,7,1,-1,17,1,21,-1,21,1,23,-1,3,9,13,-1,3,13,4,-1,4,13,12,-1,4,12,5,-1,5,12,11,-1,5,11,6,-1,6,11,10,-1,6,10,2,-1,30,31,32,-1,32,31,33,-1,30,32,34,-1,34,32,35,-1,36,37,35,-1,35,37,38,-1,35,38,34,-1,39,40,41,-1,41,40,42,-1,42,43,41,-1,41,43,44,-1,41,44,45,-1,46,40,47,-1,47,40,39,-1,48,46,49,-1,49,46,47,-1,50,48,51,-1,51,48,49,-1,52,50,53,-1,53,50,51,-1,54,52,55,-1,55,52,53,-1,56,54,57,-1,57,54,55,-1,58,56,59,-1,59,56,57,-1,31,58,33,-1,33,58,59,-1,54,56,58,-1,34,42,30,-1,30,42,40,-1,52,40,50,-1,50,40,46,-1,50,46,48,-1,31,30,58,-1,58,30,40,-1,58,40,54,-1,54,40,52,-1,55,39,32,-1,32,39,41,-1,32,41,35,-1,55,32,57,-1,57,32,33,-1,57,33,59,-1,49,47,51,-1,51,47,39,-1,51,39,53,-1,53,39,55,-1,42,34,38,-1,42,38,43,-1,43,38,37,-1,43,37,44,-1,44,37,36,-1,44,36,45,-1,45,36,35,-1,45,35,41,-1,60,61,62,-1,60,62,63,-1,63,62,64,-1,63,64,65,-1,65,64,66,-1,65,66,67,-1,67,66,68,-1,67,68,69,-1,69,68,70,-1,69,70,71,-1,71,70,72,-1,71,72,73,-1,74,73,75,-1,75,73,72,-1,76,74,77,-1,77,74,75,-1,78,76,79,-1,79,76,77,-1,78,79,80,-1,78,80,81,-1,81,80,82,-1,81,82,83,-1,83,82,84,-1,83,84,85,-1,85,84,86,-1,85,86,87,-1,87,86,88,-1,87,88,89,-1,89,88,90,-1,89,90,91,-1,91,90,92,-1,91,92,93,-1,94,93,95,-1,95,93,92,-1,96,94,97,-1,97,94,95,-1,60,96,61,-1,61,96,97,-1,63,93,60,-1,60,93,94,-1,60,94,96,-1,74,76,73,-1,73,76,78,-1,73,78,71,-1,71,78,81,-1,87,69,85,-1,85,69,71,-1,85,71,83,-1,83,71,81,-1,63,65,93,-1,93,65,67,-1,93,67,91,-1,91,67,69,-1,91,69,89,-1,89,69,87,-1,66,64,92,-1,92,64,62,-1,92,62,95,-1,95,62,61,-1,95,61,97,-1,84,70,86,-1,86,70,68,-1,86,68,88,-1,77,75,79,-1,79,75,72,-1,79,72,80,-1,80,72,70,-1,80,70,82,-1,82,70,84,-1,66,92,68,-1,68,92,90,-1,68,90,88,-1,
        ]
    }
}
Shape{
    appearance Appearance {
        material  Material 	{
            diffuseColor 0.2 0.2 0.2
            specularColor 0.25098039215686274 0.25098039215686274 0.25098039215686274
            ambientIntensity 0.2
            transparency 0
            shininess 0.5
        }
    }
    geometry IndexedFaceSet {
        ccw TRUE
        solid FALSE
        coord DEF co Coordinate {
            point [
                -0.4552 -0.0477 -1.2992, -0.4442 -0.0412 -1.2992, -0.4322 -0.0461 -1.2992, -0.4312 0.0662 -1.2992, -0.4442 0.0626 -1.2992, -0.4552 0.4921 -1.2992, -0.4442 0.0475 -1.2992, -0.4442 -0.0288 -1.2992, -0.4315 0.053 -1.2992, -0.4422 -0.0299 -1.2992, -0.4178 0.0547 -1.2992, -0.4067 0.0535 -1.2992, -0.3555 0.4921 -1.2992, -0.3729 0.0466 -1.2992, -0.3831 0.0564 -1.2992, -0.4065 -0.0477 -1.2992, -0.3993 -0.047 -1.2992, -0.3555 -0.0477 -1.2992, -0.3883 -0.0432 -1.2992, -0.3793 -0.0374 -1.2992, -0.3603 0.0072 -1.2992, -0.3619 0.0233 -1.2992, -0.3663 0.036 -1.2992, -0.3983 0.0504 -1.2992, -0.3904 0.0452 -1.2992, -0.3836 0.0377 -1.2992, -0.3754 0.0081 -1.2992, -0.3766 -0.0041 -1.2992, -0.3796 -0.0138 -1.2992, -0.4047 -0.0349 -1.2992, -0.4153 -0.036 -1.2992, -0.3965 -0.0318 -1.2992, -0.3896 -0.0272 -1.2992, -0.3843 -0.0216 -1.2992, -0.4302 -0.0344 -1.2992, -0.3708 -0.0285 -1.2992, -0.3648 -0.0178 -1.2992, -0.3614 -0.0058 -1.2992, -0.379 0.029 -1.2992, -0.376 0.0169 -1.2992, -0.3938 0.0625 -1.2992, -0.4063 0.0662 -1.2992, -0.4177 0.0671 -1.2992, -0.4132 -0.0484 -1.2992, -0.3555 -0.3215 -1.2992, -0.4163 -0.0484 -1.2992, -0.4552 -0.3215 -1.2992, -0.4208 -0.0477 -1.2992, 1.115 -0.0755 -1.2992, 1.1265 -0.0477 -1.2992, 1.355 -0.0477 -1.2992, 1.13 -0.0391 -1.2992, 1.1352 0.0 -1.2992, 1.13 0.0391 -1.2992, 1.115 0.0755 -1.2992, 1.355 0.4921 -1.2992, 1.091 0.1067 -1.2992, 1.0597 0.1307 -1.2992, 1.0233 0.1458 -1.2992, 0.9843 0.1509 -1.2992, 0.4921 0.4921 -1.2992, 0.9452 0.1458 -1.2992, 0.9088 0.1307 -1.2992, 0.8775 0.1067 -1.2992, 0.8535 0.0755 -1.2992, 0.4921 -0.0477 -1.2992, 0.8385 0.0391 -1.2992, 0.8333 0.0 -1.2992, 0.8775 -0.1067 -1.2992, 0.9088 -0.1307 -1.2992, 0.4921 -0.3215 -1.2992, 0.8385 -0.0391 -1.2992, 0.842 -0.0477 -1.2992, 0.8535 -0.0755 -1.2992, 1.0597 -0.1307 -1.2992, 1.091 -0.1067 -1.2992, 1.355 -0.3215 -1.2992, 0.9452 -0.1458 -1.2992, 0.9843 -0.1509 -1.2992, 1.0233 -0.1458 -1.2992, 0.1458 -0.0391 -1.2992, 0.1509 0.0 -1.2992, 0.1458 0.0391 -1.2992, 0.1307 0.0755 -1.2992, 0.1067 0.1067 -1.2992, 0.0755 0.1307 -1.2992, 0.0391 0.1458 -1.2992, -0.2219 0.4921 -1.2992, -0.0 0.1509 -1.2992, -0.0391 0.1458 -1.2992, -0.0755 0.1307 -1.2992, -0.2219 -0.0477 -1.2992, -0.1509 0.0 -1.2992, -0.1458 -0.0391 -1.2992, -0.1067 0.1067 -1.2992, -0.1307 0.0755 -1.2992, -0.1458 0.0391 -1.2992, -0.1422 -0.0477 -1.2992, -0.1307 -0.0755 -1.2992, -0.2219 -0.3215 -1.2992, -0.1067 -0.1067 -1.2992, -0.0755 -0.1307 -1.2992, -0.0391 -0.1458 -1.2992, 0.0 -0.1509 -1.2992, 0.0391 -0.1458 -1.2992, 0.0755 -0.1307 -1.2992, 0.1067 -0.1067 -1.2992, 0.1307 -0.0755 -1.2992, 0.1422 -0.0477 -1.2992, -0.8535 -0.0755 -1.2992, -0.842 -0.0477 -1.2992, -0.7914 -0.0477 -1.2992, -0.8385 -0.0391 -1.2992, -0.8333 0.0 -1.2992, -0.8385 0.0391 -1.2992, -0.7914 0.4921 -1.2992, -0.7495 -0.047 -1.2992, -0.8535 0.0755 -1.2992, -0.8775 0.1067 -1.2992, -0.9088 0.1307 -1.2992, -0.9452 0.1458 -1.2992, -0.9843 0.1509 -1.2992, -1.5748 0.4921 -1.2992, -1.0233 0.1458 -1.2992, -1.0597 0.1307 -1.2992, -1.091 0.1067 -1.2992, -1.115 0.0755 -1.2992, -1.5748 -0.0477 -1.2992, -1.13 0.0391 -1.2992, -1.1352 0.0 -1.2992, -1.13 -0.0391 -1.2992, -1.1265 -0.0477 -1.2992, -1.5748 -0.3215 -1.2992, -1.115 -0.0755 -1.2992, -1.091 -0.1067 -1.2992, -0.9843 -0.1509 -1.2992, -0.7914 -0.3215 -1.2992, -1.0233 -0.1458 -1.2992, -1.0597 -0.1307 -1.2992, -0.9452 -0.1458 -1.2992, -0.9088 -0.1307 -1.2992, -0.8775 -0.1067 -1.2992, -0.7216 -0.0154 -1.2992, -0.675 -0.0154 -1.2992, -0.733 -0.047 -1.2992, -0.6643 -0.047 -1.2992, -0.6436 -0.0477 -1.2992, -0.6478 -0.047 -1.2992, -0.6436 0.4921 -1.2992, -0.6904 0.0657 -1.2992, -0.7055 0.0657 -1.2992, -0.5487 0.0657 -1.2992, -0.5377 0.4921 -1.2992, -0.5377 -0.0477 -1.2992, -0.6339 -0.0161 -1.2992, -0.6274 -0.0262 -1.2992, -0.6181 -0.0351 -1.2992, -0.6064 -0.042 -1.2992, -0.5969 0.064 -1.2992, -0.6101 0.0594 -1.2992, -0.6223 0.0511 -1.2992, -0.5806 0.0657 -1.2992, -0.6224 0.051 -1.2992, -0.6304 0.0422 -1.2992, -0.6357 0.0325 -1.2992, -0.5934 -0.0458 -1.2992, -0.5794 -0.047 -1.2992, -0.5487 -0.047 -1.2992, -0.6387 0.0214 -1.2992, -0.6395 0.0108 -1.2992, -0.6379 -0.0043 -1.2992, -0.4813 0.0534 -1.2992, -0.4813 0.0162 -1.2992, -0.524 0.0534 -1.2992, -0.5212 0.0162 -1.2992, -0.4813 0.0038 -1.2992, -0.4813 -0.0347 -1.2992, -0.5212 0.0038 -1.2992, -0.5267 -0.0347 -1.2992, -0.5267 -0.047 -1.2992, -0.4662 -0.047 -1.2992, -0.4662 0.0657 -1.2992, -0.524 0.0657 -1.2992, -0.3507 -0.0347 -1.2992, -0.3081 -0.0347 -1.2992, -0.3081 0.0657 -1.2992, -0.2929 0.0657 -1.2992, -0.2929 -0.047 -1.2992, -0.3507 -0.047 -1.2992, 1.5748 0.4921 -1.2992, 1.5748 -0.0477 -1.2992, -0.5377 -0.3215 -1.2992, -0.6436 -0.3215 -1.2992, 1.5748 -0.3215 -1.2992, 1.5748 -0.4921 -1.2992, 1.355 -0.4921 -1.2992, 0.4921 -0.4921 -1.2992, -0.2219 -0.4921 -1.2992, -0.3555 -0.4921 -1.2992, -0.4552 -0.4921 -1.2992, -0.5377 -0.4921 -1.2992, -0.6436 -0.4921 -1.2992, -0.7914 -0.4921 -1.2992, -1.5748 -0.4921 -1.2992, 0.1181 0.4921 -1.063, 0.1181 0.689 -1.063, 0.8661 0.4921 -1.063, 0.8661 0.689 -1.063, 0.1181 -0.689 -1.063, 0.1181 -0.4921 -1.063, 0.8661 -0.689 -1.063, 0.8661 -0.4921 -1.063, -1.5748 -0.4921 -1.063, -1.1024 -0.4921 -1.063, -1.1024 -0.689 -1.063, -1.5945 0.689 -1.063, -1.1024 0.689 -1.063, -1.1024 0.4921 -1.063, -1.5748 0.4921 -1.063, -1.5945 -0.689 -1.063, -0.1181 0.689 -1.063, -0.1181 0.4921 -1.063, -0.8661 0.689 -1.063, -0.8661 0.4921 -1.063, -0.1181 -0.4921 -1.063, -0.1181 -0.689 -1.063, -0.8661 -0.4921 -1.063, -0.8661 -0.689 -1.063, 1.4764 0.689 0.0, 1.437 0.689 0.0, 1.4764 0.2953 0.0, 1.437 0.2953 0.0, 1.5596 -0.2953 0.0, 1.437 -0.2953 0.0, 1.5596 -0.689 0.0, 1.437 -0.689 0.0, -1.5596 -0.689 0.0, -1.437 -0.689 0.0, -1.5596 -0.2953 0.0, -1.437 -0.2953 0.0, 1.6732 0.2953 -0.1137, 1.6732 0.2953 -0.5906, 1.6732 0.689 -0.1137, 1.6732 0.689 -0.5906, -1.6732 0.689 -0.1969, -1.6732 0.689 -0.5906, -1.6732 0.2953 -0.1969, -1.6732 0.2953 -0.5906, 1.5748 0.4921 -1.063, 1.1024 0.4921 -1.063, 1.1024 0.689 -1.063, 1.5945 -0.689 -1.063, 1.1024 -0.689 -1.063, 1.1024 -0.4921 -1.063, 1.5748 -0.4921 -1.063, 1.5945 0.689 -1.063, 1.6732 -0.689 -0.1969, 1.6732 -0.689 -0.5906, 1.6732 -0.2953 -0.1969, 1.6732 -0.2953 -0.5906, -0.8661 -0.689 -0.9449, 1.437 -0.689 -0.0787, 1.1024 -0.689 -0.9449, 1.5945 -0.689 -0.5906, 0.8661 -0.689 -0.9449, -1.6732 -0.689 -0.5906, -1.5945 -0.689 -0.5906, -1.6732 -0.689 -0.1969, -1.437 -0.689 -0.0787, 0.1181 -0.689 -0.9449, -0.1181 -0.689 -0.9449, -1.1024 -0.689 -0.9449, -1.6732 -0.2953 -0.1969, -1.6732 -0.2953 -0.5906, 1.437 0.689 -0.0787, 0.8661 0.689 -0.9449, 0.1181 0.689 -0.9449, -1.5596 0.689 0.0, -1.437 0.689 0.0, -1.437 0.689 -0.0787, 1.1811 0.689 -0.4724, 1.5945 0.689 -0.5906, 1.1811 0.689 -0.0787, -1.1811 0.689 -0.4724, 1.1024 0.689 -0.9449, -0.1181 0.689 -0.9449, -0.8661 0.689 -0.9449, -1.5945 0.689 -0.5906, -1.1811 0.689 -0.0787, -1.1024 0.689 -0.9449, -1.5596 0.2953 0.0, -1.437 0.2953 0.0, -1.5945 0.2953 -0.5906, -1.5945 0.2953 -0.0787, -1.437 0.2953 -0.0787, -1.5945 -0.2953 -0.0787, -1.5945 -0.2953 -0.5906, -1.437 -0.2953 -0.0787, 1.5945 0.2953 -0.0787, 1.5945 0.2953 -0.5906, 1.437 0.2953 -0.0787, 1.5945 -0.2953 -0.5906, 1.5945 -0.2953 -0.0787, 1.437 -0.2953 -0.0787, -1.1811 0.4921 -0.0787, -1.1811 0.4921 -0.4724, 1.1811 0.4921 -0.0787, 1.1811 0.4921 -0.4724, 1.1811 0.4921 -0.4724
            ]
        }
        coordIndex [
            0,1,2,-1,3,4,5,-1,5,4,6,-1,5,6,7,-1,7,6,8,-1,7,8,9,-1,9,8,10,-1,9,10,11,-1,12,13,14,-1,15,16,17,-1,17,16,18,-1,17,18,19,-1,20,21,12,-1,12,21,22,-1,12,22,13,-1,11,23,9,-1,9,23,24,-1,9,24,25,-1,26,27,9,-1,9,27,28,-1,29,30,31,-1,31,30,32,-1,28,33,9,-1,9,33,32,-1,9,32,34,-1,34,32,30,-1,19,35,17,-1,17,35,36,-1,17,36,37,-1,25,38,9,-1,9,38,39,-1,9,39,26,-1,14,40,12,-1,12,40,41,-1,12,41,5,-1,5,41,42,-1,5,42,3,-1,43,44,45,-1,45,44,46,-1,45,46,47,-1,48,49,50,-1,50,49,51,-1,50,51,52,-1,53,54,55,-1,55,54,56,-1,55,56,57,-1,57,58,55,-1,55,58,59,-1,55,59,60,-1,60,59,61,-1,60,61,62,-1,62,63,60,-1,60,63,64,-1,60,64,65,-1,65,64,66,-1,65,66,67,-1,68,69,70,-1,67,71,65,-1,65,71,72,-1,65,72,70,-1,70,72,73,-1,70,73,68,-1,74,75,76,-1,69,77,70,-1,70,77,78,-1,70,78,76,-1,76,78,79,-1,76,79,74,-1,80,81,65,-1,65,81,82,-1,65,82,60,-1,60,82,83,-1,60,83,84,-1,84,85,60,-1,60,85,86,-1,60,86,87,-1,86,88,87,-1,87,88,89,-1,87,89,90,-1,91,92,93,-1,90,94,87,-1,87,94,95,-1,87,95,91,-1,91,95,96,-1,91,96,92,-1,97,98,99,-1,99,98,100,-1,99,100,101,-1,101,102,99,-1,99,102,103,-1,99,103,70,-1,70,103,104,-1,70,104,105,-1,105,106,70,-1,70,106,107,-1,70,107,65,-1,65,107,108,-1,65,108,80,-1,109,110,111,-1,111,110,112,-1,111,112,113,-1,113,114,111,-1,111,114,115,-1,111,115,116,-1,114,117,115,-1,115,117,118,-1,115,118,119,-1,119,120,115,-1,115,120,121,-1,115,121,122,-1,122,121,123,-1,122,123,124,-1,124,125,122,-1,122,125,126,-1,122,126,127,-1,127,126,128,-1,127,128,129,-1,129,130,127,-1,127,130,131,-1,127,131,132,-1,132,131,133,-1,132,133,134,-1,135,136,137,-1,137,136,132,-1,137,132,138,-1,138,132,134,-1,135,139,136,-1,136,139,140,-1,136,140,141,-1,142,143,144,-1,144,143,145,-1,116,144,111,-1,111,144,145,-1,111,145,146,-1,146,145,147,-1,146,147,148,-1,148,147,149,-1,148,149,115,-1,115,149,150,-1,115,150,116,-1,151,152,153,-1,154,155,146,-1,146,155,156,-1,146,156,157,-1,158,159,148,-1,148,159,160,-1,152,151,148,-1,148,151,161,-1,148,161,158,-1,160,162,148,-1,148,162,163,-1,148,163,164,-1,157,165,146,-1,146,165,166,-1,146,166,153,-1,153,166,167,-1,153,167,151,-1,164,168,148,-1,148,168,169,-1,148,169,146,-1,146,169,170,-1,146,170,154,-1,171,172,173,-1,173,172,174,-1,175,176,177,-1,177,176,178,-1,152,178,153,-1,153,178,179,-1,153,179,0,-1,0,179,180,-1,0,180,181,-1,174,177,173,-1,173,177,178,-1,173,178,182,-1,182,178,152,-1,182,152,181,-1,181,152,5,-1,181,5,0,-1,0,5,7,-1,0,7,1,-1,87,183,12,-1,12,183,17,-1,12,17,20,-1,20,17,37,-1,184,183,185,-1,185,183,87,-1,185,87,186,-1,186,87,91,-1,186,91,187,-1,187,91,17,-1,187,17,188,-1,188,17,183,-1,189,190,55,-1,55,190,50,-1,55,50,53,-1,53,50,52,-1,2,47,0,-1,0,47,46,-1,0,46,153,-1,153,46,191,-1,153,191,146,-1,146,191,192,-1,146,192,111,-1,111,192,136,-1,111,136,109,-1,109,136,141,-1,93,97,91,-1,91,97,99,-1,91,99,17,-1,17,99,44,-1,17,44,15,-1,15,44,43,-1,190,193,50,-1,50,193,76,-1,50,76,48,-1,48,76,75,-1,193,194,76,-1,76,194,195,-1,76,195,70,-1,70,195,196,-1,70,196,99,-1,99,196,197,-1,99,197,44,-1,44,197,198,-1,44,198,46,-1,46,198,199,-1,46,199,191,-1,191,199,200,-1,191,200,192,-1,192,200,201,-1,192,201,136,-1,136,201,202,-1,136,202,132,-1,132,202,203,-1,204,205,206,-1,206,205,207,-1,208,209,210,-1,210,209,211,-1,212,213,214,-1,215,216,217,-1,217,218,215,-1,215,218,212,-1,215,212,219,-1,219,212,214,-1,220,221,222,-1,222,221,223,-1,224,225,226,-1,226,225,227,-1,228,229,230,-1,230,229,231,-1,232,233,234,-1,234,233,235,-1,236,237,238,-1,238,237,239,-1,240,241,242,-1,242,241,243,-1,244,245,246,-1,246,245,247,-1,248,249,250,-1,251,252,253,-1,253,254,251,-1,251,254,248,-1,251,248,255,-1,255,248,250,-1,256,257,258,-1,258,257,259,-1,260,227,225,-1,256,234,261,-1,261,234,235,-1,252,251,262,-1,262,251,263,-1,262,263,264,-1,265,266,267,-1,267,266,268,-1,267,268,236,-1,236,268,237,-1,208,210,269,-1,269,210,264,-1,257,256,263,-1,263,256,261,-1,263,261,264,-1,264,261,268,-1,264,268,269,-1,269,268,270,-1,219,214,266,-1,266,214,271,-1,266,271,268,-1,268,271,260,-1,268,260,270,-1,270,260,225,-1,272,273,267,-1,267,273,265,-1,274,229,228,-1,207,205,275,-1,275,205,276,-1,277,278,244,-1,244,278,279,-1,244,279,245,-1,255,280,281,-1,281,280,282,-1,281,282,243,-1,243,282,274,-1,243,274,242,-1,242,274,228,-1,276,283,275,-1,275,283,280,-1,275,280,284,-1,284,280,255,-1,284,255,250,-1,220,222,285,-1,285,222,286,-1,245,279,287,-1,287,279,288,-1,287,288,283,-1,216,215,289,-1,289,215,287,-1,289,287,286,-1,286,287,283,-1,286,283,285,-1,285,283,276,-1,290,291,277,-1,277,291,278,-1,212,218,122,-1,122,127,212,-1,212,127,132,-1,212,132,203,-1,212,203,213,-1,213,203,202,-1,213,202,226,-1,202,201,226,-1,226,201,200,-1,226,200,224,-1,194,254,195,-1,195,254,253,-1,195,253,196,-1,196,253,211,-1,196,211,197,-1,197,211,209,-1,197,209,198,-1,198,209,224,-1,198,224,199,-1,199,224,200,-1,189,248,190,-1,190,248,254,-1,190,254,193,-1,193,254,194,-1,221,12,5,-1,248,189,55,-1,221,5,223,-1,12,221,87,-1,87,221,204,-1,87,204,60,-1,60,204,206,-1,60,206,55,-1,55,206,249,-1,55,249,248,-1,122,218,115,-1,115,218,217,-1,115,217,148,-1,148,217,223,-1,148,223,152,-1,152,223,5,-1,287,292,245,-1,245,292,247,-1,293,294,291,-1,247,292,246,-1,246,292,293,-1,246,293,290,-1,290,293,291,-1,295,296,273,-1,239,297,238,-1,238,297,295,-1,238,295,272,-1,272,295,273,-1,296,266,273,-1,273,266,265,-1,292,287,215,-1,219,266,296,-1,295,293,296,-1,296,293,292,-1,296,292,219,-1,219,292,215,-1,298,299,241,-1,231,300,230,-1,230,300,298,-1,230,298,240,-1,240,298,241,-1,299,281,241,-1,241,281,243,-1,263,301,257,-1,257,301,259,-1,302,303,233,-1,259,301,258,-1,258,301,302,-1,258,302,232,-1,232,302,233,-1,301,263,251,-1,255,281,299,-1,298,302,299,-1,299,302,301,-1,299,301,255,-1,255,301,251,-1,304,305,288,-1,288,305,283,-1,282,280,306,-1,306,280,307,-1,306,307,304,-1,304,307,305,-1,307,280,305,-1,305,280,283,-1,288,279,304,-1,304,279,294,-1,293,295,294,-1,294,295,297,-1,294,297,304,-1,304,297,306,-1,268,261,303,-1,302,298,303,-1,303,298,300,-1,274,282,300,-1,300,282,306,-1,300,306,303,-1,303,306,297,-1,303,297,268,-1,274,300,229,-1,229,300,231,-1,303,261,233,-1,233,261,235,-1,268,297,237,-1,237,297,239,-1,294,279,291,-1,291,279,278,-1,
        ]
    }
}
Shape{
    appearance Appearance {
        material  Material 	{
            diffuseColor 0.3843137254901961 0.30196078431372547 0.3215686274509804
            specularColor 0.47843137254901963 0.3764705882352941 0.403921568627451
            ambientIntensity 0.2
            transparency 0
            shininess 0.5
        }
    }
    geometry IndexedFaceSet {
        ccw TRUE
        solid FALSE
        coord DEF co Coordinate {
            point [
                0.1181 0.4921 -1.063, -0.1181 0.4921 -1.063, 0.1181 -0.4921 -1.063, -0.1181 -0.4921 -1.063, -0.1181 -0.689 -0.9449, -0.1181 -0.689 -1.063, -0.1181 0.689 -0.9449, -0.1181 0.689 -1.063, 0.1181 0.689 -0.9449, 0.1181 -0.689 -0.9449, 0.1181 0.689 -1.063, 0.1181 -0.689 -1.063, -1.1024 -0.689 -0.9449, -1.1024 -0.689 -1.063, -1.1024 -0.4921 -1.063, -1.1024 0.689 -0.9449, -1.1024 0.4921 -1.063, -1.1024 0.689 -1.063, -0.8661 0.689 -0.9449, -0.8661 -0.689 -0.9449, -0.8661 0.689 -1.063, -0.8661 0.4921 -1.063, -0.8661 -0.4921 -1.063, -0.8661 -0.689 -1.063, 1.1024 0.4921 -1.063, 0.8661 0.4921 -1.063, 1.1024 -0.4921 -1.063, 0.8661 -0.4921 -1.063, 0.8661 -0.689 -0.9449, 0.8661 -0.689 -1.063, 0.8661 0.689 -0.9449, 0.8661 0.689 -1.063, 1.1024 0.689 -0.9449, 1.1024 -0.689 -0.9449, 1.1024 0.689 -1.063, 1.1024 -0.689 -1.063, 1.1024 -0.689 -1.063
            ]
        }
        coordIndex [
            0,1,2,-1,2,1,3,-1,4,5,3,-1,4,3,6,-1,6,3,1,-1,6,1,7,-1,6,8,4,-1,4,8,9,-1,8,10,0,-1,8,0,9,-1,9,0,2,-1,9,2,11,-1,12,13,14,-1,12,14,15,-1,15,14,16,-1,15,16,17,-1,15,18,12,-1,12,18,19,-1,18,20,21,-1,18,21,19,-1,19,21,22,-1,19,22,23,-1,21,16,22,-1,22,16,14,-1,24,25,26,-1,26,25,27,-1,28,29,27,-1,28,27,30,-1,30,27,25,-1,30,25,31,-1,30,32,28,-1,28,32,33,-1,32,34,24,-1,32,24,33,-1,33,24,26,-1,33,26,35,-1,
        ]
    }
}
Shape{
    appearance Appearance {
        material  Material 	{
            diffuseColor 0.2 0.2 0.2
            specularColor 0.25098039215686274 0.25098039215686274 0.25098039215686274
            ambientIntensity 0.2
            transparency 0
            shininess 0.5
        }
    }
    geometry IndexedFaceSet {
        ccw TRUE
        solid FALSE
        coord DEF co Coordinate {
            point [
                1.6732 0.689 -0.1137, 1.4764 0.689 0.0, 1.6732 0.2953 -0.1137, 1.4764 0.2953 0.0, 1.6732 -0.2953 -0.1969, 1.5596 -0.2953 0.0, 1.6732 -0.689 -0.1969, 1.5596 -0.689 0.0, -1.6732 -0.689 -0.1969, -1.5596 -0.689 0.0, -1.6732 -0.2953 -0.1969, -1.5596 -0.2953 0.0, -1.6732 0.2953 -0.1969, -1.5596 0.2953 0.0, -1.6732 0.689 -0.1969, -1.5596 0.689 0.0, -1.5596 0.689 0.0
            ]
        }
        coordIndex [
            0,1,2,-1,2,1,3,-1,4,5,6,-1,6,5,7,-1,8,9,10,-1,10,9,11,-1,12,13,14,-1,14,13,15,-1,
        ]
    }
}
Shape{
    appearance Appearance {
        material  Material 	{
            diffuseColor 0.792156862745098 0.8196078431372549 0.9333333333333333
            specularColor 0.396078431372549 0.4117647058823529 0.4666666666666667
            ambientIntensity 0.2
            transparency 0
            shininess 0.5
        }
    }
    geometry IndexedFaceSet {
        ccw TRUE
        solid FALSE
        coord DEF co Coordinate {
            point [
                -0.3507 -0.0347 -1.2598, -0.3507 -0.047 -1.2598, -0.3507 -0.0347 -1.2992, -0.3507 -0.047 -1.2992, -0.2929 -0.047 -1.2598, -0.2929 -0.047 -1.2992, -0.2929 0.0657 -1.2598, -0.2929 0.0657 -1.2992, -0.3081 0.0657 -1.2598, -0.3081 0.0657 -1.2992, -0.3081 -0.0347 -1.2598, -0.3081 -0.0347 -1.2992, -0.4442 -0.0288 -1.2598, -0.4442 -0.0412 -1.2598, -0.4442 -0.0288 -1.2992, -0.4442 -0.0412 -1.2992, -0.4322 -0.0461 -1.2598, -0.4132 -0.0484 -1.2598, -0.4132 -0.0484 -1.2992, -0.4163 -0.0484 -1.2992, -0.4163 -0.0484 -1.2598, -0.4208 -0.0477 -1.2992, -0.4322 -0.0461 -1.2992, -0.4065 -0.0477 -1.2992, -0.3993 -0.047 -1.2598, -0.3993 -0.047 -1.2992, -0.3883 -0.0432 -1.2598, -0.3883 -0.0432 -1.2992, -0.3793 -0.0374 -1.2598, -0.3793 -0.0374 -1.2992, -0.3708 -0.0285 -1.2598, -0.3708 -0.0285 -1.2992, -0.3648 -0.0178 -1.2598, -0.3648 -0.0178 -1.2992, -0.3614 -0.0058 -1.2598, -0.3614 -0.0058 -1.2992, -0.3603 0.0072 -1.2598, -0.3603 0.0072 -1.2992, -0.4177 0.0671 -1.2598, -0.4177 0.0671 -1.2992, -0.4063 0.0662 -1.2992, -0.4063 0.0662 -1.2598, -0.3938 0.0625 -1.2992, -0.3938 0.0625 -1.2598, -0.3831 0.0564 -1.2992, -0.3831 0.0564 -1.2598, -0.3729 0.0466 -1.2992, -0.3729 0.0466 -1.2598, -0.3663 0.036 -1.2992, -0.3663 0.036 -1.2598, -0.3619 0.0233 -1.2992, -0.3619 0.0233 -1.2598, -0.4442 0.0626 -1.2598, -0.4442 0.0626 -1.2992, -0.4312 0.0662 -1.2992, -0.4312 0.0662 -1.2598, -0.4442 0.0475 -1.2598, -0.4442 0.0475 -1.2992, -0.4178 0.0547 -1.2598, -0.4178 0.0547 -1.2992, -0.4315 0.053 -1.2992, -0.4315 0.053 -1.2598, -0.3754 0.0081 -1.2598, -0.3754 0.0081 -1.2992, -0.376 0.0169 -1.2992, -0.376 0.0169 -1.2598, -0.379 0.029 -1.2992, -0.379 0.029 -1.2598, -0.3836 0.0377 -1.2992, -0.3836 0.0377 -1.2598, -0.3904 0.0452 -1.2992, -0.3904 0.0452 -1.2598, -0.3983 0.0504 -1.2992, -0.3983 0.0504 -1.2598, -0.4067 0.0535 -1.2992, -0.4067 0.0535 -1.2598, -0.4153 -0.036 -1.2598, -0.4153 -0.036 -1.2992, -0.4047 -0.0349 -1.2992, -0.4047 -0.0349 -1.2598, -0.3965 -0.0318 -1.2992, -0.3965 -0.0318 -1.2598, -0.3896 -0.0272 -1.2992, -0.3896 -0.0272 -1.2598, -0.3843 -0.0216 -1.2992, -0.3843 -0.0216 -1.2598, -0.3796 -0.0138 -1.2992, -0.3796 -0.0138 -1.2598, -0.3766 -0.0041 -1.2992, -0.3766 -0.0041 -1.2598, -0.4422 -0.0299 -1.2992, -0.4422 -0.0299 -1.2598, -0.4302 -0.0344 -1.2992, -0.4302 -0.0344 -1.2598, -0.5267 -0.0347 -1.2598, -0.5267 -0.047 -1.2598, -0.5267 -0.0347 -1.2992, -0.5267 -0.047 -1.2992, -0.4662 -0.047 -1.2598, -0.4662 -0.047 -1.2992, -0.4662 0.0657 -1.2598, -0.4662 0.0657 -1.2992, -0.524 0.0657 -1.2598, -0.524 0.0657 -1.2992, -0.524 0.0534 -1.2598, -0.524 0.0534 -1.2992, -0.4813 0.0534 -1.2598, -0.4813 0.0534 -1.2992, -0.4813 0.0162 -1.2598, -0.4813 0.0162 -1.2992, -0.5212 0.0162 -1.2598, -0.5212 0.0162 -1.2992, -0.5212 0.0038 -1.2598, -0.5212 0.0038 -1.2992, -0.4813 0.0038 -1.2598, -0.4813 0.0038 -1.2992, -0.4813 -0.0347 -1.2598, -0.4813 -0.0347 -1.2992, -0.5794 -0.047 -1.2598, -0.5487 -0.047 -1.2598, -0.5794 -0.047 -1.2992, -0.5487 -0.047 -1.2992, -0.5487 0.0657 -1.2598, -0.5487 0.0657 -1.2992, -0.5806 0.0657 -1.2598, -0.5806 0.0657 -1.2992, -0.6395 0.0108 -1.2598, -0.6395 0.0108 -1.2992, -0.6387 0.0214 -1.2992, -0.6387 0.0214 -1.2598, -0.6357 0.0325 -1.2992, -0.6357 0.0325 -1.2598, -0.6304 0.0422 -1.2992, -0.6304 0.0422 -1.2598, -0.6224 0.051 -1.2992, -0.6224 0.051 -1.2598, -0.6223 0.0511 -1.2992, -0.6223 0.0511 -1.2598, -0.6101 0.0594 -1.2992, -0.6101 0.0594 -1.2598, -0.5969 0.064 -1.2992, -0.5969 0.064 -1.2598, -0.5934 -0.0458 -1.2992, -0.5934 -0.0458 -1.2598, -0.6064 -0.042 -1.2992, -0.6064 -0.042 -1.2598, -0.6181 -0.0351 -1.2992, -0.6181 -0.0351 -1.2598, -0.6274 -0.0262 -1.2992, -0.6274 -0.0262 -1.2598, -0.6339 -0.0161 -1.2992, -0.6339 -0.0161 -1.2598, -0.6379 -0.0043 -1.2992, -0.6379 -0.0043 -1.2598, -0.5639 -0.0347 -1.2598, -0.5639 0.0534 -1.2598, -0.6169 0.0375 -1.2598, -0.6114 0.0434 -1.2598, -0.6032 0.0487 -1.2598, -0.5938 0.0519 -1.2598, -0.5805 0.0534 -1.2598, -0.5799 -0.0347 -1.2598, -0.5918 -0.0336 -1.2598, -0.6013 -0.0306 -1.2598, -0.609 -0.026 -1.2598, -0.6153 -0.0198 -1.2598, -0.62 -0.012 -1.2598, -0.6233 -0.0014 -1.2598, -0.6244 0.0104 -1.2598, -0.6234 0.0217 -1.2598, -0.6208 0.0306 -1.2598, -0.5805 0.0534 -1.2992, -0.5639 0.0534 -1.2992, -0.5938 0.0519 -1.2992, -0.6032 0.0487 -1.2992, -0.6114 0.0434 -1.2992, -0.6169 0.0375 -1.2992, -0.6208 0.0306 -1.2992, -0.6234 0.0217 -1.2992, -0.6244 0.0104 -1.2992, -0.6233 -0.0014 -1.2992, -0.62 -0.012 -1.2992, -0.6153 -0.0198 -1.2992, -0.609 -0.026 -1.2992, -0.6013 -0.0306 -1.2992, -0.5918 -0.0336 -1.2992, -0.5799 -0.0347 -1.2992, -0.5639 -0.0347 -1.2992, -0.5639 -0.0347 -1.2992
            ]
        }
        coordIndex [
            0,1,2,-1,2,1,3,-1,1,4,3,-1,3,4,5,-1,4,6,5,-1,5,6,7,-1,6,8,7,-1,7,8,9,-1,8,10,9,-1,9,10,11,-1,10,0,11,-1,11,0,2,-1,8,6,10,-1,10,6,4,-1,10,4,0,-1,0,4,1,-1,12,13,14,-1,14,13,15,-1,15,13,16,-1,17,18,19,-1,17,19,20,-1,20,19,21,-1,20,21,16,-1,16,21,22,-1,16,22,15,-1,18,17,23,-1,23,17,24,-1,23,24,25,-1,25,24,26,-1,25,26,27,-1,27,26,28,-1,27,28,29,-1,29,28,30,-1,29,30,31,-1,31,30,32,-1,31,32,33,-1,33,32,34,-1,33,34,35,-1,35,34,36,-1,35,36,37,-1,38,39,40,-1,38,40,41,-1,41,40,42,-1,41,42,43,-1,43,42,44,-1,43,44,45,-1,45,44,46,-1,45,46,47,-1,47,46,48,-1,47,48,49,-1,49,48,50,-1,49,50,51,-1,51,50,37,-1,51,37,36,-1,52,53,54,-1,52,54,55,-1,55,54,39,-1,55,39,38,-1,52,56,53,-1,53,56,57,-1,58,59,60,-1,58,60,61,-1,61,60,57,-1,61,57,56,-1,62,63,64,-1,62,64,65,-1,65,64,66,-1,65,66,67,-1,67,66,68,-1,67,68,69,-1,69,68,70,-1,69,70,71,-1,71,70,72,-1,71,72,73,-1,73,72,74,-1,73,74,75,-1,75,74,59,-1,75,59,58,-1,76,77,78,-1,76,78,79,-1,79,78,80,-1,79,80,81,-1,81,80,82,-1,81,82,83,-1,83,82,84,-1,83,84,85,-1,85,84,86,-1,85,86,87,-1,87,86,88,-1,87,88,89,-1,89,88,63,-1,89,63,62,-1,12,14,90,-1,12,90,91,-1,91,90,92,-1,91,92,93,-1,93,92,77,-1,93,77,76,-1,79,17,76,-1,76,17,20,-1,76,20,93,-1,93,20,16,-1,93,16,91,-1,91,16,13,-1,91,13,12,-1,56,52,61,-1,61,52,55,-1,61,55,58,-1,58,55,38,-1,58,38,75,-1,75,38,41,-1,75,41,73,-1,73,41,43,-1,73,43,71,-1,71,43,45,-1,71,45,69,-1,69,45,47,-1,69,47,67,-1,67,47,49,-1,67,49,65,-1,65,49,51,-1,65,51,62,-1,62,51,36,-1,62,36,89,-1,89,36,34,-1,89,34,87,-1,87,34,32,-1,87,32,85,-1,85,32,30,-1,85,30,83,-1,83,30,28,-1,83,28,81,-1,81,28,26,-1,81,26,79,-1,79,26,24,-1,79,24,17,-1,94,95,96,-1,96,95,97,-1,95,98,97,-1,97,98,99,-1,98,100,99,-1,99,100,101,-1,100,102,101,-1,101,102,103,-1,102,104,103,-1,103,104,105,-1,104,106,105,-1,105,106,107,-1,106,108,107,-1,107,108,109,-1,108,110,109,-1,109,110,111,-1,110,112,111,-1,111,112,113,-1,112,114,113,-1,113,114,115,-1,114,116,115,-1,115,116,117,-1,116,94,117,-1,117,94,96,-1,98,95,94,-1,94,116,98,-1,98,116,114,-1,98,114,100,-1,104,102,106,-1,106,102,100,-1,106,100,108,-1,108,100,114,-1,108,114,110,-1,110,114,112,-1,118,119,120,-1,120,119,121,-1,119,122,121,-1,121,122,123,-1,122,124,123,-1,123,124,125,-1,126,127,128,-1,126,128,129,-1,129,128,130,-1,129,130,131,-1,131,130,132,-1,131,132,133,-1,133,132,134,-1,133,134,135,-1,135,134,136,-1,135,136,137,-1,137,136,138,-1,137,138,139,-1,139,138,140,-1,139,140,141,-1,141,140,125,-1,141,125,124,-1,118,120,142,-1,118,142,143,-1,143,142,144,-1,143,144,145,-1,145,144,146,-1,145,146,147,-1,147,146,148,-1,147,148,149,-1,149,148,150,-1,149,150,151,-1,151,150,152,-1,151,152,153,-1,153,152,127,-1,153,127,126,-1,154,155,119,-1,156,135,157,-1,157,135,137,-1,157,137,158,-1,158,137,139,-1,158,139,159,-1,159,139,141,-1,159,141,160,-1,160,141,124,-1,160,124,155,-1,155,124,122,-1,155,122,119,-1,154,119,161,-1,161,119,118,-1,161,118,162,-1,162,118,143,-1,162,143,163,-1,163,143,145,-1,163,145,164,-1,164,145,147,-1,164,147,165,-1,165,147,149,-1,165,149,166,-1,166,149,151,-1,166,151,167,-1,167,151,153,-1,167,153,168,-1,168,153,126,-1,168,126,169,-1,169,126,129,-1,169,129,170,-1,170,129,131,-1,170,131,156,-1,156,131,133,-1,156,133,135,-1,160,155,171,-1,171,155,172,-1,160,171,173,-1,160,173,159,-1,159,173,174,-1,159,174,158,-1,158,174,175,-1,158,175,157,-1,157,175,176,-1,157,176,156,-1,156,176,177,-1,156,177,170,-1,170,177,178,-1,170,178,169,-1,169,178,179,-1,169,179,168,-1,168,179,180,-1,168,180,167,-1,167,180,181,-1,167,181,166,-1,166,181,182,-1,166,182,165,-1,165,182,183,-1,165,183,164,-1,164,183,184,-1,164,184,163,-1,163,184,185,-1,163,185,162,-1,162,185,186,-1,162,186,161,-1,154,161,187,-1,187,161,186,-1,155,154,172,-1,172,154,187,-1,
        ]
    }
}
Shape{
    appearance Appearance {
        material  Material 	{
            diffuseColor 0.2 0.2 0.2
            specularColor 0.25098039215686274 0.25098039215686274 0.25098039215686274
            ambientIntensity 0.2
            transparency 0
            shininess 0.5
        }
    }
    geometry IndexedFaceSet {
        ccw TRUE
        solid FALSE
        coord DEF co Coordinate {
            point [
                -0.5639 0.0534 -1.2992, -0.5639 -0.0347 -1.2992, -0.5805 0.0534 -1.2992, -0.5799 -0.0347 -1.2992, -0.5918 -0.0336 -1.2992, -0.6244 0.0104 -1.2992, -0.6234 0.0217 -1.2992, -0.6208 0.0306 -1.2992, -0.5938 0.0519 -1.2992, -0.6013 -0.0306 -1.2992, -0.609 -0.026 -1.2992, -0.6153 -0.0198 -1.2992, -0.62 -0.012 -1.2992, -0.6233 -0.0014 -1.2992, -0.6169 0.0375 -1.2992, -0.6114 0.0434 -1.2992, -0.6032 0.0487 -1.2992, -0.6032 0.0487 -1.2992
            ]
        }
        coordIndex [
            0,1,2,-1,2,1,3,-1,2,3,4,-1,5,6,2,-1,2,6,7,-1,2,7,8,-1,4,9,2,-1,2,9,10,-1,2,10,11,-1,11,12,2,-1,2,12,13,-1,2,13,5,-1,14,15,7,-1,7,15,16,-1,7,16,8,-1,
        ]
    }
}
Shape{
    appearance Appearance {
        material  Material 	{
            diffuseColor 0.792156862745098 0.8196078431372549 0.9333333333333333
            specularColor 0.396078431372549 0.4117647058823529 0.4666666666666667
            ambientIntensity 0.2
            transparency 0
            shininess 0.5
        }
    }
    geometry IndexedFaceSet {
        ccw TRUE
        solid FALSE
        coord DEF co Coordinate {
            point [
                -0.7055 0.0657 -1.2598, -0.7495 -0.047 -1.2598, -0.7055 0.0657 -1.2992, -0.7495 -0.047 -1.2992, -0.733 -0.047 -1.2598, -0.733 -0.047 -1.2992, -0.7216 -0.0154 -1.2598, -0.7216 -0.0154 -1.2992, -0.675 -0.0154 -1.2598, -0.675 -0.0154 -1.2992, -0.6643 -0.047 -1.2598, -0.6643 -0.047 -1.2992, -0.6478 -0.047 -1.2598, -0.6478 -0.047 -1.2992, -0.6904 0.0657 -1.2598, -0.6904 0.0657 -1.2992, -0.6996 0.0441 -1.2598, -0.7166 -0.003 -1.2598, -0.6986 0.048 -1.2598, -0.6978 0.052 -1.2598, -0.6788 -0.003 -1.2598, -0.6957 0.0441 -1.2598, -0.6975 0.052 -1.2598, -0.6968 0.048 -1.2598, -0.6788 -0.003 -1.2992, -0.7166 -0.003 -1.2992, -0.6957 0.0441 -1.2992, -0.6968 0.048 -1.2992, -0.6975 0.052 -1.2992, -0.6978 0.052 -1.2992, -0.6986 0.048 -1.2992, -0.6996 0.0441 -1.2992, -0.6996 0.0441 -1.2992
            ]
        }
        coordIndex [
            0,1,2,-1,2,1,3,-1,1,4,3,-1,3,4,5,-1,4,6,5,-1,5,6,7,-1,6,8,7,-1,7,8,9,-1,8,10,9,-1,9,10,11,-1,10,12,11,-1,11,12,13,-1,12,14,13,-1,13,14,15,-1,14,0,15,-1,15,0,2,-1,16,17,18,-1,18,17,19,-1,6,4,1,-1,17,20,8,-1,21,14,20,-1,20,14,12,-1,20,12,8,-1,8,12,10,-1,8,6,17,-1,17,6,1,-1,17,1,19,-1,19,1,0,-1,19,0,22,-1,22,0,14,-1,22,14,23,-1,23,14,21,-1,20,17,24,-1,24,17,25,-1,21,20,26,-1,26,20,24,-1,21,26,27,-1,21,27,23,-1,23,27,28,-1,23,28,22,-1,19,22,29,-1,29,22,28,-1,19,29,30,-1,19,30,18,-1,18,30,31,-1,18,31,16,-1,17,16,25,-1,25,16,31,-1,
        ]
    }
}
Shape{
    appearance Appearance {
        material  Material 	{
            diffuseColor 0.2 0.2 0.2
            specularColor 0.25098039215686274 0.25098039215686274 0.25098039215686274
            ambientIntensity 0.2
            transparency 0
            shininess 0.5
        }
    }
    geometry IndexedFaceSet {
        ccw TRUE
        solid FALSE
        coord DEF co Coordinate {
            point [
                -0.6788 -0.003 -1.2992, -0.7166 -0.003 -1.2992, -0.6957 0.0441 -1.2992, -0.6996 0.0441 -1.2992, -0.6968 0.048 -1.2992, -0.6986 0.048 -1.2992, -0.6975 0.052 -1.2992, -0.6978 0.052 -1.2992, 1.115 -0.0755 -1.2205, 1.091 -0.1067 -1.2992, 1.091 -0.1067 -1.2205, 1.0597 -0.1307 -1.2992, 1.0597 -0.1307 -1.2205, 1.0233 -0.1458 -1.2992, 1.0233 -0.1458 -1.2205, 0.9843 -0.1509 -1.2992, 0.9843 -0.1509 -1.2205, 0.9452 -0.1458 -1.2992, 0.9452 -0.1458 -1.2205, 0.9088 -0.1307 -1.2992, 0.9088 -0.1307 -1.2205, 0.8775 -0.1067 -1.2992, 0.8775 -0.1067 -1.2205, 0.8535 -0.0755 -1.2992, 0.8535 -0.0755 -1.2205, 0.842 -0.0477 -1.2992, 0.8385 -0.0391 -1.2205, 0.8385 -0.0391 -1.2992, 0.8333 0.0 -1.2992, 0.8333 -0.0 -1.2205, 0.8385 0.0391 -1.2992, 0.8385 0.0391 -1.2205, 0.8535 0.0755 -1.2992, 0.8535 0.0755 -1.2205, 0.8775 0.1067 -1.2992, 0.8775 0.1067 -1.2205, 0.9088 0.1307 -1.2992, 0.9088 0.1307 -1.2205, 0.9452 0.1458 -1.2992, 0.9452 0.1458 -1.2205, 0.9843 0.1509 -1.2992, 0.9843 0.1509 -1.2205, 1.0233 0.1458 -1.2992, 1.0233 0.1458 -1.2205, 1.0597 0.1307 -1.2992, 1.0597 0.1307 -1.2205, 1.091 0.1067 -1.2992, 1.091 0.1067 -1.2205, 1.115 0.0755 -1.2992, 1.115 0.0755 -1.2205, 1.13 0.0391 -1.2992, 1.13 0.0391 -1.2205, 1.1352 0.0 -1.2992, 1.1352 0.0 -1.2205, 1.13 -0.0391 -1.2992, 1.13 -0.0391 -1.2205, 1.1265 -0.0477 -1.2992, 1.115 -0.0755 -1.2992, 0.1307 -0.0755 -1.2205, 0.1067 -0.1067 -1.2992, 0.1067 -0.1067 -1.2205, 0.0755 -0.1307 -1.2992, 0.0755 -0.1307 -1.2205, 0.0391 -0.1458 -1.2992, 0.0391 -0.1458 -1.2205, 0.0 -0.1509 -1.2992, 0.0 -0.1509 -1.2205, -0.0391 -0.1458 -1.2992, -0.0391 -0.1458 -1.2205, -0.0755 -0.1307 -1.2992, -0.0755 -0.1307 -1.2205, -0.1067 -0.1067 -1.2992, -0.1067 -0.1067 -1.2205, -0.1307 -0.0755 -1.2992, -0.1307 -0.0755 -1.2205, -0.1422 -0.0477 -1.2992, -0.1458 -0.0391 -1.2205, -0.1458 -0.0391 -1.2992, -0.1509 0.0 -1.2992, -0.1509 -0.0 -1.2205, -0.1458 0.0391 -1.2992, -0.1458 0.0391 -1.2205, -0.1307 0.0755 -1.2992, -0.1307 0.0755 -1.2205, -0.1067 0.1067 -1.2992, -0.1067 0.1067 -1.2205, -0.0755 0.1307 -1.2992, -0.0755 0.1307 -1.2205, -0.0391 0.1458 -1.2992, -0.0391 0.1458 -1.2205, -0.0 0.1509 -1.2992, -0.0 0.1509 -1.2205, 0.0391 0.1458 -1.2992, 0.0391 0.1458 -1.2205, 0.0755 0.1307 -1.2992, 0.0755 0.1307 -1.2205, 0.1067 0.1067 -1.2992, 0.1067 0.1067 -1.2205, 0.1307 0.0755 -1.2992, 0.1307 0.0755 -1.2205, 0.1458 0.0391 -1.2992, 0.1458 0.0391 -1.2205, 0.1509 0.0 -1.2992, 0.1509 0.0 -1.2205, 0.1458 -0.0391 -1.2992, 0.1458 -0.0391 -1.2205, 0.1422 -0.0477 -1.2992, 0.1307 -0.0755 -1.2992, -0.8535 -0.0755 -1.2205, -0.8775 -0.1067 -1.2992, -0.8775 -0.1067 -1.2205, -0.9088 -0.1307 -1.2992, -0.9088 -0.1307 -1.2205, -0.9452 -0.1458 -1.2992, -0.9452 -0.1458 -1.2205, -0.9843 -0.1509 -1.2992, -0.9843 -0.1509 -1.2205, -1.0233 -0.1458 -1.2992, -1.0233 -0.1458 -1.2205, -1.0597 -0.1307 -1.2992, -1.0597 -0.1307 -1.2205, -1.091 -0.1067 -1.2992, -1.091 -0.1067 -1.2205, -1.115 -0.0755 -1.2992, -1.115 -0.0755 -1.2205, -1.1265 -0.0477 -1.2992, -1.13 -0.0391 -1.2205, -1.13 -0.0391 -1.2992, -1.1352 0.0 -1.2992, -1.1352 -0.0 -1.2205, -1.13 0.0391 -1.2992, -1.13 0.0391 -1.2205, -1.115 0.0755 -1.2992, -1.115 0.0755 -1.2205, -1.091 0.1067 -1.2992, -1.091 0.1067 -1.2205, -1.0597 0.1307 -1.2992, -1.0597 0.1307 -1.2205, -1.0233 0.1458 -1.2992, -1.0233 0.1458 -1.2205, -0.9843 0.1509 -1.2992, -0.9843 0.1509 -1.2205, -0.9452 0.1458 -1.2992, -0.9452 0.1458 -1.2205, -0.9088 0.1307 -1.2992, -0.9088 0.1307 -1.2205, -0.8775 0.1067 -1.2992, -0.8775 0.1067 -1.2205, -0.8535 0.0755 -1.2992, -0.8535 0.0755 -1.2205, -0.8385 0.0391 -1.2992, -0.8385 0.0391 -1.2205, -0.8333 0.0 -1.2992, -0.8333 0.0 -1.2205, -0.8385 -0.0391 -1.2992, -0.8385 -0.0391 -1.2205, -0.842 -0.0477 -1.2992, -0.8535 -0.0755 -1.2992, -0.8535 -0.0755 -1.2992
            ]
        }
        coordIndex [
            0,1,2,-1,2,1,3,-1,2,3,4,-1,4,3,5,-1,4,5,6,-1,6,5,7,-1,8,9,10,-1,10,9,11,-1,10,11,12,-1,12,11,13,-1,12,13,14,-1,14,13,15,-1,14,15,16,-1,16,15,17,-1,16,17,18,-1,18,17,19,-1,18,19,20,-1,20,19,21,-1,20,21,22,-1,22,21,23,-1,22,23,24,-1,24,23,25,-1,24,25,26,-1,25,27,26,-1,26,27,28,-1,26,28,29,-1,29,28,30,-1,29,30,31,-1,31,30,32,-1,31,32,33,-1,33,32,34,-1,33,34,35,-1,35,34,36,-1,35,36,37,-1,37,36,38,-1,37,38,39,-1,39,38,40,-1,39,40,41,-1,41,40,42,-1,41,42,43,-1,43,42,44,-1,43,44,45,-1,45,44,46,-1,45,46,47,-1,47,46,48,-1,47,48,49,-1,49,48,50,-1,49,50,51,-1,51,50,52,-1,51,52,53,-1,53,52,54,-1,53,54,55,-1,55,54,56,-1,55,56,8,-1,8,56,57,-1,8,57,9,-1,55,8,22,-1,26,29,53,-1,53,29,31,-1,53,31,33,-1,55,22,53,-1,53,22,24,-1,53,24,26,-1,33,35,53,-1,53,35,37,-1,53,37,39,-1,47,49,45,-1,45,49,51,-1,45,51,53,-1,39,41,53,-1,53,41,43,-1,53,43,45,-1,16,18,14,-1,14,18,12,-1,8,10,22,-1,22,10,12,-1,22,12,20,-1,20,12,18,-1,58,59,60,-1,60,59,61,-1,60,61,62,-1,62,61,63,-1,62,63,64,-1,64,63,65,-1,64,65,66,-1,66,65,67,-1,66,67,68,-1,68,67,69,-1,68,69,70,-1,70,69,71,-1,70,71,72,-1,72,71,73,-1,72,73,74,-1,74,73,75,-1,74,75,76,-1,75,77,76,-1,76,77,78,-1,76,78,79,-1,79,78,80,-1,79,80,81,-1,81,80,82,-1,81,82,83,-1,83,82,84,-1,83,84,85,-1,85,84,86,-1,85,86,87,-1,87,86,88,-1,87,88,89,-1,89,88,90,-1,89,90,91,-1,91,90,92,-1,91,92,93,-1,93,92,94,-1,93,94,95,-1,95,94,96,-1,95,96,97,-1,97,96,98,-1,97,98,99,-1,99,98,100,-1,99,100,101,-1,101,100,102,-1,101,102,103,-1,103,102,104,-1,103,104,105,-1,105,104,106,-1,105,106,58,-1,58,106,107,-1,58,107,59,-1,95,81,83,-1,97,70,95,-1,95,70,72,-1,95,72,74,-1,97,99,70,-1,70,99,101,-1,70,101,103,-1,70,60,62,-1,83,85,95,-1,95,85,87,-1,95,87,93,-1,93,87,89,-1,93,89,91,-1,103,105,70,-1,70,105,58,-1,70,58,60,-1,74,76,95,-1,95,76,79,-1,95,79,81,-1,62,64,70,-1,70,64,66,-1,70,66,68,-1,108,109,110,-1,110,109,111,-1,110,111,112,-1,112,111,113,-1,112,113,114,-1,114,113,115,-1,114,115,116,-1,116,115,117,-1,116,117,118,-1,118,117,119,-1,118,119,120,-1,120,119,121,-1,120,121,122,-1,122,121,123,-1,122,123,124,-1,124,123,125,-1,124,125,126,-1,125,127,126,-1,126,127,128,-1,126,128,129,-1,129,128,130,-1,129,130,131,-1,131,130,132,-1,131,132,133,-1,133,132,134,-1,133,134,135,-1,135,134,136,-1,135,136,137,-1,137,136,138,-1,137,138,139,-1,139,138,140,-1,139,140,141,-1,141,140,142,-1,141,142,143,-1,143,142,144,-1,143,144,145,-1,145,144,146,-1,145,146,147,-1,147,146,148,-1,147,148,149,-1,149,148,150,-1,149,150,151,-1,151,150,152,-1,151,152,153,-1,153,152,154,-1,153,154,155,-1,155,154,156,-1,155,156,108,-1,108,156,157,-1,108,157,109,-1,155,108,122,-1,126,129,153,-1,153,129,131,-1,153,131,133,-1,155,122,153,-1,153,122,124,-1,153,124,126,-1,133,135,153,-1,153,135,137,-1,153,137,139,-1,147,149,145,-1,145,149,151,-1,145,151,153,-1,139,141,153,-1,153,141,143,-1,153,143,145,-1,116,118,114,-1,114,118,112,-1,108,110,122,-1,122,110,112,-1,122,112,120,-1,120,112,118,-1,
        ]
    }
}
Shape{
    appearance Appearance {
        material  Material 	{
            diffuseColor 0.8 0.8 0.8
            specularColor 1.0 1.0 1.0
            ambientIntensity 0.2
            transparency 0
            shininess 0.5
        }
    }
    geometry IndexedFaceSet {
        ccw TRUE
        solid FALSE
        coord DEF co Coordinate {
            point [
                -0.8661 0.5709 -0.9449, -0.8661 0.5709 -1.4961, -0.8661 0.689 -0.9449, -0.8661 0.689 -1.4961, -1.1024 0.5709 -0.9449, -1.1024 0.689 -0.9449, -1.1024 0.5709 -1.4961, -1.1024 0.689 -1.4961, 0.1181 0.5709 -1.4961, -0.1181 0.5709 -1.4961, 0.1181 0.689 -1.4961, -0.1181 0.689 -1.4961, 0.1181 0.5709 -0.9449, 0.1181 0.689 -0.9449, -0.1181 0.5709 -0.9449, -0.1181 0.689 -0.9449, -0.8661 -0.5709 -1.4961, -0.8661 -0.5709 -0.9449, -0.8661 -0.689 -1.4961, -0.8661 -0.689 -0.9449, -1.1024 -0.5709 -1.4961, -1.1024 -0.689 -1.4961, -1.1024 -0.5709 -0.9449, -1.1024 -0.689 -0.9449, -0.1181 -0.5709 -0.9449, -0.1181 -0.5709 -1.4961, -0.1181 -0.689 -0.9449, -0.1181 -0.689 -1.4961, 0.1181 -0.5709 -0.9449, 0.1181 -0.689 -0.9449, 0.1181 -0.5709 -1.4961, 0.1181 -0.689 -1.4961, 0.1181 -0.689 -1.4961
            ]
        }
        coordIndex [
            0,1,2,-1,2,1,3,-1,4,0,5,-1,5,0,2,-1,6,4,7,-1,7,4,5,-1,1,6,3,-1,3,6,7,-1,4,6,0,-1,0,6,1,-1,7,5,3,-1,3,5,2,-1,8,9,10,-1,10,9,11,-1,12,8,13,-1,13,8,10,-1,14,12,15,-1,15,12,13,-1,9,14,11,-1,11,14,15,-1,12,14,8,-1,8,14,9,-1,15,13,11,-1,11,13,10,-1,16,17,18,-1,18,17,19,-1,20,16,21,-1,21,16,18,-1,22,20,23,-1,23,20,21,-1,17,22,19,-1,19,22,23,-1,20,22,16,-1,16,22,17,-1,23,21,19,-1,19,21,18,-1,24,25,26,-1,26,25,27,-1,28,24,29,-1,29,24,26,-1,30,28,31,-1,31,28,29,-1,25,30,27,-1,27,30,31,-1,28,30,24,-1,24,30,25,-1,31,29,27,-1,27,29,26,-1,
        ]
    }
}
Shape{
    appearance Appearance {
        material  Material 	{
            diffuseColor 0.2 0.2 0.2
            specularColor 0.25098039215686274 0.25098039215686274 0.25098039215686274
            ambientIntensity 0.2
            transparency 0
            shininess 0.5
        }
    }
    geometry IndexedFaceSet {
        ccw TRUE
        solid FALSE
        coord DEF co Coordinate {
            point [
                1.3386 0.3937 -1.378, 1.3386 0.1969 -1.378, 1.3386 0.3937 -1.2992, 1.3386 0.1969 -1.2992, 1.4764 0.3937 -1.378, 1.4764 0.3937 -1.2992, 1.4764 0.1969 -1.378, 1.4764 0.1969 -1.2992, 1.4764 -0.3937 -1.378, 1.4764 -0.1969 -1.378, 1.4764 -0.3937 -1.2992, 1.4764 -0.1969 -1.2992, 1.3386 -0.3937 -1.378, 1.3386 -0.3937 -1.2992, 1.3386 -0.1969 -1.378, 1.3386 -0.1969 -1.2992, -1.4764 0.3937 -1.378, -1.4764 0.1969 -1.378, -1.4764 0.3937 -1.2992, -1.4764 0.1969 -1.2992, -1.3386 0.3937 -1.378, -1.3386 0.3937 -1.2992, -1.3386 0.1969 -1.378, -1.3386 0.1969 -1.2992, -1.3386 -0.3937 -1.378, -1.3386 -0.1969 -1.378, -1.3386 -0.3937 -1.2992, -1.3386 -0.1969 -1.2992, -1.4764 -0.3937 -1.378, -1.4764 -0.3937 -1.2992, -1.4764 -0.1969 -1.378, -1.4764 -0.1969 -1.2992, -1.4764 -0.1969 -1.2992
            ]
        }
        coordIndex [
            0,1,2,-1,2,1,3,-1,4,0,5,-1,5,0,2,-1,6,4,7,-1,7,4,5,-1,1,6,3,-1,3,6,7,-1,4,6,0,-1,0,6,1,-1,7,5,3,-1,3,5,2,-1,8,9,10,-1,10,9,11,-1,12,8,13,-1,13,8,10,-1,14,12,15,-1,15,12,13,-1,9,14,11,-1,11,14,15,-1,12,14,8,-1,8,14,9,-1,15,13,11,-1,11,13,10,-1,16,17,18,-1,18,17,19,-1,20,16,21,-1,21,16,18,-1,22,20,23,-1,23,20,21,-1,17,22,19,-1,19,22,23,-1,20,22,16,-1,16,22,17,-1,23,21,19,-1,19,21,18,-1,24,25,26,-1,26,25,27,-1,28,24,29,-1,29,24,26,-1,30,28,31,-1,31,28,29,-1,25,30,27,-1,27,30,31,-1,28,30,24,-1,24,30,25,-1,31,29,27,-1,27,29,26,-1,
        ]
    }
}
Shape{
    appearance Appearance {
        material  Material 	{
            diffuseColor 0.8 0.8 0.8
            specularColor 1.0 1.0 1.0
            ambientIntensity 0.2
            transparency 0
            shininess 0.5
        }
    }
    geometry IndexedFaceSet {
        ccw TRUE
        solid FALSE
        coord DEF co Coordinate {
            point [
                1.1024 0.5709 -1.4961, 0.8661 0.5709 -1.4961, 1.1024 0.689 -1.4961, 0.8661 0.689 -1.4961, 1.1024 0.5709 -0.9449, 1.1024 0.689 -0.9449, 0.8661 0.5709 -0.9449, 0.8661 0.689 -0.9449, 0.8661 -0.5709 -0.9449, 0.8661 -0.5709 -1.4961, 0.8661 -0.689 -0.9449, 0.8661 -0.689 -1.4961, 1.1024 -0.5709 -0.9449, 1.1024 -0.689 -0.9449, 1.1024 -0.5709 -1.4961, 1.1024 -0.689 -1.4961, 0.1181 0.689 0.0, 1.437 0.689 0.0, 0.1181 0.689 -0.0787, 1.437 0.689 -0.0787, -1.437 0.2953 0.0, -1.437 0.689 0.0, -1.437 0.2953 -0.0787, -1.437 0.689 -0.0787, -1.5945 0.2953 0.0, -1.5945 0.2953 -0.0787, -1.5945 -0.2953 0.0, -1.5945 -0.2953 -0.0787, -1.437 -0.2953 0.0, -1.437 -0.2953 -0.0787, -1.437 -0.689 0.0, -1.437 -0.689 -0.0787, 1.437 -0.689 0.0, 1.437 -0.689 -0.0787, 1.437 -0.2953 0.0, 1.437 -0.2953 -0.0787, 1.5945 -0.2953 0.0, 1.5945 -0.2953 -0.0787, 1.5945 0.2953 0.0, 1.5945 0.2953 -0.0787, 1.437 0.2953 0.0, 1.437 0.2953 -0.0787, -0.1181 0.689 -0.0787, -0.1181 0.689 -0.0, -0.689 -0.315 0.0, -0.689 0.315 0.0, -0.0591 0.5867 0.0, -0.0835 0.6055 0.0, -0.1141 0.6584 0.0, -0.1023 0.6299 0.0, 0.689 0.315 0.0, 0.1141 0.6584 0.0, 0.1023 0.6299 0.0, 0.0835 0.6055 0.0, 0.0591 0.5867 0.0, 0.689 -0.315 0.0, 0.0306 0.5749 0.0, -0.0 0.5709 0.0, -0.0306 0.5749 0.0, 0.1141 0.6584 -0.0787, -0.689 0.315 -0.0787, -0.1141 0.6584 -0.0787, -0.1023 0.6299 -0.0787, -0.0835 0.6055 -0.0787, -0.0591 0.5867 -0.0787, -0.689 -0.315 -0.0787, 0.689 -0.315 -0.0787, 0.0591 0.5867 -0.0787, 0.0835 0.6055 -0.0787, 0.689 0.315 -0.0787, 0.1023 0.6299 -0.0787, -0.0306 0.5749 -0.0787, -0.0 0.5709 -0.0787, 0.0306 0.5749 -0.0787, 0.0306 0.5749 -0.0787
            ]
        }
        coordIndex [
            0,1,2,-1,2,1,3,-1,4,0,5,-1,5,0,2,-1,6,4,7,-1,7,4,5,-1,1,6,3,-1,3,6,7,-1,4,6,0,-1,0,6,1,-1,7,5,3,-1,3,5,2,-1,8,9,10,-1,10,9,11,-1,12,8,13,-1,13,8,10,-1,14,12,15,-1,15,12,13,-1,9,14,11,-1,11,14,15,-1,12,14,8,-1,8,14,9,-1,15,13,11,-1,11,13,10,-1,16,17,18,-1,18,17,19,-1,20,21,22,-1,22,21,23,-1,24,20,25,-1,25,20,22,-1,26,24,27,-1,27,24,25,-1,28,26,29,-1,29,26,27,-1,30,28,31,-1,31,28,29,-1,32,30,33,-1,33,30,31,-1,34,32,35,-1,35,32,33,-1,36,34,37,-1,37,34,35,-1,38,36,39,-1,39,36,37,-1,40,38,41,-1,41,38,39,-1,17,40,19,-1,19,40,41,-1,42,23,43,-1,43,23,21,-1,20,44,21,-1,21,44,45,-1,46,47,45,-1,34,36,38,-1,43,21,48,-1,48,21,45,-1,48,45,49,-1,49,45,47,-1,40,17,50,-1,50,17,16,-1,50,16,51,-1,51,52,50,-1,50,52,53,-1,50,53,54,-1,38,40,34,-1,34,40,50,-1,34,50,32,-1,32,50,55,-1,32,55,30,-1,30,55,44,-1,30,44,28,-1,28,44,20,-1,28,20,26,-1,26,20,24,-1,54,56,50,-1,50,56,57,-1,50,57,45,-1,45,57,58,-1,45,58,46,-1,59,18,19,-1,41,39,37,-1,29,27,25,-1,22,23,60,-1,60,23,42,-1,60,42,61,-1,61,62,60,-1,60,62,63,-1,60,63,64,-1,25,22,29,-1,29,22,60,-1,29,60,31,-1,31,60,65,-1,31,65,33,-1,33,65,66,-1,33,66,35,-1,67,68,69,-1,69,68,70,-1,70,59,69,-1,69,59,19,-1,69,19,66,-1,66,19,41,-1,66,41,35,-1,35,41,37,-1,64,71,60,-1,60,71,72,-1,60,72,69,-1,69,72,73,-1,69,73,67,-1,42,43,48,-1,42,48,61,-1,61,48,49,-1,61,49,62,-1,62,49,47,-1,62,47,63,-1,63,47,46,-1,63,46,64,-1,64,46,58,-1,64,58,71,-1,71,58,57,-1,71,57,72,-1,72,57,56,-1,72,56,73,-1,73,56,54,-1,73,54,67,-1,67,54,53,-1,67,53,68,-1,68,53,52,-1,68,52,70,-1,70,52,51,-1,70,51,59,-1,59,51,16,-1,59,16,18,-1,
        ]
    }
}
Shape{
    appearance Appearance {
        material  Material 	{
            diffuseColor 0.792156862745098 0.8196078431372549 0.9333333333333333
            specularColor 0.396078431372549 0.4117647058823529 0.4666666666666667
            ambientIntensity 0.2
            transparency 0
            shininess 0.5
        }
    }
    geometry IndexedFaceSet {
        ccw TRUE
        solid FALSE
        coord DEF co Coordinate {
            point [
                0.689 0.315 -0.0787, 0.689 -0.315 -0.0787, 0.689 0.315 0.0, 0.689 -0.315 0.0, -0.689 -0.315 -0.0787, -0.689 -0.315 0.0, -0.689 0.315 -0.0787, -0.689 0.315 0.0, -0.689 0.315 0.0
            ]
        }
        coordIndex [
            0,1,2,-1,2,1,3,-1,1,4,3,-1,3,4,5,-1,4,6,5,-1,5,6,7,-1,6,0,7,-1,7,0,2,-1,
        ]
    }
}
Shape{
    appearance Appearance {
        material  Material 	{
            diffuseColor 0.2 0.2 0.2
            specularColor 0.25098039215686274 0.25098039215686274 0.25098039215686274
            ambientIntensity 0.2
            transparency 0
            shininess 0.5
        }
    }
    geometry IndexedFaceSet {
        ccw TRUE
        solid FALSE
        coord DEF co Coordinate {
            point [
                -0.689 -0.315 -0.0394, -0.689 0.315 -0.0394, -0.689 -0.315 -0.0787, -0.689 0.315 -0.0787, 0.689 -0.315 -0.0394, 0.689 -0.315 -0.0787, 0.689 0.315 -0.0394, 0.689 0.315 -0.0787, 0.2953 0.2953 0.7874, 0.2953 -0.2953 0.7874, 0.2953 0.2953 -0.0394, 0.2953 -0.2953 -0.0394, -0.2953 0.2953 0.7874, -0.2953 0.2953 -0.0394, -0.2953 -0.2953 0.7874, -0.2953 -0.2953 -0.0394, -0.2953 -0.2953 -0.0394
            ]
        }
        coordIndex [
            0,1,2,-1,2,1,3,-1,4,0,5,-1,5,0,2,-1,6,4,7,-1,7,4,5,-1,1,6,3,-1,3,6,7,-1,4,6,0,-1,0,6,1,-1,7,5,3,-1,3,5,2,-1,8,9,10,-1,10,9,11,-1,12,8,13,-1,13,8,10,-1,14,12,15,-1,15,12,13,-1,9,14,11,-1,11,14,15,-1,12,14,8,-1,8,14,9,-1,15,13,11,-1,11,13,10,-1,
        ]
    }
}
Shape{
    appearance Appearance {
        material  Material 	{
            diffuseColor 0.8 0.8 0.8
            specularColor 1.0 1.0 1.0
            ambientIntensity 0.2
            transparency 0
            shininess 0.5
        }
    }
    geometry IndexedFaceSet {
        ccw TRUE
        solid FALSE
        coord DEF co Coordinate {
            point [
                -1.1024 -0.9843 -1.4961, -1.1024 -0.9843 -1.378, -1.1024 -0.689 -1.4961, -1.1024 -0.689 -1.378, -0.8661 -0.9843 -1.4961, -0.8661 -0.689 -1.4961, -0.8661 -0.9843 -1.378, -0.8661 -0.689 -1.378, 0.1181 -0.9843 -1.4961, -0.1181 -0.9843 -1.4961, 0.1181 -0.689 -1.4961, -0.1181 -0.689 -1.4961, 0.1181 -0.9843 -1.378, 0.1181 -0.689 -1.378, -0.1181 -0.9843 -1.378, -0.1181 -0.689 -1.378, 1.1024 -0.9843 -1.4961, 0.8661 -0.9843 -1.4961, 1.1024 -0.689 -1.4961, 0.8661 -0.689 -1.4961, 1.1024 -0.9843 -1.378, 1.1024 -0.689 -1.378, 0.8661 -0.9843 -1.378, 0.8661 -0.689 -1.378, -1.1024 0.9843 -1.378, -1.1024 0.9843 -1.4961, -1.1024 0.689 -1.378, -1.1024 0.689 -1.4961, -0.8661 0.9843 -1.378, -0.8661 0.689 -1.378, -0.8661 0.9843 -1.4961, -0.8661 0.689 -1.4961, -0.1181 0.9843 -1.378, -0.1181 0.9843 -1.4961, -0.1181 0.689 -1.378, -0.1181 0.689 -1.4961, 0.1181 0.9843 -1.378, 0.1181 0.689 -1.378, 0.1181 0.9843 -1.4961, 0.1181 0.689 -1.4961, 0.8661 0.9843 -1.378, 0.8661 0.9843 -1.4961, 0.8661 0.689 -1.378, 0.8661 0.689 -1.4961, 1.1024 0.9843 -1.378, 1.1024 0.689 -1.378, 1.1024 0.9843 -1.4961, 1.1024 0.689 -1.4961, 1.1024 0.689 -1.4961
            ]
        }
        coordIndex [
            0,1,2,-1,2,1,3,-1,4,0,5,-1,5,0,2,-1,6,4,7,-1,7,4,5,-1,1,6,3,-1,3,6,7,-1,4,6,0,-1,0,6,1,-1,7,5,3,-1,3,5,2,-1,8,9,10,-1,10,9,11,-1,12,8,13,-1,13,8,10,-1,14,12,15,-1,15,12,13,-1,9,14,11,-1,11,14,15,-1,12,14,8,-1,8,14,9,-1,15,13,11,-1,11,13,10,-1,16,17,18,-1,18,17,19,-1,20,16,21,-1,21,16,18,-1,22,20,23,-1,23,20,21,-1,17,22,19,-1,19,22,23,-1,20,22,16,-1,16,22,17,-1,23,21,19,-1,19,21,18,-1,24,25,26,-1,26,25,27,-1,28,24,29,-1,29,24,26,-1,30,28,31,-1,31,28,29,-1,25,30,27,-1,27,30,31,-1,28,30,24,-1,24,30,25,-1,31,29,27,-1,27,29,26,-1,32,33,34,-1,34,33,35,-1,36,32,37,-1,37,32,34,-1,38,36,39,-1,39,36,37,-1,33,38,35,-1,35,38,39,-1,36,38,32,-1,32,38,33,-1,39,37,35,-1,35,37,34,-1,40,41,42,-1,42,41,43,-1,44,40,45,-1,45,40,42,-1,46,44,47,-1,47,44,45,-1,41,46,43,-1,43,46,47,-1,44,46,40,-1,40,46,41,-1,47,45,43,-1,43,45,42,-1,
        ]
    }
}