%TF.GenerationSoftware,KiCad,Pcbnew,7.0.9-7.0.9~ubuntu22.04.1*%
%TF.CreationDate,2023-12-11T10:38:12-03:00*%
%TF.ProjectId,WM_RB-HAT,574d5f52-422d-4484-9154-2e6b69636164,rev?*%
%TF.SameCoordinates,Original*%
%TF.FileFunction,Legend,Bot*%
%TF.FilePolarity,Positive*%
%FSLAX46Y46*%
G04 Gerber Fmt 4.6, Leading zero omitted, Abs format (unit mm)*
G04 Created by KiCad (PCBNEW 7.0.9-7.0.9~ubuntu22.04.1) date 2023-12-11 10:38:12*
%MOMM*%
%LPD*%
G01*
G04 APERTURE LIST*
G04 Aperture macros list*
%AMRoundRect*
0 Rectangle with rounded corners*
0 $1 Rounding radius*
0 $2 $3 $4 $5 $6 $7 $8 $9 X,Y pos of 4 corners*
0 Add a 4 corners polygon primitive as box body*
4,1,4,$2,$3,$4,$5,$6,$7,$8,$9,$2,$3,0*
0 Add four circle primitives for the rounded corners*
1,1,$1+$1,$2,$3*
1,1,$1+$1,$4,$5*
1,1,$1+$1,$6,$7*
1,1,$1+$1,$8,$9*
0 Add four rect primitives between the rounded corners*
20,1,$1+$1,$2,$3,$4,$5,0*
20,1,$1+$1,$4,$5,$6,$7,0*
20,1,$1+$1,$6,$7,$8,$9,0*
20,1,$1+$1,$8,$9,$2,$3,0*%
%AMFreePoly0*
4,1,37,0.507011,0.223078,0.530929,0.218320,0.566975,0.203389,0.587251,0.189841,0.614841,0.162251,0.628389,0.141975,0.643320,0.105929,0.648078,0.082011,0.650000,0.062500,0.650000,-0.012500,0.630902,-0.071279,0.620711,-0.083211,0.508211,-0.195711,0.453143,-0.223769,0.437500,-0.225000,-0.487500,-0.225000,-0.507011,-0.223078,-0.530929,-0.218320,-0.566975,-0.203389,-0.587251,-0.189841,
-0.614841,-0.162251,-0.628389,-0.141975,-0.643320,-0.105929,-0.648078,-0.082011,-0.650000,-0.062500,-0.650000,0.062500,-0.648078,0.082011,-0.643320,0.105929,-0.628389,0.141975,-0.614841,0.162251,-0.587251,0.189841,-0.566975,0.203389,-0.530929,0.218320,-0.507011,0.223078,-0.487500,0.225000,0.487500,0.225000,0.507011,0.223078,0.507011,0.223078,$1*%
%AMFreePoly1*
4,1,37,0.496279,0.205902,0.508211,0.195711,0.620711,0.083211,0.648769,0.028143,0.650000,0.012500,0.650000,-0.062500,0.648078,-0.082011,0.643320,-0.105929,0.628389,-0.141975,0.614841,-0.162251,0.587251,-0.189841,0.566975,-0.203389,0.530929,-0.218320,0.507011,-0.223078,0.487500,-0.225000,-0.487500,-0.225000,-0.507011,-0.223078,-0.530929,-0.218320,-0.566975,-0.203389,-0.587251,-0.189841,
-0.614841,-0.162251,-0.628389,-0.141975,-0.643320,-0.105929,-0.648078,-0.082011,-0.650000,-0.062500,-0.650000,0.062500,-0.648078,0.082011,-0.643320,0.105929,-0.628389,0.141975,-0.614841,0.162251,-0.587251,0.189841,-0.566975,0.203389,-0.530929,0.218320,-0.507011,0.223078,-0.487500,0.225000,0.437500,0.225000,0.496279,0.205902,0.496279,0.205902,$1*%
%AMFreePoly2*
4,1,37,0.082011,0.648078,0.105929,0.643320,0.141975,0.628389,0.162251,0.614841,0.189841,0.587251,0.203389,0.566975,0.218320,0.530929,0.223078,0.507011,0.225000,0.487500,0.225000,-0.487500,0.223078,-0.507011,0.218320,-0.530929,0.203389,-0.566975,0.189841,-0.587251,0.162251,-0.614841,0.141975,-0.628389,0.105929,-0.643320,0.082011,-0.648078,0.062500,-0.650000,-0.012500,-0.650000,
-0.071279,-0.630902,-0.083211,-0.620711,-0.195711,-0.508211,-0.223769,-0.453143,-0.225000,-0.437500,-0.225000,0.487500,-0.223078,0.507011,-0.218320,0.530929,-0.203389,0.566975,-0.189841,0.587251,-0.162251,0.614841,-0.141975,0.628389,-0.105929,0.643320,-0.082011,0.648078,-0.062500,0.650000,0.062500,0.650000,0.082011,0.648078,0.082011,0.648078,$1*%
%AMFreePoly3*
4,1,37,0.082011,0.648078,0.105929,0.643320,0.141975,0.628389,0.162251,0.614841,0.189841,0.587251,0.203389,0.566975,0.218320,0.530929,0.223078,0.507011,0.225000,0.487500,0.225000,-0.437500,0.205902,-0.496279,0.195711,-0.508211,0.083211,-0.620711,0.028143,-0.648769,0.012500,-0.650000,-0.062500,-0.650000,-0.082011,-0.648078,-0.105929,-0.643320,-0.141975,-0.628389,-0.162251,-0.614841,
-0.189841,-0.587251,-0.203389,-0.566975,-0.218320,-0.530929,-0.223078,-0.507011,-0.225000,-0.487500,-0.225000,0.487500,-0.223078,0.507011,-0.218320,0.530929,-0.203389,0.566975,-0.189841,0.587251,-0.162251,0.614841,-0.141975,0.628389,-0.105929,0.643320,-0.082011,0.648078,-0.062500,0.650000,0.062500,0.650000,0.082011,0.648078,0.082011,0.648078,$1*%
%AMFreePoly4*
4,1,37,0.507011,0.223078,0.530929,0.218320,0.566975,0.203389,0.587251,0.189841,0.614841,0.162251,0.628389,0.141975,0.643320,0.105929,0.648078,0.082011,0.650000,0.062500,0.650000,-0.062500,0.648078,-0.082011,0.643320,-0.105929,0.628389,-0.141975,0.614841,-0.162251,0.587251,-0.189841,0.566975,-0.203389,0.530929,-0.218320,0.507011,-0.223078,0.487500,-0.225000,-0.487500,-0.225000,
-0.507011,-0.223078,-0.530929,-0.218320,-0.566975,-0.203389,-0.587251,-0.189841,-0.614841,-0.162251,-0.628389,-0.141975,-0.643320,-0.105929,-0.648078,-0.082011,-0.650000,-0.062500,-0.650000,0.012500,-0.630902,0.071279,-0.620711,0.083211,-0.508211,0.195711,-0.453143,0.223769,-0.437500,0.225000,0.487500,0.225000,0.507011,0.223078,0.507011,0.223078,$1*%
%AMFreePoly5*
4,1,37,0.507011,0.223078,0.530929,0.218320,0.566975,0.203389,0.587251,0.189841,0.614841,0.162251,0.628389,0.141975,0.643320,0.105929,0.648078,0.082011,0.650000,0.062500,0.650000,-0.062500,0.648078,-0.082011,0.643320,-0.105929,0.628389,-0.141975,0.614841,-0.162251,0.587251,-0.189841,0.566975,-0.203389,0.530929,-0.218320,0.507011,-0.223078,0.487500,-0.225000,-0.437500,-0.225000,
-0.496279,-0.205902,-0.508211,-0.195711,-0.620711,-0.083211,-0.648769,-0.028143,-0.650000,-0.012500,-0.650000,0.062500,-0.648078,0.082011,-0.643320,0.105929,-0.628389,0.141975,-0.614841,0.162251,-0.587251,0.189841,-0.566975,0.203389,-0.530929,0.218320,-0.507011,0.223078,-0.487500,0.225000,0.487500,0.225000,0.507011,0.223078,0.507011,0.223078,$1*%
%AMFreePoly6*
4,1,37,0.071279,0.630902,0.083211,0.620711,0.195711,0.508211,0.223769,0.453143,0.225000,0.437500,0.225000,-0.487500,0.223078,-0.507011,0.218320,-0.530929,0.203389,-0.566975,0.189841,-0.587251,0.162251,-0.614841,0.141975,-0.628389,0.105929,-0.643320,0.082011,-0.648078,0.062500,-0.650000,-0.062500,-0.650000,-0.082011,-0.648078,-0.105929,-0.643320,-0.141975,-0.628389,-0.162251,-0.614841,
-0.189841,-0.587251,-0.203389,-0.566975,-0.218320,-0.530929,-0.223078,-0.507011,-0.225000,-0.487500,-0.225000,0.487500,-0.223078,0.507011,-0.218320,0.530929,-0.203389,0.566975,-0.189841,0.587251,-0.162251,0.614841,-0.141975,0.628389,-0.105929,0.643320,-0.082011,0.648078,-0.062500,0.650000,0.012500,0.650000,0.071279,0.630902,0.071279,0.630902,$1*%
%AMFreePoly7*
4,1,37,0.082011,0.648078,0.105929,0.643320,0.141975,0.628389,0.162251,0.614841,0.189841,0.587251,0.203389,0.566975,0.218320,0.530929,0.223078,0.507011,0.225000,0.487500,0.225000,-0.487500,0.223078,-0.507011,0.218320,-0.530929,0.203389,-0.566975,0.189841,-0.587251,0.162251,-0.614841,0.141975,-0.628389,0.105929,-0.643320,0.082011,-0.648078,0.062500,-0.650000,-0.062500,-0.650000,
-0.082011,-0.648078,-0.105929,-0.643320,-0.141975,-0.628389,-0.162251,-0.614841,-0.189841,-0.587251,-0.203389,-0.566975,-0.218320,-0.530929,-0.223078,-0.507011,-0.225000,-0.487500,-0.225000,0.437500,-0.205902,0.496279,-0.195711,0.508211,-0.083211,0.620711,-0.028143,0.648769,-0.012500,0.650000,0.062500,0.650000,0.082011,0.648078,0.082011,0.648078,$1*%
G04 Aperture macros list end*
%ADD10C,1.400000*%
%ADD11C,0.150000*%
%ADD12C,0.600000*%
%ADD13C,0.120000*%
%ADD14C,1.000000*%
%ADD15C,1.400000*%
%ADD16C,1.700000*%
%ADD17O,1.600000X4.000000*%
%ADD18O,1.800000X2.300000*%
%ADD19O,3.000000X1.600000*%
%ADD20O,4.200000X2.100000*%
%ADD21RoundRect,0.100000X0.850000X-1.100000X0.850000X1.100000X-0.850000X1.100000X-0.850000X-1.100000X0*%
%ADD22O,1.800000X2.600000*%
%ADD23O,2.800000X1.400000*%
%ADD24C,1.800000*%
%ADD25C,3.400000*%
%ADD26RoundRect,0.100000X0.800000X0.900000X-0.800000X0.900000X-0.800000X-0.900000X0.800000X-0.900000X0*%
%ADD27RoundRect,0.100000X0.918559X0.530330X-0.530330X0.918559X-0.918559X-0.530330X0.530330X-0.918559X0*%
%ADD28RoundRect,0.475000X0.459279X0.265165X-0.265165X0.459279X-0.459279X-0.265165X0.265165X-0.459279X0*%
%ADD29RoundRect,0.475000X0.425000X0.375000X-0.425000X0.375000X-0.425000X-0.375000X0.425000X-0.375000X0*%
%ADD30RoundRect,0.100000X0.900000X-0.800000X0.900000X0.800000X-0.900000X0.800000X-0.900000X-0.800000X0*%
%ADD31RoundRect,0.100000X0.530330X-0.918559X0.918559X0.530330X-0.530330X0.918559X-0.918559X-0.530330X0*%
%ADD32RoundRect,0.475000X0.265165X-0.459279X0.459279X0.265165X-0.265165X0.459279X-0.459279X-0.265165X0*%
%ADD33RoundRect,0.475000X0.375000X-0.425000X0.375000X0.425000X-0.375000X0.425000X-0.375000X-0.425000X0*%
%ADD34RoundRect,0.100000X-0.900000X0.800000X-0.900000X-0.800000X0.900000X-0.800000X0.900000X0.800000X0*%
%ADD35RoundRect,0.100000X-0.530330X0.918559X-0.918559X-0.530330X0.530330X-0.918559X0.918559X0.530330X0*%
%ADD36RoundRect,0.475000X-0.265165X0.459279X-0.459279X-0.265165X0.265165X-0.459279X0.459279X0.265165X0*%
%ADD37RoundRect,0.475000X-0.375000X0.425000X-0.375000X-0.425000X0.375000X-0.425000X0.375000X0.425000X0*%
%ADD38RoundRect,0.100000X-0.800000X-0.900000X0.800000X-0.900000X0.800000X0.900000X-0.800000X0.900000X0*%
%ADD39RoundRect,0.100000X-0.918559X-0.530330X0.530330X-0.918559X0.918559X0.530330X-0.530330X0.918559X0*%
%ADD40RoundRect,0.475000X-0.459279X-0.265165X0.265165X-0.459279X0.459279X0.265165X-0.265165X0.459279X0*%
%ADD41RoundRect,0.475000X-0.425000X-0.375000X0.425000X-0.375000X0.425000X0.375000X-0.425000X0.375000X0*%
%ADD42RoundRect,0.100000X-0.850000X0.850000X-0.850000X-0.850000X0.850000X-0.850000X0.850000X0.850000X0*%
%ADD43RoundRect,0.525000X-0.425000X0.425000X-0.425000X-0.425000X0.425000X-0.425000X0.425000X0.425000X0*%
%ADD44RoundRect,0.350000X0.350000X0.450000X-0.350000X0.450000X-0.350000X-0.450000X0.350000X-0.450000X0*%
%ADD45RoundRect,0.350000X-0.350000X-0.450000X0.350000X-0.450000X0.350000X0.450000X-0.350000X0.450000X0*%
%ADD46RoundRect,0.350000X0.450000X-0.350000X0.450000X0.350000X-0.450000X0.350000X-0.450000X-0.350000X0*%
%ADD47RoundRect,0.350000X0.475000X-0.337500X0.475000X0.337500X-0.475000X0.337500X-0.475000X-0.337500X0*%
%ADD48RoundRect,0.350000X0.337500X0.475000X-0.337500X0.475000X-0.337500X-0.475000X0.337500X-0.475000X0*%
%ADD49FreePoly0,0.000000*%
%ADD50RoundRect,0.162500X-0.487500X-0.062500X0.487500X-0.062500X0.487500X0.062500X-0.487500X0.062500X0*%
%ADD51FreePoly1,0.000000*%
%ADD52FreePoly2,0.000000*%
%ADD53RoundRect,0.162500X-0.062500X-0.487500X0.062500X-0.487500X0.062500X0.487500X-0.062500X0.487500X0*%
%ADD54FreePoly3,0.000000*%
%ADD55FreePoly4,0.000000*%
%ADD56FreePoly5,0.000000*%
%ADD57FreePoly6,0.000000*%
%ADD58FreePoly7,0.000000*%
%ADD59C,1.100000*%
%ADD60RoundRect,0.100000X-1.650000X-1.650000X1.650000X-1.650000X1.650000X1.650000X-1.650000X1.650000X0*%
%ADD61RoundRect,0.350000X-0.337500X-0.475000X0.337500X-0.475000X0.337500X0.475000X-0.337500X0.475000X0*%
%ADD62RoundRect,0.350000X0.625000X-0.400000X0.625000X0.400000X-0.625000X0.400000X-0.625000X-0.400000X0*%
%ADD63RoundRect,0.350000X-0.650000X0.412500X-0.650000X-0.412500X0.650000X-0.412500X0.650000X0.412500X0*%
%ADD64RoundRect,0.350000X-0.450000X0.350000X-0.450000X-0.350000X0.450000X-0.350000X0.450000X0.350000X0*%
%ADD65RoundRect,0.350000X0.450000X-0.325000X0.450000X0.325000X-0.450000X0.325000X-0.450000X-0.325000X0*%
%ADD66RoundRect,0.350000X-0.412500X-0.650000X0.412500X-0.650000X0.412500X0.650000X-0.412500X0.650000X0*%
%ADD67RoundRect,0.350000X-0.475000X0.337500X-0.475000X-0.337500X0.475000X-0.337500X0.475000X0.337500X0*%
%ADD68RoundRect,0.350000X0.412500X0.650000X-0.412500X0.650000X-0.412500X-0.650000X0.412500X-0.650000X0*%
%ADD69RoundRect,0.350000X0.325000X0.450000X-0.325000X0.450000X-0.325000X-0.450000X0.325000X-0.450000X0*%
%ADD70RoundRect,0.350000X0.650000X-0.412500X0.650000X0.412500X-0.650000X0.412500X-0.650000X-0.412500X0*%
%ADD71RoundRect,0.100000X-1.000000X-0.325000X1.000000X-0.325000X1.000000X0.325000X-1.000000X0.325000X0*%
%ADD72RoundRect,0.100000X0.400000X-0.550000X0.400000X0.550000X-0.400000X0.550000X-0.400000X-0.550000X0*%
G04 APERTURE END LIST*
D10*
X142400000Y-87300000D02*
G75*
G03*
X142400000Y-87300000I-2400000J0D01*
G01*
D11*
X93545531Y-71291062D02*
X94200000Y-71291062D01*
X90100000Y-74500000D02*
X94700000Y-74500000D01*
D12*
X119300000Y-75750000D02*
G75*
G03*
X119300000Y-75750000I-300000J0D01*
G01*
D11*
X91900000Y-72500000D02*
X92900000Y-72500000D01*
X92254469Y-70000000D02*
X90854469Y-70000000D01*
X89600000Y-75100000D02*
X89400000Y-74900000D01*
X97400000Y-88400000D02*
X98600000Y-88400000D01*
X95000000Y-74500000D02*
X95500000Y-74000000D01*
D10*
X84379030Y-64399126D02*
G75*
G03*
X79652744Y-64700000I-2379030J99126D01*
G01*
D11*
X87300000Y-74900000D02*
X87100000Y-74700000D01*
X90100000Y-70000000D02*
X89700000Y-69600000D01*
X94700000Y-74500000D02*
X95000000Y-74500000D01*
D10*
X81500000Y-66600000D02*
G75*
G03*
X82973976Y-66442748I500000J2300000D01*
G01*
D11*
X89600000Y-78600000D02*
X89600000Y-75100000D01*
X79300000Y-79400000D02*
X79300000Y-77000000D01*
X91100000Y-70000000D02*
X90100000Y-70000000D01*
X90100000Y-74500000D02*
X89800000Y-74200000D01*
D10*
X142400000Y-64300000D02*
G75*
G03*
X142400000Y-64300000I-2400000J0D01*
G01*
D11*
X79300000Y-77000000D02*
X79700000Y-76600000D01*
X98600000Y-88400000D02*
X98900000Y-88100000D01*
D10*
X84400000Y-87300000D02*
G75*
G03*
X84400000Y-87300000I-2400000J0D01*
G01*
D11*
X89400000Y-74900000D02*
X87300000Y-74900000D01*
X93545531Y-71291062D02*
X92254469Y-70000000D01*
X106404819Y-68466667D02*
X105928628Y-68200000D01*
X106404819Y-68009524D02*
X105404819Y-68009524D01*
X105404819Y-68009524D02*
X105404819Y-68314286D01*
X105404819Y-68314286D02*
X105452438Y-68390476D01*
X105452438Y-68390476D02*
X105500057Y-68428571D01*
X105500057Y-68428571D02*
X105595295Y-68466667D01*
X105595295Y-68466667D02*
X105738152Y-68466667D01*
X105738152Y-68466667D02*
X105833390Y-68428571D01*
X105833390Y-68428571D02*
X105881009Y-68390476D01*
X105881009Y-68390476D02*
X105928628Y-68314286D01*
X105928628Y-68314286D02*
X105928628Y-68009524D01*
X105500057Y-68771428D02*
X105452438Y-68809524D01*
X105452438Y-68809524D02*
X105404819Y-68885714D01*
X105404819Y-68885714D02*
X105404819Y-69076190D01*
X105404819Y-69076190D02*
X105452438Y-69152381D01*
X105452438Y-69152381D02*
X105500057Y-69190476D01*
X105500057Y-69190476D02*
X105595295Y-69228571D01*
X105595295Y-69228571D02*
X105690533Y-69228571D01*
X105690533Y-69228571D02*
X105833390Y-69190476D01*
X105833390Y-69190476D02*
X106404819Y-68733333D01*
X106404819Y-68733333D02*
X106404819Y-69228571D01*
X134454819Y-68466667D02*
X133978628Y-68200000D01*
X134454819Y-68009524D02*
X133454819Y-68009524D01*
X133454819Y-68009524D02*
X133454819Y-68314286D01*
X133454819Y-68314286D02*
X133502438Y-68390476D01*
X133502438Y-68390476D02*
X133550057Y-68428571D01*
X133550057Y-68428571D02*
X133645295Y-68466667D01*
X133645295Y-68466667D02*
X133788152Y-68466667D01*
X133788152Y-68466667D02*
X133883390Y-68428571D01*
X133883390Y-68428571D02*
X133931009Y-68390476D01*
X133931009Y-68390476D02*
X133978628Y-68314286D01*
X133978628Y-68314286D02*
X133978628Y-68009524D01*
X133454819Y-68733333D02*
X133454819Y-69228571D01*
X133454819Y-69228571D02*
X133835771Y-68961905D01*
X133835771Y-68961905D02*
X133835771Y-69076190D01*
X133835771Y-69076190D02*
X133883390Y-69152381D01*
X133883390Y-69152381D02*
X133931009Y-69190476D01*
X133931009Y-69190476D02*
X134026247Y-69228571D01*
X134026247Y-69228571D02*
X134264342Y-69228571D01*
X134264342Y-69228571D02*
X134359580Y-69190476D01*
X134359580Y-69190476D02*
X134407200Y-69152381D01*
X134407200Y-69152381D02*
X134454819Y-69076190D01*
X134454819Y-69076190D02*
X134454819Y-68847619D01*
X134454819Y-68847619D02*
X134407200Y-68771428D01*
X134407200Y-68771428D02*
X134359580Y-68733333D01*
X122354819Y-68473035D02*
X121878628Y-68206368D01*
X122354819Y-68015892D02*
X121354819Y-68015892D01*
X121354819Y-68015892D02*
X121354819Y-68320654D01*
X121354819Y-68320654D02*
X121402438Y-68396844D01*
X121402438Y-68396844D02*
X121450057Y-68434939D01*
X121450057Y-68434939D02*
X121545295Y-68473035D01*
X121545295Y-68473035D02*
X121688152Y-68473035D01*
X121688152Y-68473035D02*
X121783390Y-68434939D01*
X121783390Y-68434939D02*
X121831009Y-68396844D01*
X121831009Y-68396844D02*
X121878628Y-68320654D01*
X121878628Y-68320654D02*
X121878628Y-68015892D01*
X121688152Y-69158749D02*
X122354819Y-69158749D01*
X121307200Y-68968273D02*
X122021485Y-68777796D01*
X122021485Y-68777796D02*
X122021485Y-69273035D01*
X128454819Y-71966667D02*
X127978628Y-71700000D01*
X128454819Y-71509524D02*
X127454819Y-71509524D01*
X127454819Y-71509524D02*
X127454819Y-71814286D01*
X127454819Y-71814286D02*
X127502438Y-71890476D01*
X127502438Y-71890476D02*
X127550057Y-71928571D01*
X127550057Y-71928571D02*
X127645295Y-71966667D01*
X127645295Y-71966667D02*
X127788152Y-71966667D01*
X127788152Y-71966667D02*
X127883390Y-71928571D01*
X127883390Y-71928571D02*
X127931009Y-71890476D01*
X127931009Y-71890476D02*
X127978628Y-71814286D01*
X127978628Y-71814286D02*
X127978628Y-71509524D01*
X127454819Y-72690476D02*
X127454819Y-72309524D01*
X127454819Y-72309524D02*
X127931009Y-72271428D01*
X127931009Y-72271428D02*
X127883390Y-72309524D01*
X127883390Y-72309524D02*
X127835771Y-72385714D01*
X127835771Y-72385714D02*
X127835771Y-72576190D01*
X127835771Y-72576190D02*
X127883390Y-72652381D01*
X127883390Y-72652381D02*
X127931009Y-72690476D01*
X127931009Y-72690476D02*
X128026247Y-72728571D01*
X128026247Y-72728571D02*
X128264342Y-72728571D01*
X128264342Y-72728571D02*
X128359580Y-72690476D01*
X128359580Y-72690476D02*
X128407200Y-72652381D01*
X128407200Y-72652381D02*
X128454819Y-72576190D01*
X128454819Y-72576190D02*
X128454819Y-72385714D01*
X128454819Y-72385714D02*
X128407200Y-72309524D01*
X128407200Y-72309524D02*
X128359580Y-72271428D01*
X84859580Y-92686667D02*
X84907200Y-92648571D01*
X84907200Y-92648571D02*
X84954819Y-92534286D01*
X84954819Y-92534286D02*
X84954819Y-92458095D01*
X84954819Y-92458095D02*
X84907200Y-92343809D01*
X84907200Y-92343809D02*
X84811961Y-92267619D01*
X84811961Y-92267619D02*
X84716723Y-92229524D01*
X84716723Y-92229524D02*
X84526247Y-92191428D01*
X84526247Y-92191428D02*
X84383390Y-92191428D01*
X84383390Y-92191428D02*
X84192914Y-92229524D01*
X84192914Y-92229524D02*
X84097676Y-92267619D01*
X84097676Y-92267619D02*
X84002438Y-92343809D01*
X84002438Y-92343809D02*
X83954819Y-92458095D01*
X83954819Y-92458095D02*
X83954819Y-92534286D01*
X83954819Y-92534286D02*
X84002438Y-92648571D01*
X84002438Y-92648571D02*
X84050057Y-92686667D01*
X84050057Y-92991428D02*
X84002438Y-93029524D01*
X84002438Y-93029524D02*
X83954819Y-93105714D01*
X83954819Y-93105714D02*
X83954819Y-93296190D01*
X83954819Y-93296190D02*
X84002438Y-93372381D01*
X84002438Y-93372381D02*
X84050057Y-93410476D01*
X84050057Y-93410476D02*
X84145295Y-93448571D01*
X84145295Y-93448571D02*
X84240533Y-93448571D01*
X84240533Y-93448571D02*
X84383390Y-93410476D01*
X84383390Y-93410476D02*
X84954819Y-92953333D01*
X84954819Y-92953333D02*
X84954819Y-93448571D01*
X118559580Y-68066667D02*
X118607200Y-68028571D01*
X118607200Y-68028571D02*
X118654819Y-67914286D01*
X118654819Y-67914286D02*
X118654819Y-67838095D01*
X118654819Y-67838095D02*
X118607200Y-67723809D01*
X118607200Y-67723809D02*
X118511961Y-67647619D01*
X118511961Y-67647619D02*
X118416723Y-67609524D01*
X118416723Y-67609524D02*
X118226247Y-67571428D01*
X118226247Y-67571428D02*
X118083390Y-67571428D01*
X118083390Y-67571428D02*
X117892914Y-67609524D01*
X117892914Y-67609524D02*
X117797676Y-67647619D01*
X117797676Y-67647619D02*
X117702438Y-67723809D01*
X117702438Y-67723809D02*
X117654819Y-67838095D01*
X117654819Y-67838095D02*
X117654819Y-67914286D01*
X117654819Y-67914286D02*
X117702438Y-68028571D01*
X117702438Y-68028571D02*
X117750057Y-68066667D01*
X117654819Y-68333333D02*
X117654819Y-68828571D01*
X117654819Y-68828571D02*
X118035771Y-68561905D01*
X118035771Y-68561905D02*
X118035771Y-68676190D01*
X118035771Y-68676190D02*
X118083390Y-68752381D01*
X118083390Y-68752381D02*
X118131009Y-68790476D01*
X118131009Y-68790476D02*
X118226247Y-68828571D01*
X118226247Y-68828571D02*
X118464342Y-68828571D01*
X118464342Y-68828571D02*
X118559580Y-68790476D01*
X118559580Y-68790476D02*
X118607200Y-68752381D01*
X118607200Y-68752381D02*
X118654819Y-68676190D01*
X118654819Y-68676190D02*
X118654819Y-68447619D01*
X118654819Y-68447619D02*
X118607200Y-68371428D01*
X118607200Y-68371428D02*
X118559580Y-68333333D01*
X118359580Y-74566667D02*
X118407200Y-74528571D01*
X118407200Y-74528571D02*
X118454819Y-74414286D01*
X118454819Y-74414286D02*
X118454819Y-74338095D01*
X118454819Y-74338095D02*
X118407200Y-74223809D01*
X118407200Y-74223809D02*
X118311961Y-74147619D01*
X118311961Y-74147619D02*
X118216723Y-74109524D01*
X118216723Y-74109524D02*
X118026247Y-74071428D01*
X118026247Y-74071428D02*
X117883390Y-74071428D01*
X117883390Y-74071428D02*
X117692914Y-74109524D01*
X117692914Y-74109524D02*
X117597676Y-74147619D01*
X117597676Y-74147619D02*
X117502438Y-74223809D01*
X117502438Y-74223809D02*
X117454819Y-74338095D01*
X117454819Y-74338095D02*
X117454819Y-74414286D01*
X117454819Y-74414286D02*
X117502438Y-74528571D01*
X117502438Y-74528571D02*
X117550057Y-74566667D01*
X117454819Y-75290476D02*
X117454819Y-74909524D01*
X117454819Y-74909524D02*
X117931009Y-74871428D01*
X117931009Y-74871428D02*
X117883390Y-74909524D01*
X117883390Y-74909524D02*
X117835771Y-74985714D01*
X117835771Y-74985714D02*
X117835771Y-75176190D01*
X117835771Y-75176190D02*
X117883390Y-75252381D01*
X117883390Y-75252381D02*
X117931009Y-75290476D01*
X117931009Y-75290476D02*
X118026247Y-75328571D01*
X118026247Y-75328571D02*
X118264342Y-75328571D01*
X118264342Y-75328571D02*
X118359580Y-75290476D01*
X118359580Y-75290476D02*
X118407200Y-75252381D01*
X118407200Y-75252381D02*
X118454819Y-75176190D01*
X118454819Y-75176190D02*
X118454819Y-74985714D01*
X118454819Y-74985714D02*
X118407200Y-74909524D01*
X118407200Y-74909524D02*
X118359580Y-74871428D01*
X131659580Y-78166667D02*
X131707200Y-78128571D01*
X131707200Y-78128571D02*
X131754819Y-78014286D01*
X131754819Y-78014286D02*
X131754819Y-77938095D01*
X131754819Y-77938095D02*
X131707200Y-77823809D01*
X131707200Y-77823809D02*
X131611961Y-77747619D01*
X131611961Y-77747619D02*
X131516723Y-77709524D01*
X131516723Y-77709524D02*
X131326247Y-77671428D01*
X131326247Y-77671428D02*
X131183390Y-77671428D01*
X131183390Y-77671428D02*
X130992914Y-77709524D01*
X130992914Y-77709524D02*
X130897676Y-77747619D01*
X130897676Y-77747619D02*
X130802438Y-77823809D01*
X130802438Y-77823809D02*
X130754819Y-77938095D01*
X130754819Y-77938095D02*
X130754819Y-78014286D01*
X130754819Y-78014286D02*
X130802438Y-78128571D01*
X130802438Y-78128571D02*
X130850057Y-78166667D01*
X130754819Y-78433333D02*
X130754819Y-78966667D01*
X130754819Y-78966667D02*
X131754819Y-78623809D01*
X126554819Y-74838095D02*
X127364342Y-74838095D01*
X127364342Y-74838095D02*
X127459580Y-74885714D01*
X127459580Y-74885714D02*
X127507200Y-74933333D01*
X127507200Y-74933333D02*
X127554819Y-75028571D01*
X127554819Y-75028571D02*
X127554819Y-75219047D01*
X127554819Y-75219047D02*
X127507200Y-75314285D01*
X127507200Y-75314285D02*
X127459580Y-75361904D01*
X127459580Y-75361904D02*
X127364342Y-75409523D01*
X127364342Y-75409523D02*
X126554819Y-75409523D01*
X127554819Y-76409523D02*
X127554819Y-75838095D01*
X127554819Y-76123809D02*
X126554819Y-76123809D01*
X126554819Y-76123809D02*
X126697676Y-76028571D01*
X126697676Y-76028571D02*
X126792914Y-75933333D01*
X126792914Y-75933333D02*
X126840533Y-75838095D01*
X131459580Y-72066667D02*
X131507200Y-72028571D01*
X131507200Y-72028571D02*
X131554819Y-71914286D01*
X131554819Y-71914286D02*
X131554819Y-71838095D01*
X131554819Y-71838095D02*
X131507200Y-71723809D01*
X131507200Y-71723809D02*
X131411961Y-71647619D01*
X131411961Y-71647619D02*
X131316723Y-71609524D01*
X131316723Y-71609524D02*
X131126247Y-71571428D01*
X131126247Y-71571428D02*
X130983390Y-71571428D01*
X130983390Y-71571428D02*
X130792914Y-71609524D01*
X130792914Y-71609524D02*
X130697676Y-71647619D01*
X130697676Y-71647619D02*
X130602438Y-71723809D01*
X130602438Y-71723809D02*
X130554819Y-71838095D01*
X130554819Y-71838095D02*
X130554819Y-71914286D01*
X130554819Y-71914286D02*
X130602438Y-72028571D01*
X130602438Y-72028571D02*
X130650057Y-72066667D01*
X130983390Y-72523809D02*
X130935771Y-72447619D01*
X130935771Y-72447619D02*
X130888152Y-72409524D01*
X130888152Y-72409524D02*
X130792914Y-72371428D01*
X130792914Y-72371428D02*
X130745295Y-72371428D01*
X130745295Y-72371428D02*
X130650057Y-72409524D01*
X130650057Y-72409524D02*
X130602438Y-72447619D01*
X130602438Y-72447619D02*
X130554819Y-72523809D01*
X130554819Y-72523809D02*
X130554819Y-72676190D01*
X130554819Y-72676190D02*
X130602438Y-72752381D01*
X130602438Y-72752381D02*
X130650057Y-72790476D01*
X130650057Y-72790476D02*
X130745295Y-72828571D01*
X130745295Y-72828571D02*
X130792914Y-72828571D01*
X130792914Y-72828571D02*
X130888152Y-72790476D01*
X130888152Y-72790476D02*
X130935771Y-72752381D01*
X130935771Y-72752381D02*
X130983390Y-72676190D01*
X130983390Y-72676190D02*
X130983390Y-72523809D01*
X130983390Y-72523809D02*
X131031009Y-72447619D01*
X131031009Y-72447619D02*
X131078628Y-72409524D01*
X131078628Y-72409524D02*
X131173866Y-72371428D01*
X131173866Y-72371428D02*
X131364342Y-72371428D01*
X131364342Y-72371428D02*
X131459580Y-72409524D01*
X131459580Y-72409524D02*
X131507200Y-72447619D01*
X131507200Y-72447619D02*
X131554819Y-72523809D01*
X131554819Y-72523809D02*
X131554819Y-72676190D01*
X131554819Y-72676190D02*
X131507200Y-72752381D01*
X131507200Y-72752381D02*
X131459580Y-72790476D01*
X131459580Y-72790476D02*
X131364342Y-72828571D01*
X131364342Y-72828571D02*
X131173866Y-72828571D01*
X131173866Y-72828571D02*
X131078628Y-72790476D01*
X131078628Y-72790476D02*
X131031009Y-72752381D01*
X131031009Y-72752381D02*
X130983390Y-72676190D01*
X94059580Y-72585714D02*
X94107200Y-72547618D01*
X94107200Y-72547618D02*
X94154819Y-72433333D01*
X94154819Y-72433333D02*
X94154819Y-72357142D01*
X94154819Y-72357142D02*
X94107200Y-72242856D01*
X94107200Y-72242856D02*
X94011961Y-72166666D01*
X94011961Y-72166666D02*
X93916723Y-72128571D01*
X93916723Y-72128571D02*
X93726247Y-72090475D01*
X93726247Y-72090475D02*
X93583390Y-72090475D01*
X93583390Y-72090475D02*
X93392914Y-72128571D01*
X93392914Y-72128571D02*
X93297676Y-72166666D01*
X93297676Y-72166666D02*
X93202438Y-72242856D01*
X93202438Y-72242856D02*
X93154819Y-72357142D01*
X93154819Y-72357142D02*
X93154819Y-72433333D01*
X93154819Y-72433333D02*
X93202438Y-72547618D01*
X93202438Y-72547618D02*
X93250057Y-72585714D01*
X94154819Y-73347618D02*
X94154819Y-72890475D01*
X94154819Y-73119047D02*
X93154819Y-73119047D01*
X93154819Y-73119047D02*
X93297676Y-73042856D01*
X93297676Y-73042856D02*
X93392914Y-72966666D01*
X93392914Y-72966666D02*
X93440533Y-72890475D01*
X93250057Y-73652380D02*
X93202438Y-73690476D01*
X93202438Y-73690476D02*
X93154819Y-73766666D01*
X93154819Y-73766666D02*
X93154819Y-73957142D01*
X93154819Y-73957142D02*
X93202438Y-74033333D01*
X93202438Y-74033333D02*
X93250057Y-74071428D01*
X93250057Y-74071428D02*
X93345295Y-74109523D01*
X93345295Y-74109523D02*
X93440533Y-74109523D01*
X93440533Y-74109523D02*
X93583390Y-74071428D01*
X93583390Y-74071428D02*
X94154819Y-73614285D01*
X94154819Y-73614285D02*
X94154819Y-74109523D01*
X82899580Y-80065714D02*
X82947200Y-80027618D01*
X82947200Y-80027618D02*
X82994819Y-79913333D01*
X82994819Y-79913333D02*
X82994819Y-79837142D01*
X82994819Y-79837142D02*
X82947200Y-79722856D01*
X82947200Y-79722856D02*
X82851961Y-79646666D01*
X82851961Y-79646666D02*
X82756723Y-79608571D01*
X82756723Y-79608571D02*
X82566247Y-79570475D01*
X82566247Y-79570475D02*
X82423390Y-79570475D01*
X82423390Y-79570475D02*
X82232914Y-79608571D01*
X82232914Y-79608571D02*
X82137676Y-79646666D01*
X82137676Y-79646666D02*
X82042438Y-79722856D01*
X82042438Y-79722856D02*
X81994819Y-79837142D01*
X81994819Y-79837142D02*
X81994819Y-79913333D01*
X81994819Y-79913333D02*
X82042438Y-80027618D01*
X82042438Y-80027618D02*
X82090057Y-80065714D01*
X81994819Y-80332380D02*
X81994819Y-80827618D01*
X81994819Y-80827618D02*
X82375771Y-80560952D01*
X82375771Y-80560952D02*
X82375771Y-80675237D01*
X82375771Y-80675237D02*
X82423390Y-80751428D01*
X82423390Y-80751428D02*
X82471009Y-80789523D01*
X82471009Y-80789523D02*
X82566247Y-80827618D01*
X82566247Y-80827618D02*
X82804342Y-80827618D01*
X82804342Y-80827618D02*
X82899580Y-80789523D01*
X82899580Y-80789523D02*
X82947200Y-80751428D01*
X82947200Y-80751428D02*
X82994819Y-80675237D01*
X82994819Y-80675237D02*
X82994819Y-80446666D01*
X82994819Y-80446666D02*
X82947200Y-80370475D01*
X82947200Y-80370475D02*
X82899580Y-80332380D01*
X82090057Y-81132380D02*
X82042438Y-81170476D01*
X82042438Y-81170476D02*
X81994819Y-81246666D01*
X81994819Y-81246666D02*
X81994819Y-81437142D01*
X81994819Y-81437142D02*
X82042438Y-81513333D01*
X82042438Y-81513333D02*
X82090057Y-81551428D01*
X82090057Y-81551428D02*
X82185295Y-81589523D01*
X82185295Y-81589523D02*
X82280533Y-81589523D01*
X82280533Y-81589523D02*
X82423390Y-81551428D01*
X82423390Y-81551428D02*
X82994819Y-81094285D01*
X82994819Y-81094285D02*
X82994819Y-81589523D01*
X80614819Y-66065714D02*
X80138628Y-65799047D01*
X80614819Y-65608571D02*
X79614819Y-65608571D01*
X79614819Y-65608571D02*
X79614819Y-65913333D01*
X79614819Y-65913333D02*
X79662438Y-65989523D01*
X79662438Y-65989523D02*
X79710057Y-66027618D01*
X79710057Y-66027618D02*
X79805295Y-66065714D01*
X79805295Y-66065714D02*
X79948152Y-66065714D01*
X79948152Y-66065714D02*
X80043390Y-66027618D01*
X80043390Y-66027618D02*
X80091009Y-65989523D01*
X80091009Y-65989523D02*
X80138628Y-65913333D01*
X80138628Y-65913333D02*
X80138628Y-65608571D01*
X80614819Y-66827618D02*
X80614819Y-66370475D01*
X80614819Y-66599047D02*
X79614819Y-66599047D01*
X79614819Y-66599047D02*
X79757676Y-66522856D01*
X79757676Y-66522856D02*
X79852914Y-66446666D01*
X79852914Y-66446666D02*
X79900533Y-66370475D01*
X80614819Y-67589523D02*
X80614819Y-67132380D01*
X80614819Y-67360952D02*
X79614819Y-67360952D01*
X79614819Y-67360952D02*
X79757676Y-67284761D01*
X79757676Y-67284761D02*
X79852914Y-67208571D01*
X79852914Y-67208571D02*
X79900533Y-67132380D01*
X124959580Y-80285714D02*
X125007200Y-80247618D01*
X125007200Y-80247618D02*
X125054819Y-80133333D01*
X125054819Y-80133333D02*
X125054819Y-80057142D01*
X125054819Y-80057142D02*
X125007200Y-79942856D01*
X125007200Y-79942856D02*
X124911961Y-79866666D01*
X124911961Y-79866666D02*
X124816723Y-79828571D01*
X124816723Y-79828571D02*
X124626247Y-79790475D01*
X124626247Y-79790475D02*
X124483390Y-79790475D01*
X124483390Y-79790475D02*
X124292914Y-79828571D01*
X124292914Y-79828571D02*
X124197676Y-79866666D01*
X124197676Y-79866666D02*
X124102438Y-79942856D01*
X124102438Y-79942856D02*
X124054819Y-80057142D01*
X124054819Y-80057142D02*
X124054819Y-80133333D01*
X124054819Y-80133333D02*
X124102438Y-80247618D01*
X124102438Y-80247618D02*
X124150057Y-80285714D01*
X125054819Y-81047618D02*
X125054819Y-80590475D01*
X125054819Y-80819047D02*
X124054819Y-80819047D01*
X124054819Y-80819047D02*
X124197676Y-80742856D01*
X124197676Y-80742856D02*
X124292914Y-80666666D01*
X124292914Y-80666666D02*
X124340533Y-80590475D01*
X124054819Y-81314285D02*
X124054819Y-81809523D01*
X124054819Y-81809523D02*
X124435771Y-81542857D01*
X124435771Y-81542857D02*
X124435771Y-81657142D01*
X124435771Y-81657142D02*
X124483390Y-81733333D01*
X124483390Y-81733333D02*
X124531009Y-81771428D01*
X124531009Y-81771428D02*
X124626247Y-81809523D01*
X124626247Y-81809523D02*
X124864342Y-81809523D01*
X124864342Y-81809523D02*
X124959580Y-81771428D01*
X124959580Y-81771428D02*
X125007200Y-81733333D01*
X125007200Y-81733333D02*
X125054819Y-81657142D01*
X125054819Y-81657142D02*
X125054819Y-81428571D01*
X125054819Y-81428571D02*
X125007200Y-81352380D01*
X125007200Y-81352380D02*
X124959580Y-81314285D01*
X92859580Y-76385714D02*
X92907200Y-76347618D01*
X92907200Y-76347618D02*
X92954819Y-76233333D01*
X92954819Y-76233333D02*
X92954819Y-76157142D01*
X92954819Y-76157142D02*
X92907200Y-76042856D01*
X92907200Y-76042856D02*
X92811961Y-75966666D01*
X92811961Y-75966666D02*
X92716723Y-75928571D01*
X92716723Y-75928571D02*
X92526247Y-75890475D01*
X92526247Y-75890475D02*
X92383390Y-75890475D01*
X92383390Y-75890475D02*
X92192914Y-75928571D01*
X92192914Y-75928571D02*
X92097676Y-75966666D01*
X92097676Y-75966666D02*
X92002438Y-76042856D01*
X92002438Y-76042856D02*
X91954819Y-76157142D01*
X91954819Y-76157142D02*
X91954819Y-76233333D01*
X91954819Y-76233333D02*
X92002438Y-76347618D01*
X92002438Y-76347618D02*
X92050057Y-76385714D01*
X91954819Y-76652380D02*
X91954819Y-77147618D01*
X91954819Y-77147618D02*
X92335771Y-76880952D01*
X92335771Y-76880952D02*
X92335771Y-76995237D01*
X92335771Y-76995237D02*
X92383390Y-77071428D01*
X92383390Y-77071428D02*
X92431009Y-77109523D01*
X92431009Y-77109523D02*
X92526247Y-77147618D01*
X92526247Y-77147618D02*
X92764342Y-77147618D01*
X92764342Y-77147618D02*
X92859580Y-77109523D01*
X92859580Y-77109523D02*
X92907200Y-77071428D01*
X92907200Y-77071428D02*
X92954819Y-76995237D01*
X92954819Y-76995237D02*
X92954819Y-76766666D01*
X92954819Y-76766666D02*
X92907200Y-76690475D01*
X92907200Y-76690475D02*
X92859580Y-76652380D01*
X92954819Y-77909523D02*
X92954819Y-77452380D01*
X92954819Y-77680952D02*
X91954819Y-77680952D01*
X91954819Y-77680952D02*
X92097676Y-77604761D01*
X92097676Y-77604761D02*
X92192914Y-77528571D01*
X92192914Y-77528571D02*
X92240533Y-77452380D01*
X117354819Y-78985714D02*
X116878628Y-78719047D01*
X117354819Y-78528571D02*
X116354819Y-78528571D01*
X116354819Y-78528571D02*
X116354819Y-78833333D01*
X116354819Y-78833333D02*
X116402438Y-78909523D01*
X116402438Y-78909523D02*
X116450057Y-78947618D01*
X116450057Y-78947618D02*
X116545295Y-78985714D01*
X116545295Y-78985714D02*
X116688152Y-78985714D01*
X116688152Y-78985714D02*
X116783390Y-78947618D01*
X116783390Y-78947618D02*
X116831009Y-78909523D01*
X116831009Y-78909523D02*
X116878628Y-78833333D01*
X116878628Y-78833333D02*
X116878628Y-78528571D01*
X116450057Y-79290475D02*
X116402438Y-79328571D01*
X116402438Y-79328571D02*
X116354819Y-79404761D01*
X116354819Y-79404761D02*
X116354819Y-79595237D01*
X116354819Y-79595237D02*
X116402438Y-79671428D01*
X116402438Y-79671428D02*
X116450057Y-79709523D01*
X116450057Y-79709523D02*
X116545295Y-79747618D01*
X116545295Y-79747618D02*
X116640533Y-79747618D01*
X116640533Y-79747618D02*
X116783390Y-79709523D01*
X116783390Y-79709523D02*
X117354819Y-79252380D01*
X117354819Y-79252380D02*
X117354819Y-79747618D01*
X116688152Y-80433333D02*
X117354819Y-80433333D01*
X116307200Y-80242857D02*
X117021485Y-80052380D01*
X117021485Y-80052380D02*
X117021485Y-80547619D01*
X85431009Y-83333333D02*
X85431009Y-83066667D01*
X85954819Y-83066667D02*
X84954819Y-83066667D01*
X84954819Y-83066667D02*
X84954819Y-83447619D01*
X85431009Y-84019047D02*
X85478628Y-84133333D01*
X85478628Y-84133333D02*
X85526247Y-84171428D01*
X85526247Y-84171428D02*
X85621485Y-84209524D01*
X85621485Y-84209524D02*
X85764342Y-84209524D01*
X85764342Y-84209524D02*
X85859580Y-84171428D01*
X85859580Y-84171428D02*
X85907200Y-84133333D01*
X85907200Y-84133333D02*
X85954819Y-84057143D01*
X85954819Y-84057143D02*
X85954819Y-83752381D01*
X85954819Y-83752381D02*
X84954819Y-83752381D01*
X84954819Y-83752381D02*
X84954819Y-84019047D01*
X84954819Y-84019047D02*
X85002438Y-84095238D01*
X85002438Y-84095238D02*
X85050057Y-84133333D01*
X85050057Y-84133333D02*
X85145295Y-84171428D01*
X85145295Y-84171428D02*
X85240533Y-84171428D01*
X85240533Y-84171428D02*
X85335771Y-84133333D01*
X85335771Y-84133333D02*
X85383390Y-84095238D01*
X85383390Y-84095238D02*
X85431009Y-84019047D01*
X85431009Y-84019047D02*
X85431009Y-83752381D01*
X85954819Y-84971428D02*
X85954819Y-84514285D01*
X85954819Y-84742857D02*
X84954819Y-84742857D01*
X84954819Y-84742857D02*
X85097676Y-84666666D01*
X85097676Y-84666666D02*
X85192914Y-84590476D01*
X85192914Y-84590476D02*
X85240533Y-84514285D01*
X84809580Y-65835714D02*
X84857200Y-65797618D01*
X84857200Y-65797618D02*
X84904819Y-65683333D01*
X84904819Y-65683333D02*
X84904819Y-65607142D01*
X84904819Y-65607142D02*
X84857200Y-65492856D01*
X84857200Y-65492856D02*
X84761961Y-65416666D01*
X84761961Y-65416666D02*
X84666723Y-65378571D01*
X84666723Y-65378571D02*
X84476247Y-65340475D01*
X84476247Y-65340475D02*
X84333390Y-65340475D01*
X84333390Y-65340475D02*
X84142914Y-65378571D01*
X84142914Y-65378571D02*
X84047676Y-65416666D01*
X84047676Y-65416666D02*
X83952438Y-65492856D01*
X83952438Y-65492856D02*
X83904819Y-65607142D01*
X83904819Y-65607142D02*
X83904819Y-65683333D01*
X83904819Y-65683333D02*
X83952438Y-65797618D01*
X83952438Y-65797618D02*
X84000057Y-65835714D01*
X83904819Y-66102380D02*
X83904819Y-66597618D01*
X83904819Y-66597618D02*
X84285771Y-66330952D01*
X84285771Y-66330952D02*
X84285771Y-66445237D01*
X84285771Y-66445237D02*
X84333390Y-66521428D01*
X84333390Y-66521428D02*
X84381009Y-66559523D01*
X84381009Y-66559523D02*
X84476247Y-66597618D01*
X84476247Y-66597618D02*
X84714342Y-66597618D01*
X84714342Y-66597618D02*
X84809580Y-66559523D01*
X84809580Y-66559523D02*
X84857200Y-66521428D01*
X84857200Y-66521428D02*
X84904819Y-66445237D01*
X84904819Y-66445237D02*
X84904819Y-66216666D01*
X84904819Y-66216666D02*
X84857200Y-66140475D01*
X84857200Y-66140475D02*
X84809580Y-66102380D01*
X83904819Y-67321428D02*
X83904819Y-66940476D01*
X83904819Y-66940476D02*
X84381009Y-66902380D01*
X84381009Y-66902380D02*
X84333390Y-66940476D01*
X84333390Y-66940476D02*
X84285771Y-67016666D01*
X84285771Y-67016666D02*
X84285771Y-67207142D01*
X84285771Y-67207142D02*
X84333390Y-67283333D01*
X84333390Y-67283333D02*
X84381009Y-67321428D01*
X84381009Y-67321428D02*
X84476247Y-67359523D01*
X84476247Y-67359523D02*
X84714342Y-67359523D01*
X84714342Y-67359523D02*
X84809580Y-67321428D01*
X84809580Y-67321428D02*
X84857200Y-67283333D01*
X84857200Y-67283333D02*
X84904819Y-67207142D01*
X84904819Y-67207142D02*
X84904819Y-67016666D01*
X84904819Y-67016666D02*
X84857200Y-66940476D01*
X84857200Y-66940476D02*
X84809580Y-66902380D01*
X139059580Y-91885714D02*
X139107200Y-91847618D01*
X139107200Y-91847618D02*
X139154819Y-91733333D01*
X139154819Y-91733333D02*
X139154819Y-91657142D01*
X139154819Y-91657142D02*
X139107200Y-91542856D01*
X139107200Y-91542856D02*
X139011961Y-91466666D01*
X139011961Y-91466666D02*
X138916723Y-91428571D01*
X138916723Y-91428571D02*
X138726247Y-91390475D01*
X138726247Y-91390475D02*
X138583390Y-91390475D01*
X138583390Y-91390475D02*
X138392914Y-91428571D01*
X138392914Y-91428571D02*
X138297676Y-91466666D01*
X138297676Y-91466666D02*
X138202438Y-91542856D01*
X138202438Y-91542856D02*
X138154819Y-91657142D01*
X138154819Y-91657142D02*
X138154819Y-91733333D01*
X138154819Y-91733333D02*
X138202438Y-91847618D01*
X138202438Y-91847618D02*
X138250057Y-91885714D01*
X138250057Y-92190475D02*
X138202438Y-92228571D01*
X138202438Y-92228571D02*
X138154819Y-92304761D01*
X138154819Y-92304761D02*
X138154819Y-92495237D01*
X138154819Y-92495237D02*
X138202438Y-92571428D01*
X138202438Y-92571428D02*
X138250057Y-92609523D01*
X138250057Y-92609523D02*
X138345295Y-92647618D01*
X138345295Y-92647618D02*
X138440533Y-92647618D01*
X138440533Y-92647618D02*
X138583390Y-92609523D01*
X138583390Y-92609523D02*
X139154819Y-92152380D01*
X139154819Y-92152380D02*
X139154819Y-92647618D01*
X139154819Y-93028571D02*
X139154819Y-93180952D01*
X139154819Y-93180952D02*
X139107200Y-93257142D01*
X139107200Y-93257142D02*
X139059580Y-93295238D01*
X139059580Y-93295238D02*
X138916723Y-93371428D01*
X138916723Y-93371428D02*
X138726247Y-93409523D01*
X138726247Y-93409523D02*
X138345295Y-93409523D01*
X138345295Y-93409523D02*
X138250057Y-93371428D01*
X138250057Y-93371428D02*
X138202438Y-93333333D01*
X138202438Y-93333333D02*
X138154819Y-93257142D01*
X138154819Y-93257142D02*
X138154819Y-93104761D01*
X138154819Y-93104761D02*
X138202438Y-93028571D01*
X138202438Y-93028571D02*
X138250057Y-92990476D01*
X138250057Y-92990476D02*
X138345295Y-92952380D01*
X138345295Y-92952380D02*
X138583390Y-92952380D01*
X138583390Y-92952380D02*
X138678628Y-92990476D01*
X138678628Y-92990476D02*
X138726247Y-93028571D01*
X138726247Y-93028571D02*
X138773866Y-93104761D01*
X138773866Y-93104761D02*
X138773866Y-93257142D01*
X138773866Y-93257142D02*
X138726247Y-93333333D01*
X138726247Y-93333333D02*
X138678628Y-93371428D01*
X138678628Y-93371428D02*
X138583390Y-93409523D01*
X104804819Y-78773214D02*
X104328628Y-78506547D01*
X104804819Y-78316071D02*
X103804819Y-78316071D01*
X103804819Y-78316071D02*
X103804819Y-78620833D01*
X103804819Y-78620833D02*
X103852438Y-78697023D01*
X103852438Y-78697023D02*
X103900057Y-78735118D01*
X103900057Y-78735118D02*
X103995295Y-78773214D01*
X103995295Y-78773214D02*
X104138152Y-78773214D01*
X104138152Y-78773214D02*
X104233390Y-78735118D01*
X104233390Y-78735118D02*
X104281009Y-78697023D01*
X104281009Y-78697023D02*
X104328628Y-78620833D01*
X104328628Y-78620833D02*
X104328628Y-78316071D01*
X103804819Y-79039880D02*
X103804819Y-79535118D01*
X103804819Y-79535118D02*
X104185771Y-79268452D01*
X104185771Y-79268452D02*
X104185771Y-79382737D01*
X104185771Y-79382737D02*
X104233390Y-79458928D01*
X104233390Y-79458928D02*
X104281009Y-79497023D01*
X104281009Y-79497023D02*
X104376247Y-79535118D01*
X104376247Y-79535118D02*
X104614342Y-79535118D01*
X104614342Y-79535118D02*
X104709580Y-79497023D01*
X104709580Y-79497023D02*
X104757200Y-79458928D01*
X104757200Y-79458928D02*
X104804819Y-79382737D01*
X104804819Y-79382737D02*
X104804819Y-79154166D01*
X104804819Y-79154166D02*
X104757200Y-79077975D01*
X104757200Y-79077975D02*
X104709580Y-79039880D01*
X103804819Y-80030357D02*
X103804819Y-80106547D01*
X103804819Y-80106547D02*
X103852438Y-80182738D01*
X103852438Y-80182738D02*
X103900057Y-80220833D01*
X103900057Y-80220833D02*
X103995295Y-80258928D01*
X103995295Y-80258928D02*
X104185771Y-80297023D01*
X104185771Y-80297023D02*
X104423866Y-80297023D01*
X104423866Y-80297023D02*
X104614342Y-80258928D01*
X104614342Y-80258928D02*
X104709580Y-80220833D01*
X104709580Y-80220833D02*
X104757200Y-80182738D01*
X104757200Y-80182738D02*
X104804819Y-80106547D01*
X104804819Y-80106547D02*
X104804819Y-80030357D01*
X104804819Y-80030357D02*
X104757200Y-79954166D01*
X104757200Y-79954166D02*
X104709580Y-79916071D01*
X104709580Y-79916071D02*
X104614342Y-79877976D01*
X104614342Y-79877976D02*
X104423866Y-79839880D01*
X104423866Y-79839880D02*
X104185771Y-79839880D01*
X104185771Y-79839880D02*
X103995295Y-79877976D01*
X103995295Y-79877976D02*
X103900057Y-79916071D01*
X103900057Y-79916071D02*
X103852438Y-79954166D01*
X103852438Y-79954166D02*
X103804819Y-80030357D01*
X96454819Y-68085714D02*
X95978628Y-67819047D01*
X96454819Y-67628571D02*
X95454819Y-67628571D01*
X95454819Y-67628571D02*
X95454819Y-67933333D01*
X95454819Y-67933333D02*
X95502438Y-68009523D01*
X95502438Y-68009523D02*
X95550057Y-68047618D01*
X95550057Y-68047618D02*
X95645295Y-68085714D01*
X95645295Y-68085714D02*
X95788152Y-68085714D01*
X95788152Y-68085714D02*
X95883390Y-68047618D01*
X95883390Y-68047618D02*
X95931009Y-68009523D01*
X95931009Y-68009523D02*
X95978628Y-67933333D01*
X95978628Y-67933333D02*
X95978628Y-67628571D01*
X96454819Y-68847618D02*
X96454819Y-68390475D01*
X96454819Y-68619047D02*
X95454819Y-68619047D01*
X95454819Y-68619047D02*
X95597676Y-68542856D01*
X95597676Y-68542856D02*
X95692914Y-68466666D01*
X95692914Y-68466666D02*
X95740533Y-68390475D01*
X95454819Y-69114285D02*
X95454819Y-69609523D01*
X95454819Y-69609523D02*
X95835771Y-69342857D01*
X95835771Y-69342857D02*
X95835771Y-69457142D01*
X95835771Y-69457142D02*
X95883390Y-69533333D01*
X95883390Y-69533333D02*
X95931009Y-69571428D01*
X95931009Y-69571428D02*
X96026247Y-69609523D01*
X96026247Y-69609523D02*
X96264342Y-69609523D01*
X96264342Y-69609523D02*
X96359580Y-69571428D01*
X96359580Y-69571428D02*
X96407200Y-69533333D01*
X96407200Y-69533333D02*
X96454819Y-69457142D01*
X96454819Y-69457142D02*
X96454819Y-69228571D01*
X96454819Y-69228571D02*
X96407200Y-69152380D01*
X96407200Y-69152380D02*
X96359580Y-69114285D01*
X89054819Y-84166667D02*
X88578628Y-83900000D01*
X89054819Y-83709524D02*
X88054819Y-83709524D01*
X88054819Y-83709524D02*
X88054819Y-84014286D01*
X88054819Y-84014286D02*
X88102438Y-84090476D01*
X88102438Y-84090476D02*
X88150057Y-84128571D01*
X88150057Y-84128571D02*
X88245295Y-84166667D01*
X88245295Y-84166667D02*
X88388152Y-84166667D01*
X88388152Y-84166667D02*
X88483390Y-84128571D01*
X88483390Y-84128571D02*
X88531009Y-84090476D01*
X88531009Y-84090476D02*
X88578628Y-84014286D01*
X88578628Y-84014286D02*
X88578628Y-83709524D01*
X89054819Y-84547619D02*
X89054819Y-84700000D01*
X89054819Y-84700000D02*
X89007200Y-84776190D01*
X89007200Y-84776190D02*
X88959580Y-84814286D01*
X88959580Y-84814286D02*
X88816723Y-84890476D01*
X88816723Y-84890476D02*
X88626247Y-84928571D01*
X88626247Y-84928571D02*
X88245295Y-84928571D01*
X88245295Y-84928571D02*
X88150057Y-84890476D01*
X88150057Y-84890476D02*
X88102438Y-84852381D01*
X88102438Y-84852381D02*
X88054819Y-84776190D01*
X88054819Y-84776190D02*
X88054819Y-84623809D01*
X88054819Y-84623809D02*
X88102438Y-84547619D01*
X88102438Y-84547619D02*
X88150057Y-84509524D01*
X88150057Y-84509524D02*
X88245295Y-84471428D01*
X88245295Y-84471428D02*
X88483390Y-84471428D01*
X88483390Y-84471428D02*
X88578628Y-84509524D01*
X88578628Y-84509524D02*
X88626247Y-84547619D01*
X88626247Y-84547619D02*
X88673866Y-84623809D01*
X88673866Y-84623809D02*
X88673866Y-84776190D01*
X88673866Y-84776190D02*
X88626247Y-84852381D01*
X88626247Y-84852381D02*
X88578628Y-84890476D01*
X88578628Y-84890476D02*
X88483390Y-84928571D01*
X101404819Y-68085714D02*
X100928628Y-67819047D01*
X101404819Y-67628571D02*
X100404819Y-67628571D01*
X100404819Y-67628571D02*
X100404819Y-67933333D01*
X100404819Y-67933333D02*
X100452438Y-68009523D01*
X100452438Y-68009523D02*
X100500057Y-68047618D01*
X100500057Y-68047618D02*
X100595295Y-68085714D01*
X100595295Y-68085714D02*
X100738152Y-68085714D01*
X100738152Y-68085714D02*
X100833390Y-68047618D01*
X100833390Y-68047618D02*
X100881009Y-68009523D01*
X100881009Y-68009523D02*
X100928628Y-67933333D01*
X100928628Y-67933333D02*
X100928628Y-67628571D01*
X100500057Y-68390475D02*
X100452438Y-68428571D01*
X100452438Y-68428571D02*
X100404819Y-68504761D01*
X100404819Y-68504761D02*
X100404819Y-68695237D01*
X100404819Y-68695237D02*
X100452438Y-68771428D01*
X100452438Y-68771428D02*
X100500057Y-68809523D01*
X100500057Y-68809523D02*
X100595295Y-68847618D01*
X100595295Y-68847618D02*
X100690533Y-68847618D01*
X100690533Y-68847618D02*
X100833390Y-68809523D01*
X100833390Y-68809523D02*
X101404819Y-68352380D01*
X101404819Y-68352380D02*
X101404819Y-68847618D01*
X100404819Y-69533333D02*
X100404819Y-69380952D01*
X100404819Y-69380952D02*
X100452438Y-69304761D01*
X100452438Y-69304761D02*
X100500057Y-69266666D01*
X100500057Y-69266666D02*
X100642914Y-69190476D01*
X100642914Y-69190476D02*
X100833390Y-69152380D01*
X100833390Y-69152380D02*
X101214342Y-69152380D01*
X101214342Y-69152380D02*
X101309580Y-69190476D01*
X101309580Y-69190476D02*
X101357200Y-69228571D01*
X101357200Y-69228571D02*
X101404819Y-69304761D01*
X101404819Y-69304761D02*
X101404819Y-69457142D01*
X101404819Y-69457142D02*
X101357200Y-69533333D01*
X101357200Y-69533333D02*
X101309580Y-69571428D01*
X101309580Y-69571428D02*
X101214342Y-69609523D01*
X101214342Y-69609523D02*
X100976247Y-69609523D01*
X100976247Y-69609523D02*
X100881009Y-69571428D01*
X100881009Y-69571428D02*
X100833390Y-69533333D01*
X100833390Y-69533333D02*
X100785771Y-69457142D01*
X100785771Y-69457142D02*
X100785771Y-69304761D01*
X100785771Y-69304761D02*
X100833390Y-69228571D01*
X100833390Y-69228571D02*
X100881009Y-69190476D01*
X100881009Y-69190476D02*
X100976247Y-69152380D01*
X127359580Y-89285714D02*
X127407200Y-89247618D01*
X127407200Y-89247618D02*
X127454819Y-89133333D01*
X127454819Y-89133333D02*
X127454819Y-89057142D01*
X127454819Y-89057142D02*
X127407200Y-88942856D01*
X127407200Y-88942856D02*
X127311961Y-88866666D01*
X127311961Y-88866666D02*
X127216723Y-88828571D01*
X127216723Y-88828571D02*
X127026247Y-88790475D01*
X127026247Y-88790475D02*
X126883390Y-88790475D01*
X126883390Y-88790475D02*
X126692914Y-88828571D01*
X126692914Y-88828571D02*
X126597676Y-88866666D01*
X126597676Y-88866666D02*
X126502438Y-88942856D01*
X126502438Y-88942856D02*
X126454819Y-89057142D01*
X126454819Y-89057142D02*
X126454819Y-89133333D01*
X126454819Y-89133333D02*
X126502438Y-89247618D01*
X126502438Y-89247618D02*
X126550057Y-89285714D01*
X126454819Y-89552380D02*
X126454819Y-90047618D01*
X126454819Y-90047618D02*
X126835771Y-89780952D01*
X126835771Y-89780952D02*
X126835771Y-89895237D01*
X126835771Y-89895237D02*
X126883390Y-89971428D01*
X126883390Y-89971428D02*
X126931009Y-90009523D01*
X126931009Y-90009523D02*
X127026247Y-90047618D01*
X127026247Y-90047618D02*
X127264342Y-90047618D01*
X127264342Y-90047618D02*
X127359580Y-90009523D01*
X127359580Y-90009523D02*
X127407200Y-89971428D01*
X127407200Y-89971428D02*
X127454819Y-89895237D01*
X127454819Y-89895237D02*
X127454819Y-89666666D01*
X127454819Y-89666666D02*
X127407200Y-89590475D01*
X127407200Y-89590475D02*
X127359580Y-89552380D01*
X126454819Y-90542857D02*
X126454819Y-90619047D01*
X126454819Y-90619047D02*
X126502438Y-90695238D01*
X126502438Y-90695238D02*
X126550057Y-90733333D01*
X126550057Y-90733333D02*
X126645295Y-90771428D01*
X126645295Y-90771428D02*
X126835771Y-90809523D01*
X126835771Y-90809523D02*
X127073866Y-90809523D01*
X127073866Y-90809523D02*
X127264342Y-90771428D01*
X127264342Y-90771428D02*
X127359580Y-90733333D01*
X127359580Y-90733333D02*
X127407200Y-90695238D01*
X127407200Y-90695238D02*
X127454819Y-90619047D01*
X127454819Y-90619047D02*
X127454819Y-90542857D01*
X127454819Y-90542857D02*
X127407200Y-90466666D01*
X127407200Y-90466666D02*
X127359580Y-90428571D01*
X127359580Y-90428571D02*
X127264342Y-90390476D01*
X127264342Y-90390476D02*
X127073866Y-90352380D01*
X127073866Y-90352380D02*
X126835771Y-90352380D01*
X126835771Y-90352380D02*
X126645295Y-90390476D01*
X126645295Y-90390476D02*
X126550057Y-90428571D01*
X126550057Y-90428571D02*
X126502438Y-90466666D01*
X126502438Y-90466666D02*
X126454819Y-90542857D01*
X95909580Y-78735714D02*
X95957200Y-78697618D01*
X95957200Y-78697618D02*
X96004819Y-78583333D01*
X96004819Y-78583333D02*
X96004819Y-78507142D01*
X96004819Y-78507142D02*
X95957200Y-78392856D01*
X95957200Y-78392856D02*
X95861961Y-78316666D01*
X95861961Y-78316666D02*
X95766723Y-78278571D01*
X95766723Y-78278571D02*
X95576247Y-78240475D01*
X95576247Y-78240475D02*
X95433390Y-78240475D01*
X95433390Y-78240475D02*
X95242914Y-78278571D01*
X95242914Y-78278571D02*
X95147676Y-78316666D01*
X95147676Y-78316666D02*
X95052438Y-78392856D01*
X95052438Y-78392856D02*
X95004819Y-78507142D01*
X95004819Y-78507142D02*
X95004819Y-78583333D01*
X95004819Y-78583333D02*
X95052438Y-78697618D01*
X95052438Y-78697618D02*
X95100057Y-78735714D01*
X95100057Y-79040475D02*
X95052438Y-79078571D01*
X95052438Y-79078571D02*
X95004819Y-79154761D01*
X95004819Y-79154761D02*
X95004819Y-79345237D01*
X95004819Y-79345237D02*
X95052438Y-79421428D01*
X95052438Y-79421428D02*
X95100057Y-79459523D01*
X95100057Y-79459523D02*
X95195295Y-79497618D01*
X95195295Y-79497618D02*
X95290533Y-79497618D01*
X95290533Y-79497618D02*
X95433390Y-79459523D01*
X95433390Y-79459523D02*
X96004819Y-79002380D01*
X96004819Y-79002380D02*
X96004819Y-79497618D01*
X96004819Y-80259523D02*
X96004819Y-79802380D01*
X96004819Y-80030952D02*
X95004819Y-80030952D01*
X95004819Y-80030952D02*
X95147676Y-79954761D01*
X95147676Y-79954761D02*
X95242914Y-79878571D01*
X95242914Y-79878571D02*
X95290533Y-79802380D01*
X119259580Y-86685714D02*
X119307200Y-86647618D01*
X119307200Y-86647618D02*
X119354819Y-86533333D01*
X119354819Y-86533333D02*
X119354819Y-86457142D01*
X119354819Y-86457142D02*
X119307200Y-86342856D01*
X119307200Y-86342856D02*
X119211961Y-86266666D01*
X119211961Y-86266666D02*
X119116723Y-86228571D01*
X119116723Y-86228571D02*
X118926247Y-86190475D01*
X118926247Y-86190475D02*
X118783390Y-86190475D01*
X118783390Y-86190475D02*
X118592914Y-86228571D01*
X118592914Y-86228571D02*
X118497676Y-86266666D01*
X118497676Y-86266666D02*
X118402438Y-86342856D01*
X118402438Y-86342856D02*
X118354819Y-86457142D01*
X118354819Y-86457142D02*
X118354819Y-86533333D01*
X118354819Y-86533333D02*
X118402438Y-86647618D01*
X118402438Y-86647618D02*
X118450057Y-86685714D01*
X119354819Y-87447618D02*
X119354819Y-86990475D01*
X119354819Y-87219047D02*
X118354819Y-87219047D01*
X118354819Y-87219047D02*
X118497676Y-87142856D01*
X118497676Y-87142856D02*
X118592914Y-87066666D01*
X118592914Y-87066666D02*
X118640533Y-86990475D01*
X119354819Y-88209523D02*
X119354819Y-87752380D01*
X119354819Y-87980952D02*
X118354819Y-87980952D01*
X118354819Y-87980952D02*
X118497676Y-87904761D01*
X118497676Y-87904761D02*
X118592914Y-87828571D01*
X118592914Y-87828571D02*
X118640533Y-87752380D01*
X103531009Y-89133333D02*
X103531009Y-88866667D01*
X104054819Y-88866667D02*
X103054819Y-88866667D01*
X103054819Y-88866667D02*
X103054819Y-89247619D01*
X103531009Y-89819047D02*
X103578628Y-89933333D01*
X103578628Y-89933333D02*
X103626247Y-89971428D01*
X103626247Y-89971428D02*
X103721485Y-90009524D01*
X103721485Y-90009524D02*
X103864342Y-90009524D01*
X103864342Y-90009524D02*
X103959580Y-89971428D01*
X103959580Y-89971428D02*
X104007200Y-89933333D01*
X104007200Y-89933333D02*
X104054819Y-89857143D01*
X104054819Y-89857143D02*
X104054819Y-89552381D01*
X104054819Y-89552381D02*
X103054819Y-89552381D01*
X103054819Y-89552381D02*
X103054819Y-89819047D01*
X103054819Y-89819047D02*
X103102438Y-89895238D01*
X103102438Y-89895238D02*
X103150057Y-89933333D01*
X103150057Y-89933333D02*
X103245295Y-89971428D01*
X103245295Y-89971428D02*
X103340533Y-89971428D01*
X103340533Y-89971428D02*
X103435771Y-89933333D01*
X103435771Y-89933333D02*
X103483390Y-89895238D01*
X103483390Y-89895238D02*
X103531009Y-89819047D01*
X103531009Y-89819047D02*
X103531009Y-89552381D01*
X103150057Y-90314285D02*
X103102438Y-90352381D01*
X103102438Y-90352381D02*
X103054819Y-90428571D01*
X103054819Y-90428571D02*
X103054819Y-90619047D01*
X103054819Y-90619047D02*
X103102438Y-90695238D01*
X103102438Y-90695238D02*
X103150057Y-90733333D01*
X103150057Y-90733333D02*
X103245295Y-90771428D01*
X103245295Y-90771428D02*
X103340533Y-90771428D01*
X103340533Y-90771428D02*
X103483390Y-90733333D01*
X103483390Y-90733333D02*
X104054819Y-90276190D01*
X104054819Y-90276190D02*
X104054819Y-90771428D01*
X138009580Y-83185714D02*
X138057200Y-83147618D01*
X138057200Y-83147618D02*
X138104819Y-83033333D01*
X138104819Y-83033333D02*
X138104819Y-82957142D01*
X138104819Y-82957142D02*
X138057200Y-82842856D01*
X138057200Y-82842856D02*
X137961961Y-82766666D01*
X137961961Y-82766666D02*
X137866723Y-82728571D01*
X137866723Y-82728571D02*
X137676247Y-82690475D01*
X137676247Y-82690475D02*
X137533390Y-82690475D01*
X137533390Y-82690475D02*
X137342914Y-82728571D01*
X137342914Y-82728571D02*
X137247676Y-82766666D01*
X137247676Y-82766666D02*
X137152438Y-82842856D01*
X137152438Y-82842856D02*
X137104819Y-82957142D01*
X137104819Y-82957142D02*
X137104819Y-83033333D01*
X137104819Y-83033333D02*
X137152438Y-83147618D01*
X137152438Y-83147618D02*
X137200057Y-83185714D01*
X138104819Y-83947618D02*
X138104819Y-83490475D01*
X138104819Y-83719047D02*
X137104819Y-83719047D01*
X137104819Y-83719047D02*
X137247676Y-83642856D01*
X137247676Y-83642856D02*
X137342914Y-83566666D01*
X137342914Y-83566666D02*
X137390533Y-83490475D01*
X137104819Y-84633333D02*
X137104819Y-84480952D01*
X137104819Y-84480952D02*
X137152438Y-84404761D01*
X137152438Y-84404761D02*
X137200057Y-84366666D01*
X137200057Y-84366666D02*
X137342914Y-84290476D01*
X137342914Y-84290476D02*
X137533390Y-84252380D01*
X137533390Y-84252380D02*
X137914342Y-84252380D01*
X137914342Y-84252380D02*
X138009580Y-84290476D01*
X138009580Y-84290476D02*
X138057200Y-84328571D01*
X138057200Y-84328571D02*
X138104819Y-84404761D01*
X138104819Y-84404761D02*
X138104819Y-84557142D01*
X138104819Y-84557142D02*
X138057200Y-84633333D01*
X138057200Y-84633333D02*
X138009580Y-84671428D01*
X138009580Y-84671428D02*
X137914342Y-84709523D01*
X137914342Y-84709523D02*
X137676247Y-84709523D01*
X137676247Y-84709523D02*
X137581009Y-84671428D01*
X137581009Y-84671428D02*
X137533390Y-84633333D01*
X137533390Y-84633333D02*
X137485771Y-84557142D01*
X137485771Y-84557142D02*
X137485771Y-84404761D01*
X137485771Y-84404761D02*
X137533390Y-84328571D01*
X137533390Y-84328571D02*
X137581009Y-84290476D01*
X137581009Y-84290476D02*
X137676247Y-84252380D01*
X91454819Y-92885714D02*
X90978628Y-92619047D01*
X91454819Y-92428571D02*
X90454819Y-92428571D01*
X90454819Y-92428571D02*
X90454819Y-92733333D01*
X90454819Y-92733333D02*
X90502438Y-92809523D01*
X90502438Y-92809523D02*
X90550057Y-92847618D01*
X90550057Y-92847618D02*
X90645295Y-92885714D01*
X90645295Y-92885714D02*
X90788152Y-92885714D01*
X90788152Y-92885714D02*
X90883390Y-92847618D01*
X90883390Y-92847618D02*
X90931009Y-92809523D01*
X90931009Y-92809523D02*
X90978628Y-92733333D01*
X90978628Y-92733333D02*
X90978628Y-92428571D01*
X90550057Y-93190475D02*
X90502438Y-93228571D01*
X90502438Y-93228571D02*
X90454819Y-93304761D01*
X90454819Y-93304761D02*
X90454819Y-93495237D01*
X90454819Y-93495237D02*
X90502438Y-93571428D01*
X90502438Y-93571428D02*
X90550057Y-93609523D01*
X90550057Y-93609523D02*
X90645295Y-93647618D01*
X90645295Y-93647618D02*
X90740533Y-93647618D01*
X90740533Y-93647618D02*
X90883390Y-93609523D01*
X90883390Y-93609523D02*
X91454819Y-93152380D01*
X91454819Y-93152380D02*
X91454819Y-93647618D01*
X90454819Y-94371428D02*
X90454819Y-93990476D01*
X90454819Y-93990476D02*
X90931009Y-93952380D01*
X90931009Y-93952380D02*
X90883390Y-93990476D01*
X90883390Y-93990476D02*
X90835771Y-94066666D01*
X90835771Y-94066666D02*
X90835771Y-94257142D01*
X90835771Y-94257142D02*
X90883390Y-94333333D01*
X90883390Y-94333333D02*
X90931009Y-94371428D01*
X90931009Y-94371428D02*
X91026247Y-94409523D01*
X91026247Y-94409523D02*
X91264342Y-94409523D01*
X91264342Y-94409523D02*
X91359580Y-94371428D01*
X91359580Y-94371428D02*
X91407200Y-94333333D01*
X91407200Y-94333333D02*
X91454819Y-94257142D01*
X91454819Y-94257142D02*
X91454819Y-94066666D01*
X91454819Y-94066666D02*
X91407200Y-93990476D01*
X91407200Y-93990476D02*
X91359580Y-93952380D01*
X95554819Y-88585714D02*
X95078628Y-88319047D01*
X95554819Y-88128571D02*
X94554819Y-88128571D01*
X94554819Y-88128571D02*
X94554819Y-88433333D01*
X94554819Y-88433333D02*
X94602438Y-88509523D01*
X94602438Y-88509523D02*
X94650057Y-88547618D01*
X94650057Y-88547618D02*
X94745295Y-88585714D01*
X94745295Y-88585714D02*
X94888152Y-88585714D01*
X94888152Y-88585714D02*
X94983390Y-88547618D01*
X94983390Y-88547618D02*
X95031009Y-88509523D01*
X95031009Y-88509523D02*
X95078628Y-88433333D01*
X95078628Y-88433333D02*
X95078628Y-88128571D01*
X94650057Y-88890475D02*
X94602438Y-88928571D01*
X94602438Y-88928571D02*
X94554819Y-89004761D01*
X94554819Y-89004761D02*
X94554819Y-89195237D01*
X94554819Y-89195237D02*
X94602438Y-89271428D01*
X94602438Y-89271428D02*
X94650057Y-89309523D01*
X94650057Y-89309523D02*
X94745295Y-89347618D01*
X94745295Y-89347618D02*
X94840533Y-89347618D01*
X94840533Y-89347618D02*
X94983390Y-89309523D01*
X94983390Y-89309523D02*
X95554819Y-88852380D01*
X95554819Y-88852380D02*
X95554819Y-89347618D01*
X94983390Y-89804761D02*
X94935771Y-89728571D01*
X94935771Y-89728571D02*
X94888152Y-89690476D01*
X94888152Y-89690476D02*
X94792914Y-89652380D01*
X94792914Y-89652380D02*
X94745295Y-89652380D01*
X94745295Y-89652380D02*
X94650057Y-89690476D01*
X94650057Y-89690476D02*
X94602438Y-89728571D01*
X94602438Y-89728571D02*
X94554819Y-89804761D01*
X94554819Y-89804761D02*
X94554819Y-89957142D01*
X94554819Y-89957142D02*
X94602438Y-90033333D01*
X94602438Y-90033333D02*
X94650057Y-90071428D01*
X94650057Y-90071428D02*
X94745295Y-90109523D01*
X94745295Y-90109523D02*
X94792914Y-90109523D01*
X94792914Y-90109523D02*
X94888152Y-90071428D01*
X94888152Y-90071428D02*
X94935771Y-90033333D01*
X94935771Y-90033333D02*
X94983390Y-89957142D01*
X94983390Y-89957142D02*
X94983390Y-89804761D01*
X94983390Y-89804761D02*
X95031009Y-89728571D01*
X95031009Y-89728571D02*
X95078628Y-89690476D01*
X95078628Y-89690476D02*
X95173866Y-89652380D01*
X95173866Y-89652380D02*
X95364342Y-89652380D01*
X95364342Y-89652380D02*
X95459580Y-89690476D01*
X95459580Y-89690476D02*
X95507200Y-89728571D01*
X95507200Y-89728571D02*
X95554819Y-89804761D01*
X95554819Y-89804761D02*
X95554819Y-89957142D01*
X95554819Y-89957142D02*
X95507200Y-90033333D01*
X95507200Y-90033333D02*
X95459580Y-90071428D01*
X95459580Y-90071428D02*
X95364342Y-90109523D01*
X95364342Y-90109523D02*
X95173866Y-90109523D01*
X95173866Y-90109523D02*
X95078628Y-90071428D01*
X95078628Y-90071428D02*
X95031009Y-90033333D01*
X95031009Y-90033333D02*
X94983390Y-89957142D01*
X111004819Y-79366667D02*
X110528628Y-79100000D01*
X111004819Y-78909524D02*
X110004819Y-78909524D01*
X110004819Y-78909524D02*
X110004819Y-79214286D01*
X110004819Y-79214286D02*
X110052438Y-79290476D01*
X110052438Y-79290476D02*
X110100057Y-79328571D01*
X110100057Y-79328571D02*
X110195295Y-79366667D01*
X110195295Y-79366667D02*
X110338152Y-79366667D01*
X110338152Y-79366667D02*
X110433390Y-79328571D01*
X110433390Y-79328571D02*
X110481009Y-79290476D01*
X110481009Y-79290476D02*
X110528628Y-79214286D01*
X110528628Y-79214286D02*
X110528628Y-78909524D01*
X110004819Y-79633333D02*
X110004819Y-80166667D01*
X110004819Y-80166667D02*
X111004819Y-79823809D01*
X132454819Y-88885714D02*
X131978628Y-88619047D01*
X132454819Y-88428571D02*
X131454819Y-88428571D01*
X131454819Y-88428571D02*
X131454819Y-88733333D01*
X131454819Y-88733333D02*
X131502438Y-88809523D01*
X131502438Y-88809523D02*
X131550057Y-88847618D01*
X131550057Y-88847618D02*
X131645295Y-88885714D01*
X131645295Y-88885714D02*
X131788152Y-88885714D01*
X131788152Y-88885714D02*
X131883390Y-88847618D01*
X131883390Y-88847618D02*
X131931009Y-88809523D01*
X131931009Y-88809523D02*
X131978628Y-88733333D01*
X131978628Y-88733333D02*
X131978628Y-88428571D01*
X131550057Y-89190475D02*
X131502438Y-89228571D01*
X131502438Y-89228571D02*
X131454819Y-89304761D01*
X131454819Y-89304761D02*
X131454819Y-89495237D01*
X131454819Y-89495237D02*
X131502438Y-89571428D01*
X131502438Y-89571428D02*
X131550057Y-89609523D01*
X131550057Y-89609523D02*
X131645295Y-89647618D01*
X131645295Y-89647618D02*
X131740533Y-89647618D01*
X131740533Y-89647618D02*
X131883390Y-89609523D01*
X131883390Y-89609523D02*
X132454819Y-89152380D01*
X132454819Y-89152380D02*
X132454819Y-89647618D01*
X131454819Y-89914285D02*
X131454819Y-90409523D01*
X131454819Y-90409523D02*
X131835771Y-90142857D01*
X131835771Y-90142857D02*
X131835771Y-90257142D01*
X131835771Y-90257142D02*
X131883390Y-90333333D01*
X131883390Y-90333333D02*
X131931009Y-90371428D01*
X131931009Y-90371428D02*
X132026247Y-90409523D01*
X132026247Y-90409523D02*
X132264342Y-90409523D01*
X132264342Y-90409523D02*
X132359580Y-90371428D01*
X132359580Y-90371428D02*
X132407200Y-90333333D01*
X132407200Y-90333333D02*
X132454819Y-90257142D01*
X132454819Y-90257142D02*
X132454819Y-90028571D01*
X132454819Y-90028571D02*
X132407200Y-89952380D01*
X132407200Y-89952380D02*
X132359580Y-89914285D01*
X132859580Y-79685714D02*
X132907200Y-79647618D01*
X132907200Y-79647618D02*
X132954819Y-79533333D01*
X132954819Y-79533333D02*
X132954819Y-79457142D01*
X132954819Y-79457142D02*
X132907200Y-79342856D01*
X132907200Y-79342856D02*
X132811961Y-79266666D01*
X132811961Y-79266666D02*
X132716723Y-79228571D01*
X132716723Y-79228571D02*
X132526247Y-79190475D01*
X132526247Y-79190475D02*
X132383390Y-79190475D01*
X132383390Y-79190475D02*
X132192914Y-79228571D01*
X132192914Y-79228571D02*
X132097676Y-79266666D01*
X132097676Y-79266666D02*
X132002438Y-79342856D01*
X132002438Y-79342856D02*
X131954819Y-79457142D01*
X131954819Y-79457142D02*
X131954819Y-79533333D01*
X131954819Y-79533333D02*
X132002438Y-79647618D01*
X132002438Y-79647618D02*
X132050057Y-79685714D01*
X132954819Y-80447618D02*
X132954819Y-79990475D01*
X132954819Y-80219047D02*
X131954819Y-80219047D01*
X131954819Y-80219047D02*
X132097676Y-80142856D01*
X132097676Y-80142856D02*
X132192914Y-80066666D01*
X132192914Y-80066666D02*
X132240533Y-79990475D01*
X131954819Y-80714285D02*
X131954819Y-81247619D01*
X131954819Y-81247619D02*
X132954819Y-80904761D01*
X102159580Y-78735714D02*
X102207200Y-78697618D01*
X102207200Y-78697618D02*
X102254819Y-78583333D01*
X102254819Y-78583333D02*
X102254819Y-78507142D01*
X102254819Y-78507142D02*
X102207200Y-78392856D01*
X102207200Y-78392856D02*
X102111961Y-78316666D01*
X102111961Y-78316666D02*
X102016723Y-78278571D01*
X102016723Y-78278571D02*
X101826247Y-78240475D01*
X101826247Y-78240475D02*
X101683390Y-78240475D01*
X101683390Y-78240475D02*
X101492914Y-78278571D01*
X101492914Y-78278571D02*
X101397676Y-78316666D01*
X101397676Y-78316666D02*
X101302438Y-78392856D01*
X101302438Y-78392856D02*
X101254819Y-78507142D01*
X101254819Y-78507142D02*
X101254819Y-78583333D01*
X101254819Y-78583333D02*
X101302438Y-78697618D01*
X101302438Y-78697618D02*
X101350057Y-78735714D01*
X101254819Y-79002380D02*
X101254819Y-79497618D01*
X101254819Y-79497618D02*
X101635771Y-79230952D01*
X101635771Y-79230952D02*
X101635771Y-79345237D01*
X101635771Y-79345237D02*
X101683390Y-79421428D01*
X101683390Y-79421428D02*
X101731009Y-79459523D01*
X101731009Y-79459523D02*
X101826247Y-79497618D01*
X101826247Y-79497618D02*
X102064342Y-79497618D01*
X102064342Y-79497618D02*
X102159580Y-79459523D01*
X102159580Y-79459523D02*
X102207200Y-79421428D01*
X102207200Y-79421428D02*
X102254819Y-79345237D01*
X102254819Y-79345237D02*
X102254819Y-79116666D01*
X102254819Y-79116666D02*
X102207200Y-79040475D01*
X102207200Y-79040475D02*
X102159580Y-79002380D01*
X101254819Y-79764285D02*
X101254819Y-80259523D01*
X101254819Y-80259523D02*
X101635771Y-79992857D01*
X101635771Y-79992857D02*
X101635771Y-80107142D01*
X101635771Y-80107142D02*
X101683390Y-80183333D01*
X101683390Y-80183333D02*
X101731009Y-80221428D01*
X101731009Y-80221428D02*
X101826247Y-80259523D01*
X101826247Y-80259523D02*
X102064342Y-80259523D01*
X102064342Y-80259523D02*
X102159580Y-80221428D01*
X102159580Y-80221428D02*
X102207200Y-80183333D01*
X102207200Y-80183333D02*
X102254819Y-80107142D01*
X102254819Y-80107142D02*
X102254819Y-79878571D01*
X102254819Y-79878571D02*
X102207200Y-79802380D01*
X102207200Y-79802380D02*
X102159580Y-79764285D01*
X117259580Y-89466667D02*
X117307200Y-89428571D01*
X117307200Y-89428571D02*
X117354819Y-89314286D01*
X117354819Y-89314286D02*
X117354819Y-89238095D01*
X117354819Y-89238095D02*
X117307200Y-89123809D01*
X117307200Y-89123809D02*
X117211961Y-89047619D01*
X117211961Y-89047619D02*
X117116723Y-89009524D01*
X117116723Y-89009524D02*
X116926247Y-88971428D01*
X116926247Y-88971428D02*
X116783390Y-88971428D01*
X116783390Y-88971428D02*
X116592914Y-89009524D01*
X116592914Y-89009524D02*
X116497676Y-89047619D01*
X116497676Y-89047619D02*
X116402438Y-89123809D01*
X116402438Y-89123809D02*
X116354819Y-89238095D01*
X116354819Y-89238095D02*
X116354819Y-89314286D01*
X116354819Y-89314286D02*
X116402438Y-89428571D01*
X116402438Y-89428571D02*
X116450057Y-89466667D01*
X117354819Y-89847619D02*
X117354819Y-90000000D01*
X117354819Y-90000000D02*
X117307200Y-90076190D01*
X117307200Y-90076190D02*
X117259580Y-90114286D01*
X117259580Y-90114286D02*
X117116723Y-90190476D01*
X117116723Y-90190476D02*
X116926247Y-90228571D01*
X116926247Y-90228571D02*
X116545295Y-90228571D01*
X116545295Y-90228571D02*
X116450057Y-90190476D01*
X116450057Y-90190476D02*
X116402438Y-90152381D01*
X116402438Y-90152381D02*
X116354819Y-90076190D01*
X116354819Y-90076190D02*
X116354819Y-89923809D01*
X116354819Y-89923809D02*
X116402438Y-89847619D01*
X116402438Y-89847619D02*
X116450057Y-89809524D01*
X116450057Y-89809524D02*
X116545295Y-89771428D01*
X116545295Y-89771428D02*
X116783390Y-89771428D01*
X116783390Y-89771428D02*
X116878628Y-89809524D01*
X116878628Y-89809524D02*
X116926247Y-89847619D01*
X116926247Y-89847619D02*
X116973866Y-89923809D01*
X116973866Y-89923809D02*
X116973866Y-90076190D01*
X116973866Y-90076190D02*
X116926247Y-90152381D01*
X116926247Y-90152381D02*
X116878628Y-90190476D01*
X116878628Y-90190476D02*
X116783390Y-90228571D01*
X115254819Y-89466667D02*
X114778628Y-89200000D01*
X115254819Y-89009524D02*
X114254819Y-89009524D01*
X114254819Y-89009524D02*
X114254819Y-89314286D01*
X114254819Y-89314286D02*
X114302438Y-89390476D01*
X114302438Y-89390476D02*
X114350057Y-89428571D01*
X114350057Y-89428571D02*
X114445295Y-89466667D01*
X114445295Y-89466667D02*
X114588152Y-89466667D01*
X114588152Y-89466667D02*
X114683390Y-89428571D01*
X114683390Y-89428571D02*
X114731009Y-89390476D01*
X114731009Y-89390476D02*
X114778628Y-89314286D01*
X114778628Y-89314286D02*
X114778628Y-89009524D01*
X114254819Y-90152381D02*
X114254819Y-90000000D01*
X114254819Y-90000000D02*
X114302438Y-89923809D01*
X114302438Y-89923809D02*
X114350057Y-89885714D01*
X114350057Y-89885714D02*
X114492914Y-89809524D01*
X114492914Y-89809524D02*
X114683390Y-89771428D01*
X114683390Y-89771428D02*
X115064342Y-89771428D01*
X115064342Y-89771428D02*
X115159580Y-89809524D01*
X115159580Y-89809524D02*
X115207200Y-89847619D01*
X115207200Y-89847619D02*
X115254819Y-89923809D01*
X115254819Y-89923809D02*
X115254819Y-90076190D01*
X115254819Y-90076190D02*
X115207200Y-90152381D01*
X115207200Y-90152381D02*
X115159580Y-90190476D01*
X115159580Y-90190476D02*
X115064342Y-90228571D01*
X115064342Y-90228571D02*
X114826247Y-90228571D01*
X114826247Y-90228571D02*
X114731009Y-90190476D01*
X114731009Y-90190476D02*
X114683390Y-90152381D01*
X114683390Y-90152381D02*
X114635771Y-90076190D01*
X114635771Y-90076190D02*
X114635771Y-89923809D01*
X114635771Y-89923809D02*
X114683390Y-89847619D01*
X114683390Y-89847619D02*
X114731009Y-89809524D01*
X114731009Y-89809524D02*
X114826247Y-89771428D01*
X139559580Y-78385714D02*
X139607200Y-78347618D01*
X139607200Y-78347618D02*
X139654819Y-78233333D01*
X139654819Y-78233333D02*
X139654819Y-78157142D01*
X139654819Y-78157142D02*
X139607200Y-78042856D01*
X139607200Y-78042856D02*
X139511961Y-77966666D01*
X139511961Y-77966666D02*
X139416723Y-77928571D01*
X139416723Y-77928571D02*
X139226247Y-77890475D01*
X139226247Y-77890475D02*
X139083390Y-77890475D01*
X139083390Y-77890475D02*
X138892914Y-77928571D01*
X138892914Y-77928571D02*
X138797676Y-77966666D01*
X138797676Y-77966666D02*
X138702438Y-78042856D01*
X138702438Y-78042856D02*
X138654819Y-78157142D01*
X138654819Y-78157142D02*
X138654819Y-78233333D01*
X138654819Y-78233333D02*
X138702438Y-78347618D01*
X138702438Y-78347618D02*
X138750057Y-78385714D01*
X139654819Y-79147618D02*
X139654819Y-78690475D01*
X139654819Y-78919047D02*
X138654819Y-78919047D01*
X138654819Y-78919047D02*
X138797676Y-78842856D01*
X138797676Y-78842856D02*
X138892914Y-78766666D01*
X138892914Y-78766666D02*
X138940533Y-78690475D01*
X138654819Y-79871428D02*
X138654819Y-79490476D01*
X138654819Y-79490476D02*
X139131009Y-79452380D01*
X139131009Y-79452380D02*
X139083390Y-79490476D01*
X139083390Y-79490476D02*
X139035771Y-79566666D01*
X139035771Y-79566666D02*
X139035771Y-79757142D01*
X139035771Y-79757142D02*
X139083390Y-79833333D01*
X139083390Y-79833333D02*
X139131009Y-79871428D01*
X139131009Y-79871428D02*
X139226247Y-79909523D01*
X139226247Y-79909523D02*
X139464342Y-79909523D01*
X139464342Y-79909523D02*
X139559580Y-79871428D01*
X139559580Y-79871428D02*
X139607200Y-79833333D01*
X139607200Y-79833333D02*
X139654819Y-79757142D01*
X139654819Y-79757142D02*
X139654819Y-79566666D01*
X139654819Y-79566666D02*
X139607200Y-79490476D01*
X139607200Y-79490476D02*
X139559580Y-79452380D01*
X95554819Y-71485714D02*
X95078628Y-71219047D01*
X95554819Y-71028571D02*
X94554819Y-71028571D01*
X94554819Y-71028571D02*
X94554819Y-71333333D01*
X94554819Y-71333333D02*
X94602438Y-71409523D01*
X94602438Y-71409523D02*
X94650057Y-71447618D01*
X94650057Y-71447618D02*
X94745295Y-71485714D01*
X94745295Y-71485714D02*
X94888152Y-71485714D01*
X94888152Y-71485714D02*
X94983390Y-71447618D01*
X94983390Y-71447618D02*
X95031009Y-71409523D01*
X95031009Y-71409523D02*
X95078628Y-71333333D01*
X95078628Y-71333333D02*
X95078628Y-71028571D01*
X95554819Y-72247618D02*
X95554819Y-71790475D01*
X95554819Y-72019047D02*
X94554819Y-72019047D01*
X94554819Y-72019047D02*
X94697676Y-71942856D01*
X94697676Y-71942856D02*
X94792914Y-71866666D01*
X94792914Y-71866666D02*
X94840533Y-71790475D01*
X94888152Y-72933333D02*
X95554819Y-72933333D01*
X94507200Y-72742857D02*
X95221485Y-72552380D01*
X95221485Y-72552380D02*
X95221485Y-73047619D01*
X101454819Y-89385714D02*
X100978628Y-89119047D01*
X101454819Y-88928571D02*
X100454819Y-88928571D01*
X100454819Y-88928571D02*
X100454819Y-89233333D01*
X100454819Y-89233333D02*
X100502438Y-89309523D01*
X100502438Y-89309523D02*
X100550057Y-89347618D01*
X100550057Y-89347618D02*
X100645295Y-89385714D01*
X100645295Y-89385714D02*
X100788152Y-89385714D01*
X100788152Y-89385714D02*
X100883390Y-89347618D01*
X100883390Y-89347618D02*
X100931009Y-89309523D01*
X100931009Y-89309523D02*
X100978628Y-89233333D01*
X100978628Y-89233333D02*
X100978628Y-88928571D01*
X100550057Y-89690475D02*
X100502438Y-89728571D01*
X100502438Y-89728571D02*
X100454819Y-89804761D01*
X100454819Y-89804761D02*
X100454819Y-89995237D01*
X100454819Y-89995237D02*
X100502438Y-90071428D01*
X100502438Y-90071428D02*
X100550057Y-90109523D01*
X100550057Y-90109523D02*
X100645295Y-90147618D01*
X100645295Y-90147618D02*
X100740533Y-90147618D01*
X100740533Y-90147618D02*
X100883390Y-90109523D01*
X100883390Y-90109523D02*
X101454819Y-89652380D01*
X101454819Y-89652380D02*
X101454819Y-90147618D01*
X101454819Y-90528571D02*
X101454819Y-90680952D01*
X101454819Y-90680952D02*
X101407200Y-90757142D01*
X101407200Y-90757142D02*
X101359580Y-90795238D01*
X101359580Y-90795238D02*
X101216723Y-90871428D01*
X101216723Y-90871428D02*
X101026247Y-90909523D01*
X101026247Y-90909523D02*
X100645295Y-90909523D01*
X100645295Y-90909523D02*
X100550057Y-90871428D01*
X100550057Y-90871428D02*
X100502438Y-90833333D01*
X100502438Y-90833333D02*
X100454819Y-90757142D01*
X100454819Y-90757142D02*
X100454819Y-90604761D01*
X100454819Y-90604761D02*
X100502438Y-90528571D01*
X100502438Y-90528571D02*
X100550057Y-90490476D01*
X100550057Y-90490476D02*
X100645295Y-90452380D01*
X100645295Y-90452380D02*
X100883390Y-90452380D01*
X100883390Y-90452380D02*
X100978628Y-90490476D01*
X100978628Y-90490476D02*
X101026247Y-90528571D01*
X101026247Y-90528571D02*
X101073866Y-90604761D01*
X101073866Y-90604761D02*
X101073866Y-90757142D01*
X101073866Y-90757142D02*
X101026247Y-90833333D01*
X101026247Y-90833333D02*
X100978628Y-90871428D01*
X100978628Y-90871428D02*
X100883390Y-90909523D01*
X90331009Y-83333333D02*
X90331009Y-83066667D01*
X90854819Y-83066667D02*
X89854819Y-83066667D01*
X89854819Y-83066667D02*
X89854819Y-83447619D01*
X90331009Y-84019047D02*
X90378628Y-84133333D01*
X90378628Y-84133333D02*
X90426247Y-84171428D01*
X90426247Y-84171428D02*
X90521485Y-84209524D01*
X90521485Y-84209524D02*
X90664342Y-84209524D01*
X90664342Y-84209524D02*
X90759580Y-84171428D01*
X90759580Y-84171428D02*
X90807200Y-84133333D01*
X90807200Y-84133333D02*
X90854819Y-84057143D01*
X90854819Y-84057143D02*
X90854819Y-83752381D01*
X90854819Y-83752381D02*
X89854819Y-83752381D01*
X89854819Y-83752381D02*
X89854819Y-84019047D01*
X89854819Y-84019047D02*
X89902438Y-84095238D01*
X89902438Y-84095238D02*
X89950057Y-84133333D01*
X89950057Y-84133333D02*
X90045295Y-84171428D01*
X90045295Y-84171428D02*
X90140533Y-84171428D01*
X90140533Y-84171428D02*
X90235771Y-84133333D01*
X90235771Y-84133333D02*
X90283390Y-84095238D01*
X90283390Y-84095238D02*
X90331009Y-84019047D01*
X90331009Y-84019047D02*
X90331009Y-83752381D01*
X89854819Y-84476190D02*
X89854819Y-85009524D01*
X89854819Y-85009524D02*
X90854819Y-84666666D01*
X98754819Y-78735714D02*
X98278628Y-78469047D01*
X98754819Y-78278571D02*
X97754819Y-78278571D01*
X97754819Y-78278571D02*
X97754819Y-78583333D01*
X97754819Y-78583333D02*
X97802438Y-78659523D01*
X97802438Y-78659523D02*
X97850057Y-78697618D01*
X97850057Y-78697618D02*
X97945295Y-78735714D01*
X97945295Y-78735714D02*
X98088152Y-78735714D01*
X98088152Y-78735714D02*
X98183390Y-78697618D01*
X98183390Y-78697618D02*
X98231009Y-78659523D01*
X98231009Y-78659523D02*
X98278628Y-78583333D01*
X98278628Y-78583333D02*
X98278628Y-78278571D01*
X97754819Y-79002380D02*
X97754819Y-79497618D01*
X97754819Y-79497618D02*
X98135771Y-79230952D01*
X98135771Y-79230952D02*
X98135771Y-79345237D01*
X98135771Y-79345237D02*
X98183390Y-79421428D01*
X98183390Y-79421428D02*
X98231009Y-79459523D01*
X98231009Y-79459523D02*
X98326247Y-79497618D01*
X98326247Y-79497618D02*
X98564342Y-79497618D01*
X98564342Y-79497618D02*
X98659580Y-79459523D01*
X98659580Y-79459523D02*
X98707200Y-79421428D01*
X98707200Y-79421428D02*
X98754819Y-79345237D01*
X98754819Y-79345237D02*
X98754819Y-79116666D01*
X98754819Y-79116666D02*
X98707200Y-79040475D01*
X98707200Y-79040475D02*
X98659580Y-79002380D01*
X98754819Y-80259523D02*
X98754819Y-79802380D01*
X98754819Y-80030952D02*
X97754819Y-80030952D01*
X97754819Y-80030952D02*
X97897676Y-79954761D01*
X97897676Y-79954761D02*
X97992914Y-79878571D01*
X97992914Y-79878571D02*
X98040533Y-79802380D01*
X89631009Y-79133333D02*
X89631009Y-78866667D01*
X90154819Y-78866667D02*
X89154819Y-78866667D01*
X89154819Y-78866667D02*
X89154819Y-79247619D01*
X89631009Y-79819047D02*
X89678628Y-79933333D01*
X89678628Y-79933333D02*
X89726247Y-79971428D01*
X89726247Y-79971428D02*
X89821485Y-80009524D01*
X89821485Y-80009524D02*
X89964342Y-80009524D01*
X89964342Y-80009524D02*
X90059580Y-79971428D01*
X90059580Y-79971428D02*
X90107200Y-79933333D01*
X90107200Y-79933333D02*
X90154819Y-79857143D01*
X90154819Y-79857143D02*
X90154819Y-79552381D01*
X90154819Y-79552381D02*
X89154819Y-79552381D01*
X89154819Y-79552381D02*
X89154819Y-79819047D01*
X89154819Y-79819047D02*
X89202438Y-79895238D01*
X89202438Y-79895238D02*
X89250057Y-79933333D01*
X89250057Y-79933333D02*
X89345295Y-79971428D01*
X89345295Y-79971428D02*
X89440533Y-79971428D01*
X89440533Y-79971428D02*
X89535771Y-79933333D01*
X89535771Y-79933333D02*
X89583390Y-79895238D01*
X89583390Y-79895238D02*
X89631009Y-79819047D01*
X89631009Y-79819047D02*
X89631009Y-79552381D01*
X89154819Y-80276190D02*
X89154819Y-80771428D01*
X89154819Y-80771428D02*
X89535771Y-80504762D01*
X89535771Y-80504762D02*
X89535771Y-80619047D01*
X89535771Y-80619047D02*
X89583390Y-80695238D01*
X89583390Y-80695238D02*
X89631009Y-80733333D01*
X89631009Y-80733333D02*
X89726247Y-80771428D01*
X89726247Y-80771428D02*
X89964342Y-80771428D01*
X89964342Y-80771428D02*
X90059580Y-80733333D01*
X90059580Y-80733333D02*
X90107200Y-80695238D01*
X90107200Y-80695238D02*
X90154819Y-80619047D01*
X90154819Y-80619047D02*
X90154819Y-80390476D01*
X90154819Y-80390476D02*
X90107200Y-80314285D01*
X90107200Y-80314285D02*
X90059580Y-80276190D01*
X96859580Y-72685714D02*
X96907200Y-72647618D01*
X96907200Y-72647618D02*
X96954819Y-72533333D01*
X96954819Y-72533333D02*
X96954819Y-72457142D01*
X96954819Y-72457142D02*
X96907200Y-72342856D01*
X96907200Y-72342856D02*
X96811961Y-72266666D01*
X96811961Y-72266666D02*
X96716723Y-72228571D01*
X96716723Y-72228571D02*
X96526247Y-72190475D01*
X96526247Y-72190475D02*
X96383390Y-72190475D01*
X96383390Y-72190475D02*
X96192914Y-72228571D01*
X96192914Y-72228571D02*
X96097676Y-72266666D01*
X96097676Y-72266666D02*
X96002438Y-72342856D01*
X96002438Y-72342856D02*
X95954819Y-72457142D01*
X95954819Y-72457142D02*
X95954819Y-72533333D01*
X95954819Y-72533333D02*
X96002438Y-72647618D01*
X96002438Y-72647618D02*
X96050057Y-72685714D01*
X96050057Y-72990475D02*
X96002438Y-73028571D01*
X96002438Y-73028571D02*
X95954819Y-73104761D01*
X95954819Y-73104761D02*
X95954819Y-73295237D01*
X95954819Y-73295237D02*
X96002438Y-73371428D01*
X96002438Y-73371428D02*
X96050057Y-73409523D01*
X96050057Y-73409523D02*
X96145295Y-73447618D01*
X96145295Y-73447618D02*
X96240533Y-73447618D01*
X96240533Y-73447618D02*
X96383390Y-73409523D01*
X96383390Y-73409523D02*
X96954819Y-72952380D01*
X96954819Y-72952380D02*
X96954819Y-73447618D01*
X96050057Y-73752380D02*
X96002438Y-73790476D01*
X96002438Y-73790476D02*
X95954819Y-73866666D01*
X95954819Y-73866666D02*
X95954819Y-74057142D01*
X95954819Y-74057142D02*
X96002438Y-74133333D01*
X96002438Y-74133333D02*
X96050057Y-74171428D01*
X96050057Y-74171428D02*
X96145295Y-74209523D01*
X96145295Y-74209523D02*
X96240533Y-74209523D01*
X96240533Y-74209523D02*
X96383390Y-74171428D01*
X96383390Y-74171428D02*
X96954819Y-73714285D01*
X96954819Y-73714285D02*
X96954819Y-74209523D01*
X106524819Y-89305714D02*
X106048628Y-89039047D01*
X106524819Y-88848571D02*
X105524819Y-88848571D01*
X105524819Y-88848571D02*
X105524819Y-89153333D01*
X105524819Y-89153333D02*
X105572438Y-89229523D01*
X105572438Y-89229523D02*
X105620057Y-89267618D01*
X105620057Y-89267618D02*
X105715295Y-89305714D01*
X105715295Y-89305714D02*
X105858152Y-89305714D01*
X105858152Y-89305714D02*
X105953390Y-89267618D01*
X105953390Y-89267618D02*
X106001009Y-89229523D01*
X106001009Y-89229523D02*
X106048628Y-89153333D01*
X106048628Y-89153333D02*
X106048628Y-88848571D01*
X106524819Y-90067618D02*
X106524819Y-89610475D01*
X106524819Y-89839047D02*
X105524819Y-89839047D01*
X105524819Y-89839047D02*
X105667676Y-89762856D01*
X105667676Y-89762856D02*
X105762914Y-89686666D01*
X105762914Y-89686666D02*
X105810533Y-89610475D01*
X105524819Y-90562857D02*
X105524819Y-90639047D01*
X105524819Y-90639047D02*
X105572438Y-90715238D01*
X105572438Y-90715238D02*
X105620057Y-90753333D01*
X105620057Y-90753333D02*
X105715295Y-90791428D01*
X105715295Y-90791428D02*
X105905771Y-90829523D01*
X105905771Y-90829523D02*
X106143866Y-90829523D01*
X106143866Y-90829523D02*
X106334342Y-90791428D01*
X106334342Y-90791428D02*
X106429580Y-90753333D01*
X106429580Y-90753333D02*
X106477200Y-90715238D01*
X106477200Y-90715238D02*
X106524819Y-90639047D01*
X106524819Y-90639047D02*
X106524819Y-90562857D01*
X106524819Y-90562857D02*
X106477200Y-90486666D01*
X106477200Y-90486666D02*
X106429580Y-90448571D01*
X106429580Y-90448571D02*
X106334342Y-90410476D01*
X106334342Y-90410476D02*
X106143866Y-90372380D01*
X106143866Y-90372380D02*
X105905771Y-90372380D01*
X105905771Y-90372380D02*
X105715295Y-90410476D01*
X105715295Y-90410476D02*
X105620057Y-90448571D01*
X105620057Y-90448571D02*
X105572438Y-90486666D01*
X105572438Y-90486666D02*
X105524819Y-90562857D01*
X92504819Y-79366667D02*
X92028628Y-79100000D01*
X92504819Y-78909524D02*
X91504819Y-78909524D01*
X91504819Y-78909524D02*
X91504819Y-79214286D01*
X91504819Y-79214286D02*
X91552438Y-79290476D01*
X91552438Y-79290476D02*
X91600057Y-79328571D01*
X91600057Y-79328571D02*
X91695295Y-79366667D01*
X91695295Y-79366667D02*
X91838152Y-79366667D01*
X91838152Y-79366667D02*
X91933390Y-79328571D01*
X91933390Y-79328571D02*
X91981009Y-79290476D01*
X91981009Y-79290476D02*
X92028628Y-79214286D01*
X92028628Y-79214286D02*
X92028628Y-78909524D01*
X91933390Y-79823809D02*
X91885771Y-79747619D01*
X91885771Y-79747619D02*
X91838152Y-79709524D01*
X91838152Y-79709524D02*
X91742914Y-79671428D01*
X91742914Y-79671428D02*
X91695295Y-79671428D01*
X91695295Y-79671428D02*
X91600057Y-79709524D01*
X91600057Y-79709524D02*
X91552438Y-79747619D01*
X91552438Y-79747619D02*
X91504819Y-79823809D01*
X91504819Y-79823809D02*
X91504819Y-79976190D01*
X91504819Y-79976190D02*
X91552438Y-80052381D01*
X91552438Y-80052381D02*
X91600057Y-80090476D01*
X91600057Y-80090476D02*
X91695295Y-80128571D01*
X91695295Y-80128571D02*
X91742914Y-80128571D01*
X91742914Y-80128571D02*
X91838152Y-80090476D01*
X91838152Y-80090476D02*
X91885771Y-80052381D01*
X91885771Y-80052381D02*
X91933390Y-79976190D01*
X91933390Y-79976190D02*
X91933390Y-79823809D01*
X91933390Y-79823809D02*
X91981009Y-79747619D01*
X91981009Y-79747619D02*
X92028628Y-79709524D01*
X92028628Y-79709524D02*
X92123866Y-79671428D01*
X92123866Y-79671428D02*
X92314342Y-79671428D01*
X92314342Y-79671428D02*
X92409580Y-79709524D01*
X92409580Y-79709524D02*
X92457200Y-79747619D01*
X92457200Y-79747619D02*
X92504819Y-79823809D01*
X92504819Y-79823809D02*
X92504819Y-79976190D01*
X92504819Y-79976190D02*
X92457200Y-80052381D01*
X92457200Y-80052381D02*
X92409580Y-80090476D01*
X92409580Y-80090476D02*
X92314342Y-80128571D01*
X92314342Y-80128571D02*
X92123866Y-80128571D01*
X92123866Y-80128571D02*
X92028628Y-80090476D01*
X92028628Y-80090476D02*
X91981009Y-80052381D01*
X91981009Y-80052381D02*
X91933390Y-79976190D01*
X96631009Y-88433333D02*
X96631009Y-88166667D01*
X97154819Y-88166667D02*
X96154819Y-88166667D01*
X96154819Y-88166667D02*
X96154819Y-88547619D01*
X96631009Y-89119047D02*
X96678628Y-89233333D01*
X96678628Y-89233333D02*
X96726247Y-89271428D01*
X96726247Y-89271428D02*
X96821485Y-89309524D01*
X96821485Y-89309524D02*
X96964342Y-89309524D01*
X96964342Y-89309524D02*
X97059580Y-89271428D01*
X97059580Y-89271428D02*
X97107200Y-89233333D01*
X97107200Y-89233333D02*
X97154819Y-89157143D01*
X97154819Y-89157143D02*
X97154819Y-88852381D01*
X97154819Y-88852381D02*
X96154819Y-88852381D01*
X96154819Y-88852381D02*
X96154819Y-89119047D01*
X96154819Y-89119047D02*
X96202438Y-89195238D01*
X96202438Y-89195238D02*
X96250057Y-89233333D01*
X96250057Y-89233333D02*
X96345295Y-89271428D01*
X96345295Y-89271428D02*
X96440533Y-89271428D01*
X96440533Y-89271428D02*
X96535771Y-89233333D01*
X96535771Y-89233333D02*
X96583390Y-89195238D01*
X96583390Y-89195238D02*
X96631009Y-89119047D01*
X96631009Y-89119047D02*
X96631009Y-88852381D01*
X96154819Y-89995238D02*
X96154819Y-89842857D01*
X96154819Y-89842857D02*
X96202438Y-89766666D01*
X96202438Y-89766666D02*
X96250057Y-89728571D01*
X96250057Y-89728571D02*
X96392914Y-89652381D01*
X96392914Y-89652381D02*
X96583390Y-89614285D01*
X96583390Y-89614285D02*
X96964342Y-89614285D01*
X96964342Y-89614285D02*
X97059580Y-89652381D01*
X97059580Y-89652381D02*
X97107200Y-89690476D01*
X97107200Y-89690476D02*
X97154819Y-89766666D01*
X97154819Y-89766666D02*
X97154819Y-89919047D01*
X97154819Y-89919047D02*
X97107200Y-89995238D01*
X97107200Y-89995238D02*
X97059580Y-90033333D01*
X97059580Y-90033333D02*
X96964342Y-90071428D01*
X96964342Y-90071428D02*
X96726247Y-90071428D01*
X96726247Y-90071428D02*
X96631009Y-90033333D01*
X96631009Y-90033333D02*
X96583390Y-89995238D01*
X96583390Y-89995238D02*
X96535771Y-89919047D01*
X96535771Y-89919047D02*
X96535771Y-89766666D01*
X96535771Y-89766666D02*
X96583390Y-89690476D01*
X96583390Y-89690476D02*
X96631009Y-89652381D01*
X96631009Y-89652381D02*
X96726247Y-89614285D01*
X114409580Y-78735714D02*
X114457200Y-78697618D01*
X114457200Y-78697618D02*
X114504819Y-78583333D01*
X114504819Y-78583333D02*
X114504819Y-78507142D01*
X114504819Y-78507142D02*
X114457200Y-78392856D01*
X114457200Y-78392856D02*
X114361961Y-78316666D01*
X114361961Y-78316666D02*
X114266723Y-78278571D01*
X114266723Y-78278571D02*
X114076247Y-78240475D01*
X114076247Y-78240475D02*
X113933390Y-78240475D01*
X113933390Y-78240475D02*
X113742914Y-78278571D01*
X113742914Y-78278571D02*
X113647676Y-78316666D01*
X113647676Y-78316666D02*
X113552438Y-78392856D01*
X113552438Y-78392856D02*
X113504819Y-78507142D01*
X113504819Y-78507142D02*
X113504819Y-78583333D01*
X113504819Y-78583333D02*
X113552438Y-78697618D01*
X113552438Y-78697618D02*
X113600057Y-78735714D01*
X113600057Y-79040475D02*
X113552438Y-79078571D01*
X113552438Y-79078571D02*
X113504819Y-79154761D01*
X113504819Y-79154761D02*
X113504819Y-79345237D01*
X113504819Y-79345237D02*
X113552438Y-79421428D01*
X113552438Y-79421428D02*
X113600057Y-79459523D01*
X113600057Y-79459523D02*
X113695295Y-79497618D01*
X113695295Y-79497618D02*
X113790533Y-79497618D01*
X113790533Y-79497618D02*
X113933390Y-79459523D01*
X113933390Y-79459523D02*
X114504819Y-79002380D01*
X114504819Y-79002380D02*
X114504819Y-79497618D01*
X113504819Y-79992857D02*
X113504819Y-80069047D01*
X113504819Y-80069047D02*
X113552438Y-80145238D01*
X113552438Y-80145238D02*
X113600057Y-80183333D01*
X113600057Y-80183333D02*
X113695295Y-80221428D01*
X113695295Y-80221428D02*
X113885771Y-80259523D01*
X113885771Y-80259523D02*
X114123866Y-80259523D01*
X114123866Y-80259523D02*
X114314342Y-80221428D01*
X114314342Y-80221428D02*
X114409580Y-80183333D01*
X114409580Y-80183333D02*
X114457200Y-80145238D01*
X114457200Y-80145238D02*
X114504819Y-80069047D01*
X114504819Y-80069047D02*
X114504819Y-79992857D01*
X114504819Y-79992857D02*
X114457200Y-79916666D01*
X114457200Y-79916666D02*
X114409580Y-79878571D01*
X114409580Y-79878571D02*
X114314342Y-79840476D01*
X114314342Y-79840476D02*
X114123866Y-79802380D01*
X114123866Y-79802380D02*
X113885771Y-79802380D01*
X113885771Y-79802380D02*
X113695295Y-79840476D01*
X113695295Y-79840476D02*
X113600057Y-79878571D01*
X113600057Y-79878571D02*
X113552438Y-79916666D01*
X113552438Y-79916666D02*
X113504819Y-79992857D01*
X111454819Y-68085714D02*
X110978628Y-67819047D01*
X111454819Y-67628571D02*
X110454819Y-67628571D01*
X110454819Y-67628571D02*
X110454819Y-67933333D01*
X110454819Y-67933333D02*
X110502438Y-68009523D01*
X110502438Y-68009523D02*
X110550057Y-68047618D01*
X110550057Y-68047618D02*
X110645295Y-68085714D01*
X110645295Y-68085714D02*
X110788152Y-68085714D01*
X110788152Y-68085714D02*
X110883390Y-68047618D01*
X110883390Y-68047618D02*
X110931009Y-68009523D01*
X110931009Y-68009523D02*
X110978628Y-67933333D01*
X110978628Y-67933333D02*
X110978628Y-67628571D01*
X110550057Y-68390475D02*
X110502438Y-68428571D01*
X110502438Y-68428571D02*
X110454819Y-68504761D01*
X110454819Y-68504761D02*
X110454819Y-68695237D01*
X110454819Y-68695237D02*
X110502438Y-68771428D01*
X110502438Y-68771428D02*
X110550057Y-68809523D01*
X110550057Y-68809523D02*
X110645295Y-68847618D01*
X110645295Y-68847618D02*
X110740533Y-68847618D01*
X110740533Y-68847618D02*
X110883390Y-68809523D01*
X110883390Y-68809523D02*
X111454819Y-68352380D01*
X111454819Y-68352380D02*
X111454819Y-68847618D01*
X110454819Y-69114285D02*
X110454819Y-69647619D01*
X110454819Y-69647619D02*
X111454819Y-69304761D01*
X87154819Y-78590476D02*
X87964342Y-78590476D01*
X87964342Y-78590476D02*
X88059580Y-78628571D01*
X88059580Y-78628571D02*
X88107200Y-78666666D01*
X88107200Y-78666666D02*
X88154819Y-78742857D01*
X88154819Y-78742857D02*
X88154819Y-78895238D01*
X88154819Y-78895238D02*
X88107200Y-78971428D01*
X88107200Y-78971428D02*
X88059580Y-79009523D01*
X88059580Y-79009523D02*
X87964342Y-79047619D01*
X87964342Y-79047619D02*
X87154819Y-79047619D01*
X87488152Y-79771428D02*
X88154819Y-79771428D01*
X87107200Y-79580952D02*
X87821485Y-79390475D01*
X87821485Y-79390475D02*
X87821485Y-79885714D01*
X141254819Y-91885714D02*
X140778628Y-91619047D01*
X141254819Y-91428571D02*
X140254819Y-91428571D01*
X140254819Y-91428571D02*
X140254819Y-91733333D01*
X140254819Y-91733333D02*
X140302438Y-91809523D01*
X140302438Y-91809523D02*
X140350057Y-91847618D01*
X140350057Y-91847618D02*
X140445295Y-91885714D01*
X140445295Y-91885714D02*
X140588152Y-91885714D01*
X140588152Y-91885714D02*
X140683390Y-91847618D01*
X140683390Y-91847618D02*
X140731009Y-91809523D01*
X140731009Y-91809523D02*
X140778628Y-91733333D01*
X140778628Y-91733333D02*
X140778628Y-91428571D01*
X140350057Y-92190475D02*
X140302438Y-92228571D01*
X140302438Y-92228571D02*
X140254819Y-92304761D01*
X140254819Y-92304761D02*
X140254819Y-92495237D01*
X140254819Y-92495237D02*
X140302438Y-92571428D01*
X140302438Y-92571428D02*
X140350057Y-92609523D01*
X140350057Y-92609523D02*
X140445295Y-92647618D01*
X140445295Y-92647618D02*
X140540533Y-92647618D01*
X140540533Y-92647618D02*
X140683390Y-92609523D01*
X140683390Y-92609523D02*
X141254819Y-92152380D01*
X141254819Y-92152380D02*
X141254819Y-92647618D01*
X140350057Y-92952380D02*
X140302438Y-92990476D01*
X140302438Y-92990476D02*
X140254819Y-93066666D01*
X140254819Y-93066666D02*
X140254819Y-93257142D01*
X140254819Y-93257142D02*
X140302438Y-93333333D01*
X140302438Y-93333333D02*
X140350057Y-93371428D01*
X140350057Y-93371428D02*
X140445295Y-93409523D01*
X140445295Y-93409523D02*
X140540533Y-93409523D01*
X140540533Y-93409523D02*
X140683390Y-93371428D01*
X140683390Y-93371428D02*
X141254819Y-92914285D01*
X141254819Y-92914285D02*
X141254819Y-93409523D01*
X80450057Y-80223809D02*
X80402438Y-80147619D01*
X80402438Y-80147619D02*
X80307200Y-80071428D01*
X80307200Y-80071428D02*
X80164342Y-79957142D01*
X80164342Y-79957142D02*
X80116723Y-79880952D01*
X80116723Y-79880952D02*
X80116723Y-79804761D01*
X80354819Y-79842857D02*
X80307200Y-79766666D01*
X80307200Y-79766666D02*
X80211961Y-79690476D01*
X80211961Y-79690476D02*
X80021485Y-79652380D01*
X80021485Y-79652380D02*
X79688152Y-79652380D01*
X79688152Y-79652380D02*
X79497676Y-79690476D01*
X79497676Y-79690476D02*
X79402438Y-79766666D01*
X79402438Y-79766666D02*
X79354819Y-79842857D01*
X79354819Y-79842857D02*
X79354819Y-79995238D01*
X79354819Y-79995238D02*
X79402438Y-80071428D01*
X79402438Y-80071428D02*
X79497676Y-80147619D01*
X79497676Y-80147619D02*
X79688152Y-80185714D01*
X79688152Y-80185714D02*
X80021485Y-80185714D01*
X80021485Y-80185714D02*
X80211961Y-80147619D01*
X80211961Y-80147619D02*
X80307200Y-80071428D01*
X80307200Y-80071428D02*
X80354819Y-79995238D01*
X80354819Y-79995238D02*
X80354819Y-79842857D01*
X80354819Y-80947618D02*
X80354819Y-80490475D01*
X80354819Y-80719047D02*
X79354819Y-80719047D01*
X79354819Y-80719047D02*
X79497676Y-80642856D01*
X79497676Y-80642856D02*
X79592914Y-80566666D01*
X79592914Y-80566666D02*
X79640533Y-80490475D01*
X83154819Y-71385714D02*
X82678628Y-71119047D01*
X83154819Y-70928571D02*
X82154819Y-70928571D01*
X82154819Y-70928571D02*
X82154819Y-71233333D01*
X82154819Y-71233333D02*
X82202438Y-71309523D01*
X82202438Y-71309523D02*
X82250057Y-71347618D01*
X82250057Y-71347618D02*
X82345295Y-71385714D01*
X82345295Y-71385714D02*
X82488152Y-71385714D01*
X82488152Y-71385714D02*
X82583390Y-71347618D01*
X82583390Y-71347618D02*
X82631009Y-71309523D01*
X82631009Y-71309523D02*
X82678628Y-71233333D01*
X82678628Y-71233333D02*
X82678628Y-70928571D01*
X83154819Y-72147618D02*
X83154819Y-71690475D01*
X83154819Y-71919047D02*
X82154819Y-71919047D01*
X82154819Y-71919047D02*
X82297676Y-71842856D01*
X82297676Y-71842856D02*
X82392914Y-71766666D01*
X82392914Y-71766666D02*
X82440533Y-71690475D01*
X82250057Y-72452380D02*
X82202438Y-72490476D01*
X82202438Y-72490476D02*
X82154819Y-72566666D01*
X82154819Y-72566666D02*
X82154819Y-72757142D01*
X82154819Y-72757142D02*
X82202438Y-72833333D01*
X82202438Y-72833333D02*
X82250057Y-72871428D01*
X82250057Y-72871428D02*
X82345295Y-72909523D01*
X82345295Y-72909523D02*
X82440533Y-72909523D01*
X82440533Y-72909523D02*
X82583390Y-72871428D01*
X82583390Y-72871428D02*
X83154819Y-72414285D01*
X83154819Y-72414285D02*
X83154819Y-72909523D01*
X82804819Y-91985714D02*
X82328628Y-91719047D01*
X82804819Y-91528571D02*
X81804819Y-91528571D01*
X81804819Y-91528571D02*
X81804819Y-91833333D01*
X81804819Y-91833333D02*
X81852438Y-91909523D01*
X81852438Y-91909523D02*
X81900057Y-91947618D01*
X81900057Y-91947618D02*
X81995295Y-91985714D01*
X81995295Y-91985714D02*
X82138152Y-91985714D01*
X82138152Y-91985714D02*
X82233390Y-91947618D01*
X82233390Y-91947618D02*
X82281009Y-91909523D01*
X82281009Y-91909523D02*
X82328628Y-91833333D01*
X82328628Y-91833333D02*
X82328628Y-91528571D01*
X82804819Y-92747618D02*
X82804819Y-92290475D01*
X82804819Y-92519047D02*
X81804819Y-92519047D01*
X81804819Y-92519047D02*
X81947676Y-92442856D01*
X81947676Y-92442856D02*
X82042914Y-92366666D01*
X82042914Y-92366666D02*
X82090533Y-92290475D01*
X81804819Y-93471428D02*
X81804819Y-93090476D01*
X81804819Y-93090476D02*
X82281009Y-93052380D01*
X82281009Y-93052380D02*
X82233390Y-93090476D01*
X82233390Y-93090476D02*
X82185771Y-93166666D01*
X82185771Y-93166666D02*
X82185771Y-93357142D01*
X82185771Y-93357142D02*
X82233390Y-93433333D01*
X82233390Y-93433333D02*
X82281009Y-93471428D01*
X82281009Y-93471428D02*
X82376247Y-93509523D01*
X82376247Y-93509523D02*
X82614342Y-93509523D01*
X82614342Y-93509523D02*
X82709580Y-93471428D01*
X82709580Y-93471428D02*
X82757200Y-93433333D01*
X82757200Y-93433333D02*
X82804819Y-93357142D01*
X82804819Y-93357142D02*
X82804819Y-93166666D01*
X82804819Y-93166666D02*
X82757200Y-93090476D01*
X82757200Y-93090476D02*
X82709580Y-93052380D01*
X108459580Y-78773214D02*
X108507200Y-78735118D01*
X108507200Y-78735118D02*
X108554819Y-78620833D01*
X108554819Y-78620833D02*
X108554819Y-78544642D01*
X108554819Y-78544642D02*
X108507200Y-78430356D01*
X108507200Y-78430356D02*
X108411961Y-78354166D01*
X108411961Y-78354166D02*
X108316723Y-78316071D01*
X108316723Y-78316071D02*
X108126247Y-78277975D01*
X108126247Y-78277975D02*
X107983390Y-78277975D01*
X107983390Y-78277975D02*
X107792914Y-78316071D01*
X107792914Y-78316071D02*
X107697676Y-78354166D01*
X107697676Y-78354166D02*
X107602438Y-78430356D01*
X107602438Y-78430356D02*
X107554819Y-78544642D01*
X107554819Y-78544642D02*
X107554819Y-78620833D01*
X107554819Y-78620833D02*
X107602438Y-78735118D01*
X107602438Y-78735118D02*
X107650057Y-78773214D01*
X107554819Y-79039880D02*
X107554819Y-79535118D01*
X107554819Y-79535118D02*
X107935771Y-79268452D01*
X107935771Y-79268452D02*
X107935771Y-79382737D01*
X107935771Y-79382737D02*
X107983390Y-79458928D01*
X107983390Y-79458928D02*
X108031009Y-79497023D01*
X108031009Y-79497023D02*
X108126247Y-79535118D01*
X108126247Y-79535118D02*
X108364342Y-79535118D01*
X108364342Y-79535118D02*
X108459580Y-79497023D01*
X108459580Y-79497023D02*
X108507200Y-79458928D01*
X108507200Y-79458928D02*
X108554819Y-79382737D01*
X108554819Y-79382737D02*
X108554819Y-79154166D01*
X108554819Y-79154166D02*
X108507200Y-79077975D01*
X108507200Y-79077975D02*
X108459580Y-79039880D01*
X107888152Y-80220833D02*
X108554819Y-80220833D01*
X107507200Y-80030357D02*
X108221485Y-79839880D01*
X108221485Y-79839880D02*
X108221485Y-80335119D01*
X139759580Y-71085714D02*
X139807200Y-71047618D01*
X139807200Y-71047618D02*
X139854819Y-70933333D01*
X139854819Y-70933333D02*
X139854819Y-70857142D01*
X139854819Y-70857142D02*
X139807200Y-70742856D01*
X139807200Y-70742856D02*
X139711961Y-70666666D01*
X139711961Y-70666666D02*
X139616723Y-70628571D01*
X139616723Y-70628571D02*
X139426247Y-70590475D01*
X139426247Y-70590475D02*
X139283390Y-70590475D01*
X139283390Y-70590475D02*
X139092914Y-70628571D01*
X139092914Y-70628571D02*
X138997676Y-70666666D01*
X138997676Y-70666666D02*
X138902438Y-70742856D01*
X138902438Y-70742856D02*
X138854819Y-70857142D01*
X138854819Y-70857142D02*
X138854819Y-70933333D01*
X138854819Y-70933333D02*
X138902438Y-71047618D01*
X138902438Y-71047618D02*
X138950057Y-71085714D01*
X139854819Y-71847618D02*
X139854819Y-71390475D01*
X139854819Y-71619047D02*
X138854819Y-71619047D01*
X138854819Y-71619047D02*
X138997676Y-71542856D01*
X138997676Y-71542856D02*
X139092914Y-71466666D01*
X139092914Y-71466666D02*
X139140533Y-71390475D01*
X139188152Y-72533333D02*
X139854819Y-72533333D01*
X138807200Y-72342857D02*
X139521485Y-72152380D01*
X139521485Y-72152380D02*
X139521485Y-72647619D01*
D13*
%TO.C,J3*%
X136490000Y-61720000D02*
X136490000Y-66920000D01*
X85570000Y-61720000D02*
X136490000Y-61720000D01*
X85570000Y-61720000D02*
X85570000Y-64320000D01*
X88170000Y-64320000D02*
X88170000Y-66920000D01*
X85570000Y-64320000D02*
X88170000Y-64320000D01*
X85570000Y-65590000D02*
X85570000Y-66920000D01*
X88170000Y-66920000D02*
X136490000Y-66920000D01*
X85570000Y-66920000D02*
X86900000Y-66920000D01*
%TO.C,R2*%
X103727064Y-69235000D02*
X103272936Y-69235000D01*
X103727064Y-67765000D02*
X103272936Y-67765000D01*
%TO.C,R3*%
X131072936Y-67865000D02*
X131527064Y-67865000D01*
X131072936Y-69335000D02*
X131527064Y-69335000D01*
%TO.C,R4*%
X124472936Y-67865000D02*
X124927064Y-67865000D01*
X124472936Y-69335000D02*
X124927064Y-69335000D01*
%TO.C,R5*%
X127265000Y-69727064D02*
X127265000Y-69272936D01*
X128735000Y-69727064D02*
X128735000Y-69272936D01*
%TO.C,C2*%
X83765000Y-95781252D02*
X83765000Y-95258748D01*
X85235000Y-95781252D02*
X85235000Y-95258748D01*
%TO.C,C3*%
X118061252Y-70735000D02*
X117538748Y-70735000D01*
X118061252Y-69265000D02*
X117538748Y-69265000D01*
%TO.C,C5*%
X117761252Y-78035000D02*
X117238748Y-78035000D01*
X117761252Y-76565000D02*
X117238748Y-76565000D01*
%TO.C,C7*%
X130048752Y-77235000D02*
X129526248Y-77235000D01*
X130048752Y-75765000D02*
X129526248Y-75765000D01*
%TO.C,U1*%
X120490000Y-71490000D02*
X120490000Y-71965000D01*
X120965000Y-71490000D02*
X120490000Y-71490000D01*
X120965000Y-76710000D02*
X120490000Y-76710000D01*
X125235000Y-71490000D02*
X125710000Y-71490000D01*
X125235000Y-76710000D02*
X125710000Y-76710000D01*
X125710000Y-71490000D02*
X125710000Y-71965000D01*
X125710000Y-76710000D02*
X125710000Y-76235000D01*
%TO.C,C8*%
X129488748Y-73515000D02*
X130011252Y-73515000D01*
X129488748Y-74985000D02*
X130011252Y-74985000D01*
%TO.C,C12*%
X90165000Y-72523752D02*
X90165000Y-72001248D01*
X91635000Y-72523752D02*
X91635000Y-72001248D01*
%TO.C,C32*%
X81798752Y-78935000D02*
X81276248Y-78935000D01*
X81798752Y-77465000D02*
X81276248Y-77465000D01*
%TO.C,R11*%
X79890000Y-71077064D02*
X79890000Y-69622936D01*
X81710000Y-71077064D02*
X81710000Y-69622936D01*
%TO.C,C13*%
X125510000Y-83988748D02*
X125510000Y-85411252D01*
X123690000Y-83988748D02*
X123690000Y-85411252D01*
%TO.C,C31*%
X90055000Y-76961252D02*
X90055000Y-76438748D01*
X91525000Y-76961252D02*
X91525000Y-76438748D01*
%TO.C,R24*%
X117235000Y-82172936D02*
X117235000Y-82627064D01*
X115765000Y-82172936D02*
X115765000Y-82627064D01*
%TO.C,FB1*%
X86290000Y-87236252D02*
X86290000Y-86713748D01*
X87710000Y-87236252D02*
X87710000Y-86713748D01*
%TO.C,C35*%
X83988748Y-68090000D02*
X85411252Y-68090000D01*
X83988748Y-69910000D02*
X85411252Y-69910000D01*
%TO.C,C29*%
X137865000Y-95781252D02*
X137865000Y-95258748D01*
X139335000Y-95781252D02*
X139335000Y-95258748D01*
%TO.C,R30*%
X104935000Y-82210436D02*
X104935000Y-82664564D01*
X103465000Y-82210436D02*
X103465000Y-82664564D01*
%TO.C,R13*%
X93627064Y-69235000D02*
X93172936Y-69235000D01*
X93627064Y-67765000D02*
X93172936Y-67765000D01*
%TO.C,R9*%
X89835000Y-86772936D02*
X89835000Y-87227064D01*
X88365000Y-86772936D02*
X88365000Y-87227064D01*
%TO.C,R26*%
X98272936Y-67765000D02*
X98727064Y-67765000D01*
X98272936Y-69235000D02*
X98727064Y-69235000D01*
%TO.C,C30*%
X127265000Y-87191252D02*
X127265000Y-86668748D01*
X128735000Y-87191252D02*
X128735000Y-86668748D01*
%TO.C,C21*%
X96335000Y-82138748D02*
X96335000Y-82661252D01*
X94865000Y-82138748D02*
X94865000Y-82661252D01*
%TO.C,C11*%
X119888748Y-83990000D02*
X121311252Y-83990000D01*
X119888748Y-85810000D02*
X121311252Y-85810000D01*
%TO.C,FB2*%
X103490000Y-87136252D02*
X103490000Y-86613748D01*
X104910000Y-87136252D02*
X104910000Y-86613748D01*
%TO.C,C16*%
X135111252Y-85510000D02*
X133688748Y-85510000D01*
X135111252Y-83690000D02*
X133688748Y-83690000D01*
%TO.C,R25*%
X88365000Y-95777064D02*
X88365000Y-95322936D01*
X89835000Y-95777064D02*
X89835000Y-95322936D01*
%TO.C,R28*%
X94135000Y-86772936D02*
X94135000Y-87227064D01*
X92665000Y-86772936D02*
X92665000Y-87227064D01*
%TO.C,R7*%
X111135000Y-82172936D02*
X111135000Y-82627064D01*
X109665000Y-82172936D02*
X109665000Y-82627064D01*
%TO.C,R23*%
X129665000Y-87127064D02*
X129665000Y-86672936D01*
X131135000Y-87127064D02*
X131135000Y-86672936D01*
%TO.C,C17*%
X131460000Y-81638748D02*
X131460000Y-83061252D01*
X129640000Y-81638748D02*
X129640000Y-83061252D01*
%TO.C,C33*%
X102535000Y-82138748D02*
X102535000Y-82661252D01*
X101065000Y-82138748D02*
X101065000Y-82661252D01*
%TO.C,C9*%
X116165000Y-87191252D02*
X116165000Y-86668748D01*
X117635000Y-87191252D02*
X117635000Y-86668748D01*
%TO.C,R6*%
X113965000Y-87127064D02*
X113965000Y-86672936D01*
X115435000Y-87127064D02*
X115435000Y-86672936D01*
%TO.C,C15*%
X138238748Y-75640000D02*
X139661252Y-75640000D01*
X138238748Y-77460000D02*
X139661252Y-77460000D01*
%TO.C,R14*%
X89627064Y-69235000D02*
X89172936Y-69235000D01*
X89627064Y-67765000D02*
X89172936Y-67765000D01*
%TO.C,R29*%
X102735000Y-86672936D02*
X102735000Y-87127064D01*
X101265000Y-86672936D02*
X101265000Y-87127064D01*
%TO.C,FB7*%
X90590000Y-87261252D02*
X90590000Y-86738748D01*
X92010000Y-87261252D02*
X92010000Y-86738748D01*
%TO.C,R31*%
X98935000Y-82172936D02*
X98935000Y-82627064D01*
X97465000Y-82172936D02*
X97465000Y-82627064D01*
%TO.C,FB3*%
X85561252Y-74610000D02*
X85038748Y-74610000D01*
X85561252Y-73190000D02*
X85038748Y-73190000D01*
%TO.C,C22*%
X87640000Y-73011252D02*
X87640000Y-71588748D01*
X89460000Y-73011252D02*
X89460000Y-71588748D01*
%TO.C,R10*%
X107135000Y-86672936D02*
X107135000Y-87127064D01*
X105665000Y-86672936D02*
X105665000Y-87127064D01*
%TO.C,R8*%
X92735000Y-82172936D02*
X92735000Y-82627064D01*
X91265000Y-82172936D02*
X91265000Y-82627064D01*
%TO.C,FB6*%
X99190000Y-87161252D02*
X99190000Y-86638748D01*
X100610000Y-87161252D02*
X100610000Y-86638748D01*
%TO.C,C20*%
X114735000Y-82138748D02*
X114735000Y-82661252D01*
X113265000Y-82138748D02*
X113265000Y-82661252D01*
%TO.C,R27*%
X108727064Y-69235000D02*
X108272936Y-69235000D01*
X108727064Y-67765000D02*
X108272936Y-67765000D01*
%TO.C,U4*%
X85620000Y-75190000D02*
X87380000Y-75190000D01*
X87380000Y-78260000D02*
X84950000Y-78260000D01*
%TO.C,R22*%
X140015000Y-95777064D02*
X140015000Y-95322936D01*
X141485000Y-95777064D02*
X141485000Y-95322936D01*
%TO.C,Q1*%
X79820000Y-74140000D02*
X79820000Y-75600000D01*
X79820000Y-74140000D02*
X80750000Y-74140000D01*
X82980000Y-74140000D02*
X82980000Y-76300000D01*
X82980000Y-74140000D02*
X82050000Y-74140000D01*
%TO.C,R12*%
X85527064Y-72335000D02*
X85072936Y-72335000D01*
X85527064Y-70865000D02*
X85072936Y-70865000D01*
%TO.C,R15*%
X81515000Y-95777064D02*
X81515000Y-95322936D01*
X82985000Y-95777064D02*
X82985000Y-95322936D01*
%TO.C,C34*%
X108735000Y-82176248D02*
X108735000Y-82698752D01*
X107265000Y-82176248D02*
X107265000Y-82698752D01*
%TO.C,C14*%
X138238748Y-73140000D02*
X139661252Y-73140000D01*
X138238748Y-74960000D02*
X139661252Y-74960000D01*
%TD*%
%LPC*%
D14*
X92500000Y-74000000D02*
X92500000Y-71000000D01*
X98100000Y-90000000D02*
X98100000Y-84950000D01*
X108500000Y-71000000D02*
X109000000Y-70500000D01*
X92500000Y-71000000D02*
X93250000Y-70250000D01*
X123800000Y-89100000D02*
X123800000Y-90000000D01*
X115000000Y-70500000D02*
X116500000Y-72000000D01*
X98350000Y-99500000D02*
X98350000Y-93500000D01*
X93250000Y-70250000D02*
X99250000Y-70250000D01*
X112100000Y-85200000D02*
X111300000Y-86000000D01*
X100000000Y-71000000D02*
X108500000Y-71000000D01*
X99250000Y-70250000D02*
X100000000Y-71000000D01*
X124150000Y-93000000D02*
X124150000Y-97000000D01*
X111250000Y-99500000D02*
X111250000Y-94500000D01*
X125500000Y-87800000D02*
X125100000Y-87800000D01*
X111300000Y-87700000D02*
X110300000Y-88700000D01*
X124150000Y-98750000D02*
X124150000Y-99750000D01*
X116500000Y-72000000D02*
X118500000Y-72000000D01*
X111300000Y-86000000D02*
X111300000Y-87700000D01*
X109000000Y-70500000D02*
X115000000Y-70500000D01*
X125100000Y-87800000D02*
X123800000Y-89100000D01*
X110300000Y-88700000D02*
X110300000Y-89600000D01*
D15*
%TO.C,J2*%
X125600000Y-96600000D03*
X125600000Y-99100000D03*
D16*
X130600000Y-91400000D03*
D15*
X135600000Y-96600000D03*
X135600000Y-99100000D03*
D17*
X125400000Y-91000000D03*
D18*
X128100000Y-91600000D03*
D19*
X130600000Y-96400000D03*
D20*
X130600000Y-98300000D03*
D21*
X135200000Y-94400000D03*
D22*
X135600000Y-91600000D03*
X133100000Y-91600000D03*
D23*
X134700000Y-87100000D03*
%TD*%
D15*
%TO.C,J1*%
X86900000Y-96600000D03*
X86900000Y-99100000D03*
D16*
X91900000Y-91400000D03*
D15*
X96900000Y-96600000D03*
X96900000Y-99100000D03*
D17*
X86700000Y-91000000D03*
D18*
X89400000Y-91600000D03*
D19*
X91900000Y-96400000D03*
D20*
X91900000Y-98300000D03*
D21*
X96500000Y-94400000D03*
D22*
X96900000Y-91600000D03*
X94400000Y-91600000D03*
D23*
X96000000Y-87100000D03*
%TD*%
D24*
%TO.C,C37*%
X100000000Y-83300000D03*
X100000000Y-78300000D03*
X100000000Y-75800000D03*
%TD*%
D25*
%TO.C,H5*%
X82000000Y-87300000D03*
%TD*%
%TO.C,H1*%
X82000000Y-64300000D03*
%TD*%
D24*
%TO.C,C38*%
X106100000Y-83300000D03*
X106100000Y-78300000D03*
X106100000Y-75800000D03*
%TD*%
D26*
%TO.C,CP4*%
X121402651Y-81000000D03*
D27*
X121136494Y-82420264D03*
D28*
X119363324Y-79419756D03*
D29*
X118902651Y-81000000D03*
%TD*%
D15*
%TO.C,J5*%
X112700000Y-96600000D03*
X112700000Y-99100000D03*
D16*
X117700000Y-91400000D03*
D15*
X122700000Y-96600000D03*
X122700000Y-99100000D03*
D17*
X112500000Y-91000000D03*
D18*
X115200000Y-91600000D03*
D19*
X117700000Y-96400000D03*
D20*
X117700000Y-98300000D03*
D21*
X122300000Y-94400000D03*
D22*
X122700000Y-91600000D03*
X120200000Y-91600000D03*
D23*
X121800000Y-87100000D03*
%TD*%
D24*
%TO.C,C19*%
X112200000Y-83300000D03*
X112200000Y-78300000D03*
X112200000Y-75800000D03*
%TD*%
D30*
%TO.C,CP2*%
X135100000Y-73700000D03*
D31*
X133679736Y-73433843D03*
D32*
X136680244Y-71660673D03*
D33*
X135100000Y-71200000D03*
%TD*%
D24*
%TO.C,C36*%
X128000000Y-78300000D03*
X128000000Y-83300000D03*
%TD*%
D34*
%TO.C,CP1*%
X135350000Y-79800000D03*
D35*
X136770264Y-80066157D03*
D36*
X133769756Y-81839327D03*
D37*
X135350000Y-82300000D03*
%TD*%
D25*
%TO.C,H6*%
X140000000Y-87300000D03*
%TD*%
%TO.C,H2*%
X140000000Y-64300000D03*
%TD*%
D24*
%TO.C,C18*%
X93850000Y-83300000D03*
X93850000Y-78300000D03*
X93850000Y-75800000D03*
%TD*%
D38*
%TO.C,CP3*%
X85300000Y-81019756D03*
D39*
X85566157Y-79599492D03*
D40*
X87339327Y-82600000D03*
D41*
X87800000Y-81019756D03*
%TD*%
D15*
%TO.C,J7*%
X99800000Y-96600000D03*
X99800000Y-99100000D03*
D16*
X104800000Y-91400000D03*
D15*
X109800000Y-96600000D03*
X109800000Y-99100000D03*
D17*
X99600000Y-91000000D03*
D18*
X102300000Y-91600000D03*
D19*
X104800000Y-96400000D03*
D20*
X104800000Y-98300000D03*
D21*
X109400000Y-94400000D03*
D22*
X109800000Y-91600000D03*
X107300000Y-91600000D03*
D23*
X108900000Y-87100000D03*
%TD*%
D42*
%TO.C,J3*%
X86900000Y-65590000D03*
D43*
X86900000Y-63050000D03*
X89440000Y-65590000D03*
X89440000Y-63050000D03*
X91980000Y-65590000D03*
X91980000Y-63050000D03*
X94520000Y-65590000D03*
X94520000Y-63050000D03*
X97060000Y-65590000D03*
X97060000Y-63050000D03*
X99600000Y-65590000D03*
X99600000Y-63050000D03*
X102140000Y-65590000D03*
X102140000Y-63050000D03*
X104680000Y-65590000D03*
X104680000Y-63050000D03*
X107220000Y-65590000D03*
X107220000Y-63050000D03*
X109760000Y-65590000D03*
X109760000Y-63050000D03*
X112300000Y-65590000D03*
X112300000Y-63050000D03*
X114840000Y-65590000D03*
X114840000Y-63050000D03*
X117380000Y-65590000D03*
X117380000Y-63050000D03*
X119920000Y-65590000D03*
X119920000Y-63050000D03*
X122460000Y-65590000D03*
X122460000Y-63050000D03*
X125000000Y-65590000D03*
X125000000Y-63050000D03*
X127540000Y-65590000D03*
X127540000Y-63050000D03*
X130080000Y-65590000D03*
X130080000Y-63050000D03*
X132620000Y-65590000D03*
X132620000Y-63050000D03*
X135160000Y-65590000D03*
X135160000Y-63050000D03*
%TD*%
D44*
%TO.C,R2*%
X104500000Y-68500000D03*
X102500000Y-68500000D03*
%TD*%
D45*
%TO.C,R3*%
X130300000Y-68600000D03*
X132300000Y-68600000D03*
%TD*%
%TO.C,R4*%
X123700000Y-68600000D03*
X125700000Y-68600000D03*
%TD*%
D46*
%TO.C,R5*%
X128000000Y-70500000D03*
X128000000Y-68500000D03*
%TD*%
D47*
%TO.C,C2*%
X84500000Y-96557500D03*
X84500000Y-94482500D03*
%TD*%
D48*
%TO.C,C3*%
X118837500Y-70000000D03*
X116762500Y-70000000D03*
%TD*%
%TO.C,C5*%
X118537500Y-77300000D03*
X116462500Y-77300000D03*
%TD*%
%TO.C,C7*%
X130825000Y-76500000D03*
X128750000Y-76500000D03*
%TD*%
D49*
%TO.C,U1*%
X120550000Y-75850000D03*
D50*
X120550000Y-75350000D03*
X120550000Y-74850000D03*
X120550000Y-74350000D03*
X120550000Y-73850000D03*
X120550000Y-73350000D03*
X120550000Y-72850000D03*
D51*
X120550000Y-72350000D03*
D52*
X121350000Y-71550000D03*
D53*
X121850000Y-71550000D03*
X122350000Y-71550000D03*
X122850000Y-71550000D03*
X123350000Y-71550000D03*
X123850000Y-71550000D03*
X124350000Y-71550000D03*
D54*
X124850000Y-71550000D03*
D55*
X125650000Y-72350000D03*
D50*
X125650000Y-72850000D03*
X125650000Y-73350000D03*
X125650000Y-73850000D03*
X125650000Y-74350000D03*
X125650000Y-74850000D03*
X125650000Y-75350000D03*
D56*
X125650000Y-75850000D03*
D57*
X124850000Y-76650000D03*
D53*
X124350000Y-76650000D03*
X123850000Y-76650000D03*
X123350000Y-76650000D03*
X122850000Y-76650000D03*
X122350000Y-76650000D03*
X121850000Y-76650000D03*
D58*
X121350000Y-76650000D03*
D59*
X122100000Y-73100000D03*
X122100000Y-74100000D03*
X122100000Y-75100000D03*
X123100000Y-73100000D03*
X123100000Y-74100000D03*
D60*
X123100000Y-74100000D03*
D59*
X123100000Y-75100000D03*
X124100000Y-73100000D03*
X124100000Y-74100000D03*
X124100000Y-75100000D03*
%TD*%
D61*
%TO.C,C8*%
X128712500Y-74250000D03*
X130787500Y-74250000D03*
%TD*%
D47*
%TO.C,C12*%
X90900000Y-73300000D03*
X90900000Y-71225000D03*
%TD*%
D48*
%TO.C,C32*%
X82575000Y-78200000D03*
X80500000Y-78200000D03*
%TD*%
D62*
%TO.C,R11*%
X80800000Y-71900000D03*
X80800000Y-68800000D03*
%TD*%
D63*
%TO.C,C13*%
X124600000Y-83137500D03*
X124600000Y-86262500D03*
%TD*%
D47*
%TO.C,C31*%
X90790000Y-77737500D03*
X90790000Y-75662500D03*
%TD*%
D64*
%TO.C,R24*%
X116500000Y-81400000D03*
X116500000Y-83400000D03*
%TD*%
D65*
%TO.C,FB1*%
X87000000Y-88000000D03*
X87000000Y-85950000D03*
%TD*%
D66*
%TO.C,C35*%
X83137500Y-69000000D03*
X86262500Y-69000000D03*
%TD*%
D47*
%TO.C,C29*%
X138600000Y-96557500D03*
X138600000Y-94482500D03*
%TD*%
D64*
%TO.C,R30*%
X104200000Y-81437500D03*
X104200000Y-83437500D03*
%TD*%
D44*
%TO.C,R13*%
X94400000Y-68500000D03*
X92400000Y-68500000D03*
%TD*%
D64*
%TO.C,R9*%
X89100000Y-86000000D03*
X89100000Y-88000000D03*
%TD*%
D45*
%TO.C,R26*%
X97500000Y-68500000D03*
X99500000Y-68500000D03*
%TD*%
D47*
%TO.C,C30*%
X128000000Y-87967500D03*
X128000000Y-85892500D03*
%TD*%
D67*
%TO.C,C21*%
X95600000Y-81362500D03*
X95600000Y-83437500D03*
%TD*%
D66*
%TO.C,C11*%
X119037500Y-84900000D03*
X122162500Y-84900000D03*
%TD*%
D65*
%TO.C,FB2*%
X104200000Y-87900000D03*
X104200000Y-85850000D03*
%TD*%
D68*
%TO.C,C16*%
X135962500Y-84600000D03*
X132837500Y-84600000D03*
%TD*%
D46*
%TO.C,R25*%
X89100000Y-96550000D03*
X89100000Y-94550000D03*
%TD*%
D64*
%TO.C,R28*%
X93400000Y-86000000D03*
X93400000Y-88000000D03*
%TD*%
%TO.C,R7*%
X110400000Y-81400000D03*
X110400000Y-83400000D03*
%TD*%
D46*
%TO.C,R23*%
X130400000Y-87900000D03*
X130400000Y-85900000D03*
%TD*%
D63*
%TO.C,C17*%
X130550000Y-80787500D03*
X130550000Y-83912500D03*
%TD*%
D67*
%TO.C,C33*%
X101800000Y-81362500D03*
X101800000Y-83437500D03*
%TD*%
D47*
%TO.C,C9*%
X116900000Y-87967500D03*
X116900000Y-85892500D03*
%TD*%
D46*
%TO.C,R6*%
X114700000Y-87900000D03*
X114700000Y-85900000D03*
%TD*%
D66*
%TO.C,C15*%
X137387500Y-76550000D03*
X140512500Y-76550000D03*
%TD*%
D44*
%TO.C,R14*%
X90400000Y-68500000D03*
X88400000Y-68500000D03*
%TD*%
D64*
%TO.C,R29*%
X102000000Y-85900000D03*
X102000000Y-87900000D03*
%TD*%
D65*
%TO.C,FB7*%
X91300000Y-88025000D03*
X91300000Y-85975000D03*
%TD*%
D64*
%TO.C,R31*%
X98200000Y-81400000D03*
X98200000Y-83400000D03*
%TD*%
D69*
%TO.C,FB3*%
X86325000Y-73900000D03*
X84275000Y-73900000D03*
%TD*%
D70*
%TO.C,C22*%
X88550000Y-73862500D03*
X88550000Y-70737500D03*
%TD*%
D64*
%TO.C,R10*%
X106400000Y-85900000D03*
X106400000Y-87900000D03*
%TD*%
%TO.C,R8*%
X92000000Y-81400000D03*
X92000000Y-83400000D03*
%TD*%
D65*
%TO.C,FB6*%
X99900000Y-87925000D03*
X99900000Y-85875000D03*
%TD*%
D67*
%TO.C,C20*%
X114000000Y-81362500D03*
X114000000Y-83437500D03*
%TD*%
D44*
%TO.C,R27*%
X109500000Y-68500000D03*
X107500000Y-68500000D03*
%TD*%
D71*
%TO.C,U4*%
X84790000Y-77700000D03*
X84790000Y-76750000D03*
X84790000Y-75800000D03*
X88210000Y-75800000D03*
X88210000Y-77700000D03*
%TD*%
D46*
%TO.C,R22*%
X140750000Y-96550000D03*
X140750000Y-94550000D03*
%TD*%
D72*
%TO.C,Q1*%
X82350000Y-76000000D03*
X80450000Y-76000000D03*
X81400000Y-73800000D03*
%TD*%
D44*
%TO.C,R12*%
X86300000Y-71600000D03*
X84300000Y-71600000D03*
%TD*%
D46*
%TO.C,R15*%
X82250000Y-96550000D03*
X82250000Y-94550000D03*
%TD*%
D67*
%TO.C,C34*%
X108000000Y-81400000D03*
X108000000Y-83475000D03*
%TD*%
D66*
%TO.C,C14*%
X137387500Y-74050000D03*
X140512500Y-74050000D03*
%TD*%
%LPD*%
M02*
