M48
; DRILL file {KiCad 7.0.9-7.0.9~ubuntu22.04.1} date lun 11 dic 2023 10:38:19
; FORMAT={-:-/ absolute / inch / decimal}
; #@! TF.CreationDate,2023-12-11T10:38:19-03:00
; #@! TF.GenerationSoftware,Kicad,Pcbnew,7.0.9-7.0.9~ubuntu22.04.1
; #@! TF.FileFunction,NonPlated,1,2,NPTH
FMAT,2
INCH
; #@! TA.AperFunction,NonPlated,NPTH,ComponentDrill
T1C0.0472
; #@! TA.AperFunction,NonPlated,NPTH,ComponentDrill
T2C0.0591
; #@! TA.AperFunction,NonPlated,NPTH,ComponentDrill
T3C0.1260
%
G90
G05
T1
X3.4213Y-3.8031
X3.4213Y-3.9016
X3.815Y-3.8031
X3.815Y-3.9016
X3.9291Y-3.8031
X3.9291Y-3.9016
X4.3228Y-3.8031
X4.3228Y-3.9016
X4.437Y-3.8031
X4.437Y-3.9016
X4.8307Y-3.8031
X4.8307Y-3.9016
X4.9449Y-3.8031
X4.9449Y-3.9016
X5.3386Y-3.8031
X5.3386Y-3.9016
T2
X3.6181Y-3.5984
X4.126Y-3.5984
X4.6339Y-3.5984
X5.1417Y-3.5984
T3
X3.2283Y-2.5315
X3.2283Y-3.437
X5.5118Y-2.5315
X5.5118Y-3.437
T0
M30
