M48
; DRILL file {KiCad 7.0.9-7.0.9~ubuntu22.04.1} date lun 11 dic 2023 10:38:19
; FORMAT={-:-/ absolute / inch / decimal}
; #@! TF.CreationDate,2023-12-11T10:38:19-03:00
; #@! TF.GenerationSoftware,Kicad,Pcbnew,7.0.9-7.0.9~ubuntu22.04.1
; #@! TF.FileFunction,Plated,1,2,PTH
FMAT,2
INCH
; #@! TA.AperFunction,Plated,PTH,ViaDrill
T1C0.0197
; #@! TA.AperFunction,Plated,PTH,ComponentDrill
T2C0.0197
; #@! TA.AperFunction,Plated,PTH,ComponentDrill
T3C0.0315
; #@! TA.AperFunction,Plated,PTH,ComponentDrill
T4C0.0394
; #@! TA.AperFunction,Plated,PTH,ComponentDrill
T5C0.0591
%
G90
G05
T1
X3.1791Y-3.7559
X3.1929Y-3.1496
X3.1929Y-3.189
X3.315Y-3.8622
X3.3169Y-3.6614
X3.3857Y-2.652
X3.4094Y-3.0197
X3.4094Y-3.7338
X3.622Y-3.6811
X3.6378Y-2.9528
X3.6417Y-2.7953
X3.6417Y-2.8346
X3.6417Y-2.874
X3.6417Y-2.9134
X3.6654Y-3.5315
X3.6713Y-2.7657
X3.6924Y-3.2004
X3.7106Y-2.7657
X3.75Y-2.7657
X3.7894Y-2.7657
X3.815Y-3.1142
X3.8287Y-2.7657
X3.8622Y-3.3465
X3.8622Y-3.3858
X3.8622Y-3.4252
X3.8622Y-3.4646
X3.8622Y-3.5039
X3.8622Y-3.5433
X3.8681Y-2.7657
X3.872Y-3.6811
X3.872Y-3.7205
X3.872Y-3.7598
X3.872Y-3.7992
X3.872Y-3.8386
X3.872Y-3.878
X3.872Y-3.9173
X3.9075Y-2.7657
X3.937Y-2.7953
X3.9372Y-3.2004
X3.9764Y-2.7953
X4.0157Y-2.7953
X4.0551Y-2.7953
X4.0551Y-3.0315
X4.0551Y-3.0709
X4.0551Y-3.1142
X4.0748Y-2.9921
X4.0866Y-3.5236
X4.0945Y-2.7953
X4.1063Y-2.9606
X4.1339Y-2.7953
X4.1732Y-2.7953
X4.1754Y-3.2004
X4.2126Y-2.7953
X4.2323Y-2.9429
X4.252Y-2.7953
X4.2815Y-2.9429
X4.2913Y-2.7756
X4.2992Y-3.1142
X4.3301Y-2.9423
X4.3307Y-2.7756
X4.3425Y-3.5276
X4.3465Y-3.4882
X4.3701Y-2.7756
X4.374Y-3.4606
X4.3799Y-3.7205
X4.3799Y-3.7598
X4.3799Y-3.7992
X4.3799Y-3.8386
X4.3799Y-3.878
X4.3799Y-3.9173
X4.3819Y-3.4213
X4.3858Y-3.3819
X4.4094Y-2.7756
X4.4134Y-3.2004
X4.4134Y-3.3543
X4.4488Y-2.7756
X4.4882Y-2.7756
X4.5177Y-3.0315
X4.5276Y-2.7756
X4.5551Y-2.9843
X4.5571Y-2.8051
X4.563Y-3.1142
X4.5866Y-2.8345
X4.5909Y-3.6657
X4.6102Y-2.9843
X4.6246Y-3.1569
X4.626Y-2.8345
X4.6653Y-2.8345
X4.6772Y-3.4882
X4.7205Y-3.0591
X4.7359Y-2.8051
X4.7598Y-3.0787
X4.813Y-2.6673
X4.8364Y-3.0966
X4.874Y-3.5433
X4.878Y-3.5039
X4.8878Y-3.6614
X4.8878Y-3.7008
X4.8878Y-3.7402
X4.8878Y-3.7795
X4.8878Y-3.8189
X4.8878Y-3.888
X4.8878Y-3.9272
X4.9055Y-3.4764
X4.937Y-3.6909
X4.9409Y-3.4567
X4.9508Y-2.7833
X4.9528Y-3.1417
X4.9665Y-3.0295
X4.9724Y-3.3898
X5.0039Y-2.9055
X5.1063Y-3.5354
X5.1181Y-3.0787
X5.2047Y-3.0512
X5.2067Y-3.435
X5.2087Y-3.0079
X5.2126Y-2.9567
X5.3996Y-3.7756
T2
X4.8071Y-2.878
X4.8071Y-2.9173
X4.8071Y-2.9567
X4.8465Y-2.878
X4.8465Y-2.9173
X4.8465Y-2.9567
X4.8858Y-2.878
X4.8858Y-2.9173
X4.8858Y-2.9567
T3
X3.3583Y-3.1898
X3.369Y-3.1331
X3.4386Y-3.252
X3.4567Y-3.1898
X3.6949Y-2.9843
X3.6949Y-3.0827
X3.6949Y-3.2795
X3.937Y-2.9843
X3.937Y-3.0827
X3.937Y-3.2795
X4.1772Y-2.9843
X4.1772Y-3.0827
X4.1772Y-3.2795
X4.4173Y-2.9843
X4.4173Y-3.0827
X4.4173Y-3.2795
X4.6812Y-3.189
X4.6993Y-3.1268
X4.7689Y-3.2457
X4.7796Y-3.189
X5.0394Y-3.0827
X5.0394Y-3.2795
X5.2622Y-2.8909
X5.2665Y-3.222
X5.3189Y-2.8031
X5.3189Y-2.9016
X5.3287Y-3.1417
X5.3287Y-3.2402
X5.3811Y-2.8213
X5.3854Y-3.1524
T4
X3.4213Y-2.4823
X3.4213Y-2.5823
X3.5213Y-2.4823
X3.5213Y-2.5823
X3.6213Y-2.4823
X3.6213Y-2.5823
X3.7213Y-2.4823
X3.7213Y-2.5823
X3.8213Y-2.4823
X3.8213Y-2.5823
X3.9213Y-2.4823
X3.9213Y-2.5823
X4.0213Y-2.4823
X4.0213Y-2.5823
X4.1213Y-2.4823
X4.1213Y-2.5823
X4.2213Y-2.4823
X4.2213Y-2.5823
X4.3213Y-2.4823
X4.3213Y-2.5823
X4.4213Y-2.4823
X4.4213Y-2.5823
X4.5213Y-2.4823
X4.5213Y-2.5823
X4.6213Y-2.4823
X4.6213Y-2.5823
X4.7213Y-2.4823
X4.7213Y-2.5823
X4.8213Y-2.4823
X4.8213Y-2.5823
X4.9213Y-2.4823
X4.9213Y-2.5823
X5.0213Y-2.4823
X5.0213Y-2.5823
X5.1213Y-2.4823
X5.1213Y-2.5823
X5.2213Y-2.4823
X5.2213Y-2.5823
X5.3213Y-2.4823
X5.3213Y-2.5823
T5
X3.6181Y-3.8701
X4.126Y-3.8701
X4.6339Y-3.8701
X5.1417Y-3.8701
T3
G00X3.4134Y-3.6201
M15
G01X3.4134Y-3.5453
M16
G05
G00X3.5197Y-3.6201
M15
G01X3.5197Y-3.5925
M16
G05
G00X3.6063Y-3.7953
M15
G01X3.6299Y-3.7953
M16
G05
G00X3.7165Y-3.6181
M15
G01X3.7165Y-3.5945
M16
G05
G00X3.7894Y-3.4291
M15
G01X3.7697Y-3.4291
M16
G05
G00X3.7992Y-3.7264
M15
G01X3.7992Y-3.7067
M16
G05
G00X3.815Y-3.6181
M15
G01X3.815Y-3.5945
M16
G05
G00X3.9213Y-3.6201
M15
G01X3.9213Y-3.5453
M16
G05
G00X4.0276Y-3.6201
M15
G01X4.0276Y-3.5925
M16
G05
G00X4.1142Y-3.7953
M15
G01X4.1378Y-3.7953
M16
G05
G00X4.2244Y-3.6181
M15
G01X4.2244Y-3.5945
M16
G05
G00X4.2972Y-3.4291
M15
G01X4.2776Y-3.4291
M16
G05
G00X4.3071Y-3.7264
M15
G01X4.3071Y-3.7067
M16
G05
G00X4.3228Y-3.6181
M15
G01X4.3228Y-3.5945
M16
G05
G00X4.4291Y-3.6201
M15
G01X4.4291Y-3.5453
M16
G05
G00X4.5354Y-3.6201
M15
G01X4.5354Y-3.5925
M16
G05
G00X4.622Y-3.7953
M15
G01X4.6457Y-3.7953
M16
G05
G00X4.7323Y-3.6181
M15
G01X4.7323Y-3.5945
M16
G05
G00X4.8051Y-3.4291
M15
G01X4.7854Y-3.4291
M16
G05
G00X4.815Y-3.7264
M15
G01X4.815Y-3.7067
M16
G05
G00X4.8307Y-3.6181
M15
G01X4.8307Y-3.5945
M16
G05
G00X4.937Y-3.6201
M15
G01X4.937Y-3.5453
M16
G05
G00X5.0433Y-3.6201
M15
G01X5.0433Y-3.5925
M16
G05
G00X5.1299Y-3.7953
M15
G01X5.1535Y-3.7953
M16
G05
G00X5.2402Y-3.6181
M15
G01X5.2402Y-3.5945
M16
G05
G00X5.313Y-3.4291
M15
G01X5.2933Y-3.4291
M16
G05
G00X5.3228Y-3.7264
M15
G01X5.3228Y-3.7067
M16
G05
G00X5.3386Y-3.6181
M15
G01X5.3386Y-3.5945
M16
G05
T0
M30
